<svg width="0" height="0" class="hidden">
  <defs>
    <symbol xmlns="http://www.w3.org/2000/svg" fill="none" stroke="currentColor" stroke-width="2" stroke-linecap="round" stroke-linejoin="round" viewBox="0 0 24 24" id="zap">
      <polygon points="13 2 3 14 12 14 11 22 21 10 12 10 13 2"></polygon>
    </symbol>
    <symbol xmlns="http://www.w3.org/2000/svg" fill="none" stroke="currentColor" stroke-width="2" stroke-linecap="round" stroke-linejoin="round" viewBox="0 0 24 24" id="youtube">
      <path d="M2.5 17a24.12 24.12 0 0 1 0-10 2 2 0 0 1 1.4-1.4 49.56 49.56 0 0 1 16.2 0A2 2 0 0 1 21.5 7a24.12 24.12 0 0 1 0 10 2 2 0 0 1-1.4 1.4 49.55 49.55 0 0 1-16.2 0A2 2 0 0 1 2.5 17"></path>
      <path d="m10 15 5-3-5-3z"></path>
    </symbol>
    <symbol xmlns="http://www.w3.org/2000/svg" fill="none" stroke="currentColor" stroke-width="2" stroke-linecap="round" stroke-linejoin="round" viewBox="0 0 24 24" id="x">
      <line x1="18" x2="6" y1="6" y2="18"></line>
      <line x1="6" x2="18" y1="6" y2="18"></line>
    </symbol>
  </defs>
</svg>