<svg width="40" height="40" viewBox="0 0 40 40" fill="none" xmlns="http://www.w3.org/2000/svg">
<g clip-path="url(#clip0_14689_32455)">
<path d="M20.8653 7.00425C21.4898 6.97768 22.1143 6.87142 22.7204 6.69432C23.6295 6.47294 24.557 6.3224 25.4937 6.26927C30.7558 6.04789 35.0261 10.3603 36.4679 14.8853C37.1751 17.1434 37.4138 19.5077 37.1934 21.8454C36.4955 29.2218 31.6283 35.4203 25.9713 36.1996C23.3081 36.5715 21.5173 35.6329 19.9561 35.6329C18.395 35.6329 16.7236 36.5715 14.0512 36.1996C8.38504 35.4026 3.51783 29.204 2.81989 21.8454C2.48011 18.1971 3.19641 14.2389 5.35452 11.175C7.58609 8.01373 11.5901 5.7911 15.6124 6.36668C16.7236 6.52607 17.8164 6.94226 18.9276 7.0131H19.1388" fill="#6C709C"/>
<path d="M17.9267 6.8715C17.1553 6.7121 16.3839 6.47302 15.6033 6.36675C11.581 5.80003 7.57702 8.01381 5.34545 11.1751C3.18735 14.239 2.46186 18.1972 2.81083 21.8455C3.50877 29.2041 8.37598 35.4027 14.0421 36.1997C16.7053 36.5716 18.3859 35.6418 19.9471 35.6329C21.5083 35.6241 23.299 36.5716 25.9622 36.1997C29.3601 35.7215 32.4641 33.304 34.5671 29.8505" stroke="black" stroke-width="1.5" stroke-linecap="round" stroke-linejoin="round"/>
<path d="M35.8068 27.3977C35.7609 27.5128 35.7058 27.6279 35.6599 27.743" stroke="black" stroke-width="1.5" stroke-linecap="round" stroke-linejoin="round"/>
<path d="M20.8654 7.00425C21.4899 6.97768 22.1144 6.87142 22.7205 6.69432C23.6296 6.47294 24.5572 6.3224 25.4939 6.26927C30.756 6.04789 35.0262 10.3603 36.468 14.8853C37.1752 17.1434 37.4139 19.5077 37.1935 21.8454C37.0925 22.8992 36.8997 23.9441 36.6333 24.9713" stroke="black" stroke-width="1.5" stroke-linecap="round" stroke-linejoin="round"/>
<path d="M18.7624 10.3161C18.7624 10.3161 20.2409 11.3432 21.8572 10.5463" stroke="black" stroke-width="1.5" stroke-linecap="round" stroke-linejoin="round"/>
<path d="M20.4705 10.6792C20.1123 4.54257 23.6847 2.72727 23.6847 2.72727" stroke="black" stroke-width="1.5" stroke-linecap="round" stroke-linejoin="round"/>
<path opacity="0.03" d="M17.3206 7.022C17.3206 7.022 18.6155 11.2105 24.8877 10.5021C31.16 9.80251 32.9232 16.8955 31.9222 23.6076C31.0682 29.2838 27.5509 32.5336 23.1245 32.1617C18.2665 31.7632 18.3767 36.2173 13.7391 36.2173C18.6063 36.7398 20.5164 35.6949 20.5164 35.6949C20.5164 35.6949 25.1449 36.3147 26.8622 36.1288C28.3223 35.9694 37.8272 31.1699 37.019 18.0289C36.1925 4.70196 24.6031 6.22504 24.6031 6.22504C24.6031 6.22504 21.0583 8.04034 17.339 7.00429L17.3206 7.022Z" fill="black"/>
<path d="M10.5065 11.5293C12.9309 10.4401 15.1074 12.5299 13.3442 14.6197C10.9932 17.3648 11.0759 19.1181 11.0116 21.8189C10.9198 25.6798 7.41169 24.688 6.98925 22.731C5.56582 17.6127 8.08208 12.6185 10.5065 11.5204V11.5293Z" fill="white" fill-opacity="0.2"/>
<path d="M10.5891 29.0978C11.4248 29.0624 12.0677 28.354 12.0309 27.5128C11.9942 26.6804 11.2779 26.034 10.4422 26.0694C9.60651 26.1048 8.96367 26.8132 9.0004 27.6545C9.03713 28.4868 9.75344 29.1333 10.5891 29.0978Z" fill="white" fill-opacity="0.2"/>
</g>
<defs>
<clipPath id="clip0_14689_32455">
<rect width="36.3636" height="36.3636" fill="white" transform="translate(1.81818 1.81818)"/>
</clipPath>
</defs>
</svg>
