<svg width="40" height="40" viewBox="0 0 40 40" fill="none" xmlns="http://www.w3.org/2000/svg">
<g clip-path="url(#clip0_11744_20897)">
<path d="M19.4454 32.7207C18.1067 35.2473 15.0109 36.2649 12.4343 35.0251C9.74812 33.7326 8.64589 30.4823 10.0044 27.829C14.0217 19.9827 17.1461 14.1904 21.6905 6.31827C23.0426 3.97614 25.9733 3.08068 28.4119 4.24997C31.074 5.52645 32.1396 8.76128 30.7574 11.3701L19.4454 32.7207Z" fill="#ECECEC"/>
<path opacity="0.08" d="M22.0649 5.77139C17.4392 13.1515 14.539 19.4529 10.3029 26.9925C8.72558 29.7998 9.42435 33.3731 12.0138 35.2891C12.0138 35.2891 9.79804 33.1477 11.2982 29.4279C11.9913 27.7093 12.4452 26.6815 12.8075 25.9098C13.2124 25.0476 14.2354 24.6742 15.1046 25.0631C16.7365 25.793 19.2551 26.9691 20.6526 27.8689C21.0582 28.13 21.6507 28.0034 21.8549 27.5664C22.0132 27.2275 21.8782 26.8234 21.548 26.6479L18.1833 24.8583C15.9142 23.6515 15.0236 20.8419 16.25 18.5833C18.1164 15.1459 20.3079 11.3723 22.9667 7.0989C24.9553 3.9027 29.7782 5.23894 29.7782 5.23894L28.4229 4.38363C26.2675 3.02336 23.4181 3.61244 22.0649 5.77139Z" fill="#333333"/>
<path d="M12.0624 23.6549L11.667 24.5391C11.0442 26.0168 10.4302 27.56 9.80789 29.1983C8.90367 31.5786 9.94668 34.2456 12.1967 35.4377V35.4377C14.8176 36.8263 18.0611 35.7042 19.3062 33.0121C19.8152 31.9117 20.3125 30.8525 20.8037 29.8242C20.9647 29.4871 21.1251 29.1533 21.285 28.8224C21.4808 28.4172 21.676 28.0165 21.8708 27.6195C24.5453 22.1687 27.1561 17.4248 30.626 11.6492C32.1566 9.10162 31.2616 5.78037 28.6354 4.38895V4.38895C26.3881 3.19828 23.598 3.82629 22.1352 5.90673C18.0902 11.6597 15.3255 16.3966 12.8526 21.8302" stroke="#333333" stroke-width="1.5" stroke-linecap="round"/>
<rect width="1.41674" height="1.87644" rx="0.708368" transform="matrix(-0.883638 -0.46817 -0.46817 0.883638 22.9322 17.8361)" fill="#DCDCDC"/>
<rect width="1.41674" height="1.87644" rx="0.708368" transform="matrix(-0.883638 -0.46817 -0.46817 0.883638 21.3947 20.7378)" fill="#DCDCDC"/>
<rect width="1.41674" height="1.87644" rx="0.708368" transform="matrix(-0.883638 -0.46817 -0.46817 0.883638 19.8578 23.6379)" fill="#DCDCDC"/>
<rect width="1.41674" height="1.87644" rx="0.708368" transform="matrix(-0.883638 -0.46817 -0.46817 0.883638 20.7411 16.6754)" fill="#DCDCDC"/>
<rect width="1.41674" height="1.87644" rx="0.708368" transform="matrix(-0.883638 -0.46817 -0.46817 0.883638 19.2044 19.577)" fill="#DCDCDC"/>
<rect width="1.41674" height="1.87644" rx="0.708368" transform="matrix(-0.883638 -0.46817 -0.46817 0.883638 17.6671 22.4788)" fill="#DCDCDC"/>
<path d="M27.6426 29.7116C30.2135 31.1434 33.4653 30.2172 34.875 27.634C36.2269 25.1566 35.3914 22.0484 32.9601 20.6151C24.9662 15.9022 19.0256 12.8205 10.7372 9.11786C8.1874 7.97882 5.20324 9.1002 3.99716 11.6189C2.76301 14.1963 3.84329 17.2853 6.40461 18.5524C14.3835 22.4997 20.1183 25.5209 27.6426 29.7116Z" fill="#F7F7F7"/>
<path opacity="0.08" d="M27.9827 29.8294C20.2634 25.5404 14.375 22.4795 6.18238 18.441C3.71776 17.226 2.63518 14.2905 3.73484 11.7723L4.0793 10.9835C4.0793 10.9835 3.73116 13.2885 5.7285 15.81C6.32578 16.564 7.11198 17.1359 7.93 17.642C12.5903 20.5253 19.8301 24.4433 28.3605 28.444C31.8035 30.0588 34.8022 27.7693 34.8022 27.7693C33.5267 30.2629 30.4311 31.1897 27.9827 29.8294Z" fill="#333333"/>
<path d="M19.881 13.4254C19.8592 13.4149 19.8373 13.4044 19.8155 13.3938M22.1642 14.6132C26.0479 16.6359 29.4037 18.7501 33.4652 21.604C35.5502 23.0691 36.1876 25.8639 34.9945 28.1158V28.1158C33.6069 30.7348 30.2935 31.6269 27.7526 30.1009C20.1077 25.5093 14.2249 22.3917 6.06606 18.6123C3.37137 17.364 2.24713 14.1149 3.63749 11.4907V11.4907C4.82916 9.24151 7.49191 8.19693 9.86959 9.10554C12.6617 10.1725 15.3074 11.2659 17.6 12.3002" stroke="#333333" stroke-width="1.5" stroke-linecap="round" stroke-linejoin="round"/>
<path d="M23.3837 24.8764C23.9688 25.235 24.7378 25.0296 25.0591 24.4232L26.9456 20.8625C27.2312 20.3235 27.0598 19.6543 26.5468 19.3242C22.8935 16.974 20.338 15.6841 16.3005 13.9108C15.735 13.6625 15.0736 13.894 14.7845 14.4397L12.9037 17.9896C12.5834 18.5941 12.8427 19.3435 13.4653 19.627C17.2977 21.372 19.7974 22.6783 23.3837 24.8764Z" fill="#ECECEC"/>
<path opacity="0.08" fill-rule="evenodd" clip-rule="evenodd" d="M16.2028 16.6231C15.8786 16.4514 15.7551 16.0494 15.9268 15.7252C16.0986 15.4011 16.5006 15.2775 16.8247 15.4493L17.1212 15.6064C17.4454 15.7781 17.5689 16.1801 17.3972 16.5043C17.2254 16.8284 16.8234 16.952 16.4993 16.7802L16.2028 16.6231ZM14.8391 17.7793C14.6673 18.1034 14.7909 18.5055 15.115 18.6772L15.4115 18.8343C15.7357 19.006 16.1377 18.8825 16.3094 18.5583C16.4812 18.2342 16.3576 17.8322 16.0335 17.6604L15.737 17.5033C15.4128 17.3316 15.0108 17.4551 14.8391 17.7793ZM17.412 19.1433C17.2403 19.4674 17.3639 19.8694 17.688 20.0412L17.9845 20.1983C18.3087 20.37 18.7107 20.2465 18.8824 19.9223C19.0542 19.5982 18.9306 19.1962 18.6064 19.0244L18.3099 18.8673C17.9858 18.6956 17.5838 18.8191 17.412 19.1433ZM20.2616 21.4035C19.9375 21.2317 19.8139 20.8297 19.9857 20.5056C20.1574 20.1814 20.5594 20.0579 20.8836 20.2296L21.1801 20.3867C21.5042 20.5584 21.6278 20.9604 21.456 21.2846C21.2843 21.6088 20.8823 21.7323 20.5581 21.5606L20.2616 21.4035ZM22.5581 21.8696C22.3863 22.1938 22.5099 22.5958 22.834 22.7675L23.1305 22.9246C23.4547 23.0964 23.8567 22.9728 24.0284 22.6487C24.2002 22.3245 24.0766 21.9225 23.7525 21.7508L23.456 21.5937C23.1318 21.4219 22.7298 21.5455 22.5581 21.8696ZM18.5007 17.089C18.3289 17.4132 18.4525 17.8152 18.7767 17.9869L19.0732 18.144C19.3973 18.3158 19.7993 18.1922 19.9711 17.868C20.1428 17.5439 20.0192 17.1419 19.6951 16.9701L19.3986 16.8131C19.0744 16.6413 18.6724 16.7649 18.5007 17.089ZM21.3495 19.3493C21.0254 19.1776 20.9018 18.7756 21.0736 18.4514C21.2453 18.1273 21.6473 18.0037 21.9715 18.1755L22.268 18.3325C22.5921 18.5043 22.7157 18.9063 22.5439 19.2304C22.3722 19.5546 21.9702 19.6782 21.646 19.5064L21.3495 19.3493ZM23.6467 19.8153C23.475 20.1395 23.5985 20.5415 23.9227 20.7132L24.2192 20.8703C24.5433 21.0421 24.9453 20.9185 25.1171 20.5944C25.2888 20.2702 25.1653 19.8682 24.8411 19.6965L24.5446 19.5394C24.2205 19.3676 23.8185 19.4912 23.6467 19.8153Z" fill="#333333"/>
</g>
<defs>
<clipPath id="clip0_11744_20897">
<rect width="40" height="40" fill="white"/>
</clipPath>
</defs>
</svg>
