<svg width="32" height="32" viewBox="0 0 32 32" fill="none" xmlns="http://www.w3.org/2000/svg">
<mask id="mask0_1268_2333" style="mask-type:alpha" maskUnits="userSpaceOnUse" x="0" y="0" width="32" height="32">
<rect width="32" height="32" fill="white"/>
</mask>
<g mask="url(#mask0_1268_2333)">
<ellipse cx="16" cy="27.4286" rx="3.6" ry="3.65714" fill="#ADAEC2"/>
<path d="M5.76212 22.9429V13.8254C5.76212 13.8254 8.36699 5.30439 15.4985 4.7115C22.6301 4.11862 26.6765 12.3219 26.1841 13.8254C25.6917 15.3288 26.1841 22.9429 26.1841 22.9429H5.76212Z" fill="#ADAEC2"/>
<rect x="3" y="22" width="26" height="5" rx="2.5" fill="#6C709C"/>
<path fill-rule="evenodd" clip-rule="evenodd" d="M26.9769 21.0486V20.9778V14.6486C26.9769 11.9111 25.9472 9.27895 24.064 7.28891C23.4603 6.64862 22.7845 6.08059 22.0393 5.61808C21.7201 5.40419 21.258 5.51114 21.0443 5.83197C20.8305 6.15142 20.9374 6.61391 21.258 6.82781C21.8977 7.25419 22.5014 7.7167 23.0343 8.28616C24.6691 10.0278 25.5572 12.268 25.5572 14.6499L25.5558 20.9777C25.5558 21.1194 25.5919 21.2263 25.6627 21.3333C25.5919 21.4402 25.5558 21.5472 25.5558 21.6888C25.5558 22.0805 25.875 22.3999 26.2664 22.3999C27.2614 22.3999 28.0427 23.1819 28.0427 24.1777C28.0427 25.1735 27.2614 25.9555 26.2664 25.9555H5.66109C4.66607 25.9555 3.88478 25.1735 3.88478 24.1777C3.88478 23.1819 4.66607 22.3999 5.66109 22.3999H22.4292C22.8205 22.3999 23.1397 22.0805 23.1397 21.6888C23.1397 21.2972 22.8205 20.9777 22.4292 20.9777H6.37162V14.6485C6.37162 12.2665 7.25978 9.98998 8.89456 8.28473C10.6348 6.40001 13.1215 5.33334 15.6794 5.33334H16.283C17.0297 5.33334 17.7749 5.44028 18.4854 5.58195C18.5562 5.58195 18.5922 5.61806 18.663 5.61806C18.9822 5.61806 19.2667 5.40417 19.3374 5.08473C19.4082 4.83612 19.3374 4.62222 19.1959 4.44444C19.3027 4.08889 19.3735 3.73333 19.3735 3.37778C19.3735 1.52917 17.8456 0 15.9985 0C14.1514 0 12.6235 1.52917 12.6235 3.37778C12.6235 3.69722 12.6596 4.01806 12.7651 4.33749C10.918 4.87083 9.21244 5.86667 7.89833 7.28889C6.01515 9.28057 4.98545 11.9111 4.98545 14.6485L4.98684 20.9778V21.0486C3.56579 21.3681 2.5 22.6486 2.5 24.1778C2.5 25.9556 3.92105 27.3778 5.69737 27.3778H11.7368V27.7333C11.7368 30.0806 13.6547 32 16 32C18.3453 32 20.2632 30.0806 20.2632 27.7333V27.3778H26.3026C28.0789 27.3778 29.5 25.9556 29.5 24.1778C29.4639 22.6486 28.3981 21.3695 26.9771 21.0486L26.9769 21.0486ZM15.9637 1.42236C17.0295 1.42236 17.9177 2.31125 17.9177 3.37792C17.9177 3.59181 17.8816 3.8043 17.8108 4.0182C17.4916 3.98209 17.171 3.94737 16.8519 3.91126H16.7103H15.2532H15.1116C14.7924 3.91126 14.4372 3.94737 14.1166 4.0182C14.0458 3.80431 14.0097 3.59182 14.0097 3.37792C14.0097 2.31125 14.8979 1.42236 15.9637 1.42236H15.9637ZM15.9637 30.5779C14.4011 30.5779 13.1216 29.2973 13.1216 27.7334C13.1216 27.6265 13.1216 27.4848 13.1577 27.3779H18.7712C18.7712 27.4848 18.8073 27.6265 18.8073 27.7334C18.8059 29.2973 17.5264 30.5779 15.9638 30.5779H15.9637Z" fill="black"/>
<path fill-rule="evenodd" clip-rule="evenodd" d="M15.9637 1.42236C17.0295 1.42236 17.9177 2.31125 17.9177 3.37792C17.9177 3.59181 17.8816 3.8043 17.8108 4.0182C17.4916 3.98209 17.171 3.94737 16.8519 3.91126H16.7103H15.2532H15.1116C14.7924 3.91126 14.4372 3.94737 14.1166 4.0182C14.0458 3.80431 14.0098 3.59182 14.0098 3.37792C14.0098 2.31125 14.8979 1.42236 15.9637 1.42236H15.9637Z" fill="#ADAEC2"/>
</g>
</svg>
