<svg width="40" height="40" viewBox="0 0 40 40" fill="none" xmlns="http://www.w3.org/2000/svg">
<path d="M12 20L15.9227 15.0967C15.9714 15.0358 15.9889 14.9556 15.97 14.8799L15.5473 13.1894C15.5195 13.0781 15.4195 13 15.3048 13H13" stroke="white" stroke-width="1.5" stroke-linecap="round"/>
<path d="M28 19.5L25.3828 9.68558C25.3536 9.57615 25.2545 9.5 25.1413 9.5L22.5 9.5" stroke="white" stroke-width="1.5" stroke-linecap="round"/>
<path d="M27 15.5H20" stroke="white" stroke-width="1.5" stroke-linecap="round"/>
<circle cx="9.50415" cy="25.06" r="6.5" fill="white"/>
<path d="M37.4641 25.03C37.4105 28.5974 34.5315 31.4763 30.9641 31.53C29.2245 31.5832 27.5401 30.9155 26.3093 29.6848C25.0786 28.4541 24.4109 26.7697 24.4641 25.03C24.4641 22.7078 25.703 20.5619 27.7141 19.4008C29.7252 18.2397 32.203 18.2397 34.2141 19.4008C36.2252 20.5619 37.4641 22.7078 37.4641 25.03Z" fill="white"/>
<circle cx="30.9642" cy="24.96" r="4.69" fill="#F7F7F7"/>
<circle cx="9.47418" cy="24.96" r="4.69" fill="#F7F7F7"/>
<path d="M28.1342 30.82C26.2247 29.9063 24.8797 28.1199 24.5294 26.0322C24.1791 23.9444 24.8674 21.8169 26.3742 20.33" stroke="#333333" stroke-width="1.5" stroke-linecap="round" stroke-linejoin="round"/>
<path d="M29.3042 18.66C32.5343 17.8216 35.8746 19.5655 37.0331 22.6951C38.1915 25.8248 36.7918 29.3232 33.7942 30.79C33.4713 30.9482 33.1371 31.0819 32.7942 31.19" stroke="#333333" stroke-width="1.5" stroke-linecap="round" stroke-linejoin="round"/>
<path d="M13.8242 20.1C16.2605 22.2699 16.7108 25.9096 14.8768 28.6078C13.0428 31.306 9.49285 32.2267 6.57868 30.7599C3.66451 29.2931 2.28915 25.8933 3.36377 22.8129C4.43839 19.7325 7.63 17.9259 10.8242 18.59" stroke="#333333" stroke-width="1.5" stroke-linecap="round" stroke-linejoin="round"/>
<path d="M26.1542 8.5L30.9642 25.02" stroke="#333333" stroke-width="1.5" stroke-linecap="round" stroke-linejoin="round"/>
<path d="M16.6442 11.94L19.8942 23.28" stroke="#333333" stroke-width="1.5" stroke-linecap="round" stroke-linejoin="round"/>
<path d="M13.2042 11.94H16.6442" stroke="#333333" stroke-width="1.5" stroke-linecap="round" stroke-linejoin="round"/>
<path d="M23.6742 8.5H26.1542" stroke="#333333" stroke-width="1.5" stroke-linecap="round" stroke-linejoin="round"/>
<path d="M19.8942 14.33H27.5942" stroke="#333333" stroke-width="1.5" stroke-linecap="round" stroke-linejoin="round"/>
<path d="M13.6842 24.97L9.47424 25.02L17.4842 15.29" stroke="#333333" stroke-width="1.5" stroke-linecap="round" stroke-linejoin="round"/>
<path d="M22.0941 24.44C22.3052 25.1201 22.0857 25.8604 21.538 26.3154C20.9902 26.7705 20.2223 26.8507 19.5924 26.5185C18.9624 26.1864 18.5948 25.5074 18.6608 24.7984C18.7269 24.0894 19.2137 23.49 19.8941 23.28" stroke="#333333" stroke-width="1.5" stroke-linecap="round" stroke-linejoin="round"/>
<path d="M30.4242 31.44H30.5242" stroke="#333333" stroke-width="1.5" stroke-linecap="round" stroke-linejoin="round"/>
<path d="M16.0142 25.06H18.6542" stroke="#333333" stroke-width="1.5" stroke-linecap="round" stroke-linejoin="round"/>
</svg>
