<svg width="40" height="40" viewBox="0 0 40 40" fill="none" xmlns="http://www.w3.org/2000/svg">
<path d="M19.2951 15.9733L24.0445 8L26.3556 16.6667L35.6 17.9048L29.8222 22.8571L32.1334 29.0476L25.2 27.8095L20.5778 34L18.5902 28.02L9.02225 29.0476L14.8 22.8571L4.40002 12.9524L11.5 14.3924L14.8 15.0617L19.2951 15.9733Z" fill="#F7F7F7"/>
<path d="M14.8 15.0617L19.2951 15.9733L24.0445 8L26.3556 16.6667L35.6 17.9048L29.8222 22.8571L32.1334 29.0476L25.2 27.8095L20.5778 34L18.5902 28.02L9.02225 29.0476L14.8 22.8571L4.40002 12.9524L11.5 14.3924" stroke="#333333" stroke-width="1.5" stroke-linecap="round" stroke-linejoin="round"/>
</svg>
