<svg width="40" height="40" viewBox="0 0 40 40" fill="none" xmlns="http://www.w3.org/2000/svg">
<path d="M19.5159 26.7622L19.9233 32.8727C19.9475 33.236 19.5727 33.4884 19.2492 33.3215C17.1283 32.2273 10.9511 28.949 8.43398 26.6255C4.86432 23.3304 2.84753 20.1583 3.25096 15.3171C3.72215 9.66287 10.0742 5.91507 15.0306 7.07146C21.4306 8.56467 22.2284 14.5011 22.322 15.6095C22.3318 15.7248 22.293 15.8374 22.219 15.9262L19.0024 19.7861C18.88 19.933 18.8584 20.1393 18.9479 20.3082L20.8019 23.8102C20.8759 23.9499 20.8748 24.1175 20.7991 24.2563L19.5724 26.5052C19.5296 26.5838 19.51 26.6729 19.5159 26.7622Z" fill="#F7F7F7"/>
<path fill-rule="evenodd" clip-rule="evenodd" d="M8.84352 11.6406C9.90212 10.7801 11.6852 9.90034 14.4335 10.2442C14.6917 10.2765 14.9272 10.0934 14.9595 9.83519C14.9918 9.57697 14.8087 9.34146 14.5505 9.30915C11.5201 8.92997 9.4849 9.90483 8.24912 10.9093C8.04719 11.0735 8.01655 11.3702 8.18069 11.5722C8.34483 11.7741 8.64159 11.8047 8.84352 11.6406ZM7.71833 12.8429C7.8662 12.6288 7.81249 12.3353 7.59836 12.1875C7.38423 12.0396 7.09077 12.0933 6.94289 12.3074C6.87227 12.4097 6.81947 12.4937 6.78341 12.5539C6.76538 12.584 6.75151 12.6082 6.74167 12.6257L6.72992 12.647L6.72627 12.6538L6.725 12.6562L6.72451 12.6572L6.72429 12.6576L6.72419 12.6577L6.72415 12.6578L7.14132 12.8769L6.7241 12.6579C6.60318 12.8884 6.69195 13.1732 6.92237 13.2941C7.15236 13.4148 7.43653 13.3266 7.55785 13.0971C7.55803 13.0968 7.5582 13.0965 7.55837 13.0962L7.55823 13.0964L7.55799 13.0969L7.55842 13.0961L7.56386 13.0862C7.56937 13.0764 7.57865 13.0602 7.59182 13.0382C7.61816 12.9942 7.66001 12.9274 7.71833 12.8429ZM7.55842 13.0961L7.55837 13.0962C7.55842 13.0961 7.55846 13.096 7.5585 13.0959L7.55846 13.096L7.55842 13.0961Z" fill="white"/>
<path d="M15.1009 24.2563L16.3932 26.6255L19.6161 33.0711C19.6649 33.1687 19.746 33.2463 19.8457 33.2908L22.0848 34.2889C22.2389 34.3576 22.4141 34.3416 22.5501 34.2416C23.7299 33.3749 29.4398 29.1529 32.1779 26.6255C35.7476 23.3304 37.7643 20.1583 37.3609 15.3171C36.8897 9.66287 30.5376 5.91507 25.5813 7.07146C19.3685 8.52101 14.794 14.1577 13.7783 15.5001C13.65 15.6697 13.6606 15.9016 13.7968 16.065L16.8977 19.7861C17.0201 19.933 17.0416 20.1393 16.9521 20.3082L15.0982 23.8102C15.0242 23.9499 15.0252 24.1175 15.1009 24.2563Z" fill="#F7F7F7"/>
<path fill-rule="evenodd" clip-rule="evenodd" d="M23.4141 7.54251C21.8754 8.45466 21.0885 8.99334 20.2137 10.134L21.6272 12.7255L22.334 15.5526L18.8001 20.0289L20.6849 23.7983L19.5069 26.6255L19.7425 32.9864C20.1554 34.0273 21.2148 34.1533 22.334 34.1644L22.8052 27.3322L24.6899 23.5628L22.8052 20.0289L27.2814 15.5526L26.1035 11.312L23.4141 7.54251Z" fill="#ECECEC"/>
<path d="M22.8052 20.0289L24.6899 23.7984H20.6849L18.8001 20.0289H22.8052Z" fill="#DCDCDC"/>
<path d="M20.2137 10.134C21.0885 8.99334 21.8754 8.45466 23.4141 7.54251L26.1035 11.312L27.2814 15.5526H22.334L21.6272 12.7255L20.2137 10.134Z" fill="#DCDCDC"/>
<path d="M3.5654 13.6679C4.98894 8.95693 10.574 6.03168 15.0305 7.07146C21.4306 8.56467 22.2284 14.5011 22.322 15.6095C22.3318 15.7248 22.293 15.8374 22.219 15.9262L19.0023 19.7861C18.88 19.933 18.8584 20.1393 18.9479 20.3082L20.8019 23.8102C20.8758 23.9499 20.8748 24.1175 20.7991 24.2563L19.5724 26.5052C19.5295 26.5838 19.51 26.6729 19.5159 26.7622L19.9233 32.8727C19.9475 33.236 19.5727 33.4884 19.2492 33.3215C17.1283 32.2273 10.9511 28.949 8.43397 26.6255C5.24205 23.6791 3.29174 20.831 3.20316 16.8" stroke="#333333" stroke-width="1.5" stroke-linecap="round" stroke-linejoin="round"/>
<path d="M25.6 11.2C26.8901 13.7803 27.0241 15.1816 27.0277 15.6276C27.0285 15.7313 26.9822 15.8266 26.909 15.9001L23.0436 19.7887C22.9009 19.9322 22.8658 20.1507 22.9563 20.3316L24.5769 23.5727C24.6473 23.7136 24.6427 23.8804 24.5645 24.0172L22.8567 27.0059C22.8226 27.0656 22.8019 27.1321 22.7962 27.2006L22.4439 31.4295" stroke="#333333" stroke-width="1.5" stroke-linecap="round" stroke-linejoin="round"/>
<path d="M23.0406 34.1645C25.3629 32.8475 29.7229 29.1115 32.6999 25.9188C36.0129 22.3658 37.8151 19.9227 37.4117 15.0815C36.9405 9.42725 30.5375 5.44399 25.5812 6.60037C24.2685 6.90665 23.1914 7.39986 22.3078 7.99999" stroke="#333333" stroke-width="1.5" stroke-linecap="round" stroke-linejoin="round"/>
</svg>
