<svg width="40" height="40" viewBox="0 0 40 40" fill="none" xmlns="http://www.w3.org/2000/svg">
<path d="M9.20559 21.4307V8.50749C9.12884 7.42106 9.97056 6.47731 11.093 6.39131H29.2653C30.3878 6.47731 31.2295 7.42106 31.1527 8.50749V31.4382C31.2295 32.5246 30.3878 33.4684 29.2653 33.5544H11.093C9.97056 33.4684 9.12884 32.5246 9.20559 31.4382V27.2381" fill="#ADAEC2"/>
<path d="M9.20559 21.4307V8.50749C9.12884 7.42106 9.97056 6.47731 11.093 6.39131H29.2653C30.3878 6.47731 31.2295 7.42106 31.1527 8.50749V31.4382C31.2295 32.5246 30.3878 33.4684 29.2653 33.5544H11.093C9.97056 33.4684 9.12884 32.5246 9.20559 31.4382V27.2381" stroke="black" stroke-width="1.5" stroke-linecap="round"/>
<path d="M9.20561 24.4677V24.2335V24.4677Z" fill="#ADAEC2"/>
<path d="M9.20561 24.4677V24.2335" stroke="black" stroke-width="1.5" stroke-linecap="round"/>
<rect x="13" y="10" width="14.5" height="5" rx="1" fill="#9497B2" stroke="black" stroke-width="1.5" stroke-linecap="round"/>
<rect x="24.5" y="19" width="3" height="9.5" rx="1" fill="#ADAEC2" stroke="black" stroke-width="1.5" stroke-linecap="round"/>
<rect x="18.5" y="19" width="3.5" height="3.5" rx="1" fill="#ADAEC2" stroke="black" stroke-width="1.5" stroke-linecap="round"/>
<rect x="13" y="19" width="3.5" height="3.5" rx="1" fill="#ADAEC2" stroke="black" stroke-width="1.5" stroke-linecap="round"/>
<rect x="18.5" y="25" width="3.5" height="3.5" rx="1" fill="#ADAEC2" stroke="black" stroke-width="1.5" stroke-linecap="round"/>
<rect x="13" y="25" width="3.5" height="3.5" rx="1" fill="#ADAEC2" stroke="black" stroke-width="1.5" stroke-linecap="round"/>
</svg>
