<svg width="40" height="40" viewBox="0 0 40 40" fill="none" xmlns="http://www.w3.org/2000/svg">
<path d="M8 28C8 29.6569 9.34315 31 11 31H29C30.6569 31 32 29.6569 32 28V16H8V28Z" fill="#ADAEC2"/>
<path d="M8 13C8 11.3431 9.34315 10 11 10H29C30.6569 10 32 11.3431 32 13V19H8V13Z" fill="#6C709C"/>
<path d="M32 27V28C32 29.6569 30.6569 31 29 31H11C9.34315 31 8 29.6569 8 28V13C8 11.3431 9.34315 10 11 10H29C30.6569 10 32 11.3431 32 13V23.5" stroke="black" stroke-width="1.5" stroke-linecap="round" stroke-linejoin="round"/>
<path d="M8 19H31" stroke="black" stroke-width="1.5" stroke-linecap="round" stroke-linejoin="round"/>
<rect x="14.5" y="7" width="1.5" height="6" rx="0.75" fill="black"/>
<rect x="24" y="7" width="1.5" height="6" rx="0.75" fill="black"/>
</svg>
