<svg width="40" height="40" viewBox="0 0 40 40" fill="none" xmlns="http://www.w3.org/2000/svg">
<circle cx="17.3684" cy="33.1579" r="2.10526" fill="#ADAEC2" stroke="black" stroke-width="1.5" stroke-linecap="round" stroke-linejoin="round"/>
<path d="M18.4126 8.4425L28.4283 10.9992L23.8252 29.0315C23.4862 30.3596 22.6334 31.4987 21.4545 32.1981C20.2756 32.8976 18.8672 33.1 17.539 32.761C16.2109 32.4219 15.0718 31.5692 14.3724 30.3903C13.6729 29.2114 13.4705 27.803 13.8095 26.4748L18.4126 8.4425Z" fill="#6C709C"/>
<path d="M16.3788 10.6947C16.0104 12.1263 18.5683 14.0211 22.0841 14.9053C25.5999 15.7895 28.7472 15.3684 29.1156 13.9368L30.0525 10.2632L17.3156 7.02106L16.3788 10.6947Z" fill="#6C709C"/>
<path d="M26.1368 11.7053L25.3684 12.4947C24.2908 13.5884 23.5273 14.9518 23.1579 16.4421L20.1053 28.8631C19.8769 29.787 19.3046 30.5889 18.5053 31.1053L17.4526 32.7579C17.4526 32.7579 21.4421 33.4105 23.379 30.0105L26.9474 16.4631C26.9474 16.4631 29.4737 13.6842 29.9263 11.3789L26.1368 11.7053Z" fill="#ADAEC2"/>
<path d="M30.0587 10.269C30.4254 8.83266 27.8687 6.9397 24.3481 6.04102C20.8275 5.14233 17.6763 5.57822 17.3097 7.01461C16.943 8.451 19.4997 10.3439 23.0203 11.2426C26.5408 12.1413 29.6921 11.7054 30.0587 10.269Z" fill="#9497B2"/>
<path d="M25.1896 9.12633L22.1475 8.35791" stroke="#5A5E8C" stroke-width="1.5" stroke-linecap="round" stroke-linejoin="round"/>
<path d="M16.0315 17.7474L16.9999 13.9369C17.1683 13.2632 16.7368 12.4526 16.6736 11.9579C16.4726 10.2845 16.6933 8.58738 17.3157 7.02106C17.6841 5.57896 20.8315 5.14738 24.3473 6.04212C27.8631 6.93685 30.421 8.83159 30.0525 10.2526C29.6841 11.6737 26.5368 12.1263 23.021 11.2211C22.2434 11.0462 21.4799 10.814 20.7368 10.5263" stroke="black" stroke-width="1.5" stroke-linecap="round" stroke-linejoin="round"/>
<path d="M15.3999 20.1895L15.4525 20" stroke="black" stroke-width="1.5" stroke-linecap="round" stroke-linejoin="round"/>
<path d="M30.0527 10.2737C30.0527 10.2737 29.8 13.5474 28.3158 14.8526C28.0211 15.2737 27.2 15.7684 27.0211 16.4632L23.8106 29.0316C23.6438 29.6928 23.3476 30.3145 22.939 30.8605C22.5304 31.4065 22.0176 31.8661 21.4302 32.2126C20.8429 32.5592 20.1926 32.7858 19.5171 32.8794C18.8416 32.973 18.1542 32.9317 17.4948 32.7579V32.7579C16.8335 32.5911 16.2119 32.2949 15.6658 31.8863C15.1198 31.4777 14.6602 30.9649 14.3137 30.3776C13.9672 29.7902 13.7405 29.14 13.6469 28.4644C13.5534 27.7889 13.5947 27.1016 13.7685 26.4421L14.8211 22.3579" stroke="black" stroke-width="1.5" stroke-linecap="round" stroke-linejoin="round"/>
</svg>
