<svg width="40" height="40" viewBox="0 0 40 40" fill="none" xmlns="http://www.w3.org/2000/svg">
<path d="M10.8118 15.2166L8.00871 21.6235H32.0348L30.8335 16.9026L29.8804 16.2337C28.937 15.5717 27.8126 15.2166 26.6601 15.2166H10.8118Z" fill="#ADAEC2"/>
<path d="M10.3713 15.617C9.94071 15.7855 9.56029 16.0611 9.2661 16.4178C8.87926 16.8829 8.60517 17.4311 8.46523 18.0196L7.11977 23.4735" stroke="black" stroke-width="1.60174" stroke-linecap="round" stroke-linejoin="round"/>
<path d="M32.7476 23.4735L31.3781 17.9875C31.2377 17.3992 30.9636 16.8512 30.5773 16.3858C30.3125 16.063 29.9749 15.8077 29.5922 15.641" stroke="black" stroke-width="1.60174" stroke-linecap="round" stroke-linejoin="round"/>
<path d="M6.91153 33.0119H13.3906V35.2944C13.3906 36.6744 12.2719 37.7931 10.8919 37.7931H9.41025C8.7469 37.7952 8.1101 37.5327 7.64103 37.0636C7.17197 36.5945 6.9094 35.9577 6.91153 35.2944V33.0119Z" fill="#6C709C"/>
<path fill-rule="evenodd" clip-rule="evenodd" d="M6.91153 33.0119H13.3906V35.2944C13.3906 36.6744 12.2719 37.7931 10.8919 37.7931H9.41025C8.7469 37.7952 8.1101 37.5327 7.64103 37.0636C7.17197 36.5945 6.9094 35.9577 6.91153 35.2944V33.0119Z" stroke="black" stroke-width="1.60174" stroke-linecap="round" stroke-linejoin="round"/>
<path d="M26.9333 33.0119H33.4123V35.2944C33.4123 36.6744 32.2936 37.7931 30.9136 37.7931H29.432C28.7687 37.7952 28.1319 37.5327 27.6628 37.0636C27.1937 36.5945 26.9312 35.9577 26.9333 35.2944V33.0119Z" fill="#6C709C"/>
<path fill-rule="evenodd" clip-rule="evenodd" d="M26.9333 33.0119H33.4123V35.2944C33.4123 36.6744 32.2936 37.7931 30.9136 37.7931H29.432C28.7687 37.7952 28.1319 37.5327 27.6628 37.0636C27.1937 36.5945 26.9312 35.9577 26.9333 35.2944V33.0119Z" stroke="black" stroke-width="1.60174" stroke-linecap="round" stroke-linejoin="round"/>
<path d="M10.5555 21.5755H29.8885C33.4959 21.5799 36.4192 24.5032 36.4236 28.1106V32.1149C36.4236 32.5907 36.2346 33.047 35.8982 33.3834C35.5618 33.7199 35.1055 33.9089 34.6297 33.9089H5.79833C4.80756 33.9089 4.00438 33.1057 4.00438 32.1149V28.1106C4.00009 26.3733 4.68943 24.7061 5.9194 23.4791C7.14937 22.2522 8.81821 21.5669 10.5555 21.5755Z" fill="#6C709C"/>
<mask id="mask0_11377_17447" style="mask-type:luminance" maskUnits="userSpaceOnUse" x="4" y="21" width="33" height="13">
<path fill-rule="evenodd" clip-rule="evenodd" d="M10.5555 21.5755H29.8885C33.4959 21.5799 36.4192 24.5032 36.4236 28.1106V32.1149C36.4236 32.5907 36.2346 33.047 35.8982 33.3834C35.5618 33.7199 35.1055 33.9089 34.6297 33.9089H5.79833C4.80756 33.9089 4.00438 33.1057 4.00438 32.1149V28.1106C4.00009 26.3733 4.68943 24.7061 5.9194 23.4791C7.14937 22.2522 8.81821 21.5669 10.5555 21.5755Z" fill="white"/>
</mask>
<g mask="url(#mask0_11377_17447)">
<path d="M28.2467 28.4149C28.3076 29.9663 29.5468 31.2125 31.0978 31.282C33.2922 31.282 36.3756 31.3541 38.1375 32.0829C39.2106 32.5314 38.9383 25.8441 37.7771 26.0603C35.831 26.4287 31.1459 26.9493 29.1357 27.1655C28.854 27.2107 28.602 27.3662 28.4351 27.5976C28.2683 27.8291 28.2005 28.1174 28.2467 28.3989V28.4149Z" fill="#ADAEC2"/>
<path d="M37.7771 26.0603C35.831 26.4287 31.1459 26.9493 29.1357 27.1655C28.854 27.2107 28.602 27.3662 28.4351 27.5976C28.2683 27.8291 28.2005 28.1174 28.2467 28.3989C28.3076 29.9503 29.5468 31.1964 31.0978 31.266C33.2922 31.266 36.3756 31.3381 38.1375 32.0669" stroke="black" stroke-width="1.60174" stroke-linecap="round" stroke-linejoin="round"/>
<path d="M11.5326 28.4149C11.466 29.9486 10.2536 31.1852 8.7215 31.282C6.52712 31.282 3.43576 31.3541 1.67384 32.0829C0.600675 32.5314 0.913014 25.8441 2.04224 26.0603C3.91628 26.4287 8.60137 26.9493 10.6436 27.1655C11.2229 27.2715 11.6152 27.8158 11.5326 28.3989V28.4149Z" fill="#ADAEC2"/>
<path fill-rule="evenodd" clip-rule="evenodd" d="M11.5326 28.4149C11.466 29.9486 10.2536 31.1852 8.7215 31.282C6.52712 31.282 3.43576 31.3541 1.67384 32.0829C0.600675 32.5314 0.913014 25.8441 2.04224 26.0603C3.91628 26.4287 8.60137 26.9493 10.6436 27.1655C11.2229 27.2715 11.6152 27.8158 11.5326 28.3989V28.4149Z" stroke="black" stroke-width="1.60174" stroke-linecap="round" stroke-linejoin="round"/>
</g>
<path fill-rule="evenodd" clip-rule="evenodd" d="M10.5555 21.5755H29.8885C33.4959 21.5799 36.4192 24.5032 36.4236 28.1106V32.1149C36.4236 32.5907 36.2346 33.047 35.8982 33.3834C35.5618 33.7199 35.1055 33.9089 34.6297 33.9089H5.79833C4.80756 33.9089 4.00438 33.1057 4.00438 32.1149V28.1106C4.00009 26.3733 4.68943 24.7061 5.9194 23.4791C7.14937 22.2522 8.81821 21.5669 10.5555 21.5755V21.5755Z" stroke="black" stroke-width="1.60174" stroke-linecap="round" stroke-linejoin="round"/>
<path d="M19.5813 29.3038H20.8307" stroke="black" stroke-width="1.60174" stroke-linecap="round" stroke-linejoin="round"/>
<path d="M27.5019 11.06C27.5019 15.2398 24.1135 18.6283 19.9337 18.6283C15.7539 18.6283 12.3655 15.2398 12.3655 11.06C12.3655 11.06 12.1813 8.32105 15.4809 5.87039C19.1328 3.15543 18.2679 1.60175 18.2679 1.60175C20.2476 2.44351 21.46 4.4643 21.2711 6.60719C20.8547 11.1641 25.78 10.5315 24.5307 6.46303C26.4063 7.19734 27.6027 9.04831 27.5019 11.06Z" fill="#9497B2" stroke="black" stroke-width="1.60174" stroke-linecap="round" stroke-linejoin="round"/>
</svg>
