<svg width="40" height="40" viewBox="0 0 40 40" fill="none" xmlns="http://www.w3.org/2000/svg">
<path d="M34.9099 22.1441L35.9511 31.6264C34.6491 31.8608 33.3434 32.0671 32.0348 32.2452C30.777 30.2214 29.9378 28.1646 28.0305 26.6759C26.5433 25.515 24.4266 24.827 24.0261 22.1441C24.0261 17.9233 19.5374 23.7107 22.0239 26.6759C22.5355 27.2858 23.1962 28.0014 24.0261 28.8313C23.5648 29.8653 22.961 31.5495 22.4244 33.0464C16.055 33.2444 9.66996 32.7844 3.37167 31.6664H3.23552L5.83835 7.67235C14.9482 8.98375 24.1991 8.98105 33.3082 7.66434L34.4695 18.2679" fill="#ADAEC2"/>
<path opacity="0.08" d="M35.1742 31.9788L32.0829 32.235L28.3828 26.5569L25.0993 8.42515L29.9045 7.80047L33.172 7.20782L35.871 28.9595C36.1833 31.1218 36.5998 31.6504 35.1742 31.9788Z" fill="black"/>
<path opacity="0.08" d="M14.4797 33.092L10.155 7.85654L12.1012 8.38511L18.6202 8.65741L21.4073 26.3967L24.0982 29.44L22.4644 33.092H14.4797Z" fill="black"/>
<path d="M22.4644 33.0439C16.059 33.2485 9.64963 32.7868 3.33962 31.6664H3.20348L5.83834 7.67235C14.9482 8.98375 24.1991 8.98105 33.3082 7.66434L34.4695 18.2679" stroke="black" stroke-width="1.60174" stroke-linecap="round" stroke-linejoin="round"/>
<path d="M34.9099 22.144L35.9511 31.6264C34.6777 31.8506 33.3963 32.0588 32.1149 32.235" stroke="black" stroke-width="1.60174" stroke-linecap="round" stroke-linejoin="round"/>
<path d="M32.0829 32.235L29.472 28.3268L27.8703 25.6999L24.4986 24.875L23.914 19.6693L20.1579 24.875L24.0662 29.44L22.4644 33.0919" stroke="black" stroke-width="1.60174" stroke-linecap="round" stroke-linejoin="round"/>
<path d="M20.19 24.875L17.9475 26.9493L14.744 26.1484" stroke="black" stroke-width="1.60174" stroke-linecap="round" stroke-linejoin="round"/>
<path d="M29.1277 24.6107L27.8543 25.6999" stroke="black" stroke-width="1.60174" stroke-linecap="round" stroke-linejoin="round"/>
<path d="M23.946 19.6694L22.1681 17.3148L22.072 14.6799" stroke="black" stroke-width="1.60174" stroke-linecap="round" stroke-linejoin="round"/>
</svg>
