<svg width="40" height="40" viewBox="0 0 40 40" fill="none" xmlns="http://www.w3.org/2000/svg">
<path d="M6.18811 25.1563C6.22525 26.7282 6.49829 28.2856 6.99811 29.7763H9.23811C10.5881 29.7763 12.3281 27.6963 12.3281 25.1263C12.3281 22.5563 10.5881 20.4863 9.27811 20.4863H7.10811C6.53713 21.9791 6.22597 23.5586 6.18811 25.1563H6.18811Z" fill="#ECECEC"/>
<path d="M9.85803 29.7463C10.5702 29.6147 11.1923 29.1854 11.568 28.5663" stroke="#333333" stroke-width="1.5" stroke-linecap="round" stroke-linejoin="round"/>
<path d="M31.1781 25.3463C31.2157 26.9214 31.4888 28.482 31.9881 29.9763H34.2281C35.5781 29.9763 36.9881 27.8863 36.9881 25.3163C36.9881 22.7463 35.5781 19.3163 34.2281 19.3163H32.0981C31.5967 21.2917 31.2885 23.3112 31.1781 25.3463Z" fill="#ECECEC"/>
<path d="M35.6681 25.0863C35.6681 21.2063 35.4581 20.4363 34.1081 20.4363H31.6681C31.1037 21.9271 30.796 23.5027 30.7581 25.0963C30.7954 26.6706 31.065 28.2308 31.5581 29.7263H35.4981C36.1481 29.7263 37.1781 28.5863 37.3781 27.2463" stroke="#333333" stroke-width="1.5" stroke-linecap="round" stroke-linejoin="round"/>
<path d="M29.0081 25.0863C29.0081 27.6563 30.0981 29.7463 31.4481 29.7463C32.7981 29.7463 33.8881 27.6563 33.8881 25.0863C33.8881 22.5163 32.7981 19.0863 31.4481 19.0863C30.0981 19.0863 29.0081 22.4863 29.0081 25.0863Z" fill="#ECECEC"/>
<path d="M29.7281 28.7763C30.0247 29.3392 30.5847 29.7151 31.2181 29.7763C32.5581 29.7763 33.6581 27.6863 33.6581 25.1163C33.6581 22.5463 32.5581 19.1163 31.2181 19.1163C29.8781 19.1163 28.7681 22.5863 28.7681 25.1163V25.2263" stroke="#333333" stroke-width="1.5" stroke-linecap="round" stroke-linejoin="round"/>
<path d="M32.2781 24.3563C32.2781 25.0463 32.5481 26.0763 32.8681 26.0763C33.1881 26.0763 33.4581 25.5163 33.4581 24.8263C33.4581 24.1363 33.1981 23.0963 32.8681 23.0963C32.5381 23.0963 32.2781 23.6563 32.2781 24.3563Z" fill="#ECECEC"/>
<path fill-rule="evenodd" clip-rule="evenodd" d="M32.2781 24.3563C32.2781 25.0463 32.5481 26.0763 32.8681 26.0763C33.1881 26.0763 33.4581 25.5163 33.4581 24.8263C33.4581 24.1363 33.1981 23.0963 32.8681 23.0963C32.5381 23.0963 32.2781 23.6563 32.2781 24.3563Z" stroke="#333333" stroke-width="1.5" stroke-linecap="round" stroke-linejoin="round"/>
<path d="M17.368 25.0863C17.4052 26.6582 17.6782 28.2156 18.178 29.7063H20.418C21.768 29.7063 23.328 27.5563 23.328 24.9863C23.328 21.1063 21.768 20.3963 20.418 20.3963H18.278C17.7082 21.896 17.4004 23.4824 17.368 25.0863H17.368Z" fill="#ECECEC"/>
<path d="M23.0281 27.2663C22.8281 28.6063 21.7881 29.7463 21.1381 29.7463H17.2781" stroke="#333333" stroke-width="1.5" stroke-linecap="round" stroke-linejoin="round"/>
<path d="M20.4181 26.6563H7.07807L5.07807 26.4863C3.91515 26.4028 3.58986 25.5057 3.00002 24.5C3.00002 24.5 1.91807 20.2763 3.27807 18.4863C3.71807 16.5763 3.96807 15.2663 4.79807 15.0063C6.79807 14.3963 8.79807 9.27632 14.8581 9.07632C24.6381 8.86632 25.5 9.49997 25.5 9.49997L30.8981 14.3163C30.8981 14.3163 36.2081 16.6763 36.7581 17.5163C37.3081 18.3563 37.8381 19.0863 37.8381 19.0863L38.5981 26.6863H20.8581" fill="white"/>
<path d="M14.0981 10.2463L17.4181 15.3963C18.9259 15.8115 20.3947 16.3569 21.8081 17.0263C32.6181 17.5363 30.5781 17.5363 30.5781 17.5363C30.5781 17.5363 37.2381 17.5363 36.6381 17.0963C36.0381 16.6563 30.5881 14.0963 30.5881 14.0963C30.5881 14.0963 26.7181 9.43633 24.7681 9.26633C22.8181 9.09633 14.7681 9.04633 13.0881 9.20633C12.3381 9.25633 14.3681 10.3363 14.0981 10.2463Z" fill="white"/>
<path opacity="0.05" d="M38.4681 25.2463H22.6281C22.0033 25.251 21.4742 24.7865 21.3981 24.1663C21.1981 22.5763 21.4681 18.4263 19.5681 18.1663C7.10805 17.7863 3.72806 15.9063 3.72806 15.9063C3.72806 15.9063 3.52806 16.9863 2.93806 17.3363C2.34806 17.6863 1.27902 26.8381 5.18806 26.0563C7.83806 25.5263 7.73806 26.6563 7.73806 26.6563H38.5681L38.4681 25.2463Z" fill="#333333"/>
<path d="M16.428 15.3563H17.428C17.428 15.3563 14.818 10.5063 13.858 10.1563C12.898 9.80633 13.218 9.81633 11.098 10.7763C9.37802 11.5563 8.53802 13.3763 8.02802 13.8763C7.97678 13.92 7.94727 13.984 7.94727 14.0513C7.94727 14.1187 7.97678 14.1826 8.02802 14.2263C8.48802 14.6263 13.958 15.1463 13.958 15.1463" fill="white"/>
<path opacity="0.05" d="M14.0481 9.48633L16.6981 14.9363L14.3781 15.0163L12.2781 9.78633C12.8009 9.44509 13.442 9.33643 14.0481 9.48633Z" fill="#333333"/>
<path opacity="0.05" d="M10.868 10.4263L12.658 14.9663L8.77801 15.0463L6.20801 14.0463C6.20801 14.0463 10.048 10.0663 10.868 10.4263Z" fill="#333333"/>
<path d="M36.6181 17.6263C34.8142 17.8542 32.9959 17.9478 31.1781 17.9063C27.3781 17.9063 21.2981 17.2263 21.2981 17.2263C21.2981 17.2263 20.7281 19.8863 22.4081 20.5463C24.0881 21.2063 32.3081 21.4563 37.7481 21.1563" fill="#ECECEC"/>
<path d="M30.8681 14.2863H17.9181L15.0281 9.70632L23.6681 9.65632C26.1506 9.63863 28.4819 10.8473 29.8981 12.8863L30.8681 14.2863Z" fill="white"/>
<path opacity="0.05" d="M15.6381 9.18632L18.6481 9.00632L22.7981 14.3763L18.7681 14.2763L15.6381 9.18632Z" fill="#333333"/>
<ellipse cx="17.2681" cy="25.0863" rx="2.44" ry="4.65" fill="#ECECEC"/>
<path d="M14.8181 25.0863C14.8181 27.6563 15.9181 29.7463 17.2681 29.7463C17.8706 29.6966 18.4114 29.3573 18.7181 28.8363" stroke="#333333" stroke-width="1.5" stroke-linecap="round" stroke-linejoin="round"/>
<ellipse cx="6.03802" cy="25.0863" rx="2.44" ry="4.65" fill="#ECECEC"/>
<ellipse cx="17.2081" cy="25.0763" rx="0.92" ry="2.42" fill="#ECECEC"/>
<ellipse cx="5.9681" cy="25.0363" rx="0.92" ry="2.42" fill="#ECECEC"/>
<path d="M7.71802 21.7063C7.4172 21.0279 6.77623 20.5624 6.03802 20.4863C4.69802 20.4863 3.59802 22.4863 3.59802 25.0863C3.59802 27.6863 4.69802 29.7463 6.03802 29.7463C7.37802 29.7463 8.48802 27.6563 8.48802 25.0863C8.48802 24.9063 8.48802 24.7263 8.48802 24.5563" stroke="#333333" stroke-width="1.5" stroke-linecap="round" stroke-linejoin="round"/>
<path d="M18.938 21.7063C18.6528 21.024 18.0143 20.5548 17.278 20.4863C15.928 20.4863 14.838 22.5663 14.838 25.1363C14.838 27.7063 15.928 29.7963 17.278 29.7963C18.628 29.7963 19.718 27.7063 19.718 25.1363C19.718 24.9563 19.718 24.7763 19.718 24.6063" stroke="#333333" stroke-width="1.5" stroke-linecap="round" stroke-linejoin="round"/>
<path d="M38.3681 26.3663H22.7081C22.6703 26.3675 22.6341 26.3509 22.6105 26.3214C22.5869 26.2918 22.5786 26.2529 22.5881 26.2163L22.8681 24.5663C22.9781 23.9263 23.5181 22.9663 24.1781 22.9163C26.5077 22.7556 28.844 22.7122 31.1781 22.7863C32.6881 22.7863 37.9881 23.0063 37.9881 23.0063" fill="#ECECEC"/>
<path d="M31.0581 14.6863H19.2781C19.0744 14.6841 18.8844 14.5835 18.7681 14.4163L17.0281 11.4863" stroke="#333333" stroke-width="1.5" stroke-linecap="round" stroke-linejoin="round"/>
<path d="M14.2781 11.1863C14.9481 12.5063 15.8581 14.3063 16.0781 14.6663C16.1881 14.8363 16.1381 15.0363 15.9381 15.0363L9.14808 14.8663C8.76835 14.8569 8.39163 14.7963 8.02808 14.6863" stroke="#333333" stroke-width="1.5" stroke-linecap="round" stroke-linejoin="round"/>
<path d="M33.108 15.6263C34.608 16.3263 36.518 17.1963 37.108 18.0563C38.798 20.0063 38.478 25.2463 38.478 25.2463L38.528 26.1663C38.528 26.4163 38.388 26.6563 37.708 26.6563H21.598" stroke="#333333" stroke-width="1.5" stroke-linecap="round" stroke-linejoin="round"/>
<path d="M3.43806 24.2563L3.19806 24.1063C2.44169 23.6133 2.00092 22.7584 2.03806 21.8563C2.05809 20.7775 2.29264 19.7135 2.72806 18.7263C3.07806 17.7263 2.83806 15.5963 4.42806 14.9763C6.27806 14.4063 8.14806 10.4863 12.5581 9.60631C12.9118 9.52234 13.2745 9.48204 13.6381 9.48631C15.5181 9.48631 18.9881 9.33631 22.1781 9.42631C23.7389 9.47449 25.2569 9.94821 26.5681 10.7963C28.1982 11.915 29.6976 13.2131 31.0381 14.6663" stroke="#333333" stroke-width="1.5" stroke-linecap="round" stroke-linejoin="round"/>
<path d="M14.698 26.6563H10.498" stroke="#333333" stroke-width="1.5" stroke-linecap="round" stroke-linejoin="round"/>
<path d="M23.858 17.9063H21.458C21.458 17.9063 21.778 18.7763 21.968 19.2263C22.4812 20.4304 23.6592 21.2157 24.968 21.2263H37.558" stroke="#333333" stroke-width="1.5" stroke-linecap="round" stroke-linejoin="round"/>
<path d="M26.208 17.9063H26.008" stroke="#333333" stroke-width="1.5" stroke-linecap="round" stroke-linejoin="round"/>
<path d="M33.328 17.9063H28.118" stroke="#333333" stroke-width="1.5" stroke-linecap="round" stroke-linejoin="round"/>
<path opacity="0.05" d="M22.898 9.18631L28.248 14.6963L24.508 14.5963L20.098 9.28631L22.898 9.18631Z" fill="#333333"/>
<path d="M9.73811 29.7463H5.80811" stroke="#333333" stroke-width="1.5" stroke-linecap="round" stroke-linejoin="round"/>
</svg>
