<svg width="40" height="40" viewBox="0 0 40 40" fill="none" xmlns="http://www.w3.org/2000/svg">
<path d="M27.5254 28.4309H34.7102C36.2264 28.4309 37.3635 29.818 37.0662 31.3047L36.4626 34.3226C36.2218 35.5266 35.1133 36.3539 33.8866 36.2993C30.4495 36.1465 25.2267 36.211 21.6235 37.2405C17.6475 38.3765 10.2305 37.0786 5.90143 36.0255C4.98524 35.8026 4.31033 35.0405 4.16327 34.1092L3.60204 30.5547C3.38601 29.1865 4.36855 27.9195 5.74746 27.7882L11.0102 27.287C11.4056 27.2493 11.8042 27.3103 12.1703 27.4644L18.4828 30.1223C18.9619 30.324 19.4935 30.3649 19.9978 30.2389L26.9426 28.5027C27.1332 28.455 27.3289 28.4309 27.5254 28.4309Z" fill="white"/>
<path d="M34.4855 22.6932L28.0785 23.9266L28.519 26.169C28.7853 27.5226 30.0953 28.4067 31.4502 28.1472L32.9478 27.8669C34.3014 27.6006 35.1855 26.2906 34.926 24.9357L34.4855 22.6932Z" fill="#ECECEC"/>
<path d="M16.3938 27.122L35.7429 23.3579C36.7159 23.1721 37.354 22.2327 37.1684 21.2597L36.3675 17.3274C36.0364 15.6243 35.0416 14.1228 33.6024 13.1538C32.1632 12.1849 30.3978 11.828 28.6952 12.1618L9.72257 15.8538C8.02179 16.1832 6.52172 17.1752 5.55281 18.6113C4.5839 20.0473 4.22564 21.8097 4.55695 23.5101L5.35782 27.4424" fill="#ECECEC"/>
<mask id="mask0_11377_17450" style="mask-type:luminance" maskUnits="userSpaceOnUse" x="4" y="12" width="34" height="17">
<path fill-rule="evenodd" clip-rule="evenodd" d="M28.7272 12.1618L9.72257 15.8538C8.02179 16.1832 6.52172 17.1752 5.55281 18.6113C4.5839 20.0473 4.22564 21.8097 4.55695 23.5101L5.35782 27.4424C5.45369 27.919 5.74393 28.334 6.15869 28.5876C6.55229 28.8557 7.0373 28.9539 7.50416 28.8599L35.7989 23.3579C36.7719 23.1721 37.4101 22.2327 37.2245 21.2597L36.4236 17.3274C36.0924 15.6243 35.0976 14.1228 33.6584 13.1538C32.2192 12.1849 30.4538 11.828 28.7513 12.1618H28.7272Z" fill="white"/>
</mask>
<g mask="url(#mask0_11377_17450)">
<path d="M12.6618 22.2528C12.8926 23.785 11.9165 25.2404 10.4113 25.6084C8.25698 26.0249 5.24571 26.6896 3.65197 27.7387C2.68292 28.3874 1.67382 21.7642 2.8511 21.7562C4.82925 21.7562 9.49833 21.3718 11.5405 21.1956C12.1331 21.182 12.6278 21.6446 12.6538 22.2367L12.6618 22.2528Z" fill="white"/>
<path fill-rule="evenodd" clip-rule="evenodd" d="M12.6618 21.4519C12.8926 22.9842 11.9165 24.4395 10.4113 24.8075C8.25698 25.224 5.24571 25.8887 3.65197 26.9378C2.68292 27.5866 1.67382 20.9634 2.8511 20.9553C4.82925 20.9553 9.49833 20.5709 11.5405 20.3947C12.1331 20.3811 12.6278 20.8437 12.6538 21.4359L12.6618 21.4519Z" stroke="#333333" stroke-width="1.60174" stroke-linecap="round" stroke-linejoin="round"/>
</g>
<mask id="mask1_11377_17450" style="mask-type:luminance" maskUnits="userSpaceOnUse" x="4" y="11" width="34" height="18">
<path fill-rule="evenodd" clip-rule="evenodd" d="M10.0349 15.7977L29.0155 12.0977C32.5575 11.4121 35.9861 13.7229 36.6799 17.2633L37.4807 21.1956C37.5723 21.6619 37.4742 22.1456 37.2081 22.5394C36.9421 22.9332 36.53 23.2047 36.0632 23.2939L7.7284 28.8199C6.75611 29.0062 5.81562 28.3732 5.62211 27.4023L4.82124 23.4701C4.48761 21.7663 4.8456 19.9999 5.81622 18.5605C6.78684 17.1211 8.2903 16.127 9.99486 15.7977H10.0349Z" fill="white"/>
</mask>
<g mask="url(#mask1_11377_17450)">
<path d="M28.7112 19.1293C29.0721 20.6375 30.5245 21.6208 32.0589 21.3958C34.2132 20.9713 37.2565 20.4588 39.1225 20.8352C40.2598 21.0674 38.7141 14.5564 37.6169 14.9888C35.7749 15.7417 31.306 17.1272 29.3439 17.7278C28.7883 17.9375 28.5058 18.5561 28.7112 19.1133V19.1293Z" fill="white"/>
<path fill-rule="evenodd" clip-rule="evenodd" d="M28.4149 18.3845C28.7722 19.8915 30.2221 20.8755 31.7545 20.651C33.9089 20.2345 36.9522 19.714 38.8182 20.0904C39.9634 20.3226 38.4098 13.8116 37.3126 14.252C35.4786 14.9969 31.0097 16.3824 29.0476 16.991C28.493 17.1975 28.2075 17.8114 28.4069 18.3685L28.4149 18.3845Z" stroke="#333333" stroke-width="1.60174" stroke-linecap="round" stroke-linejoin="round"/>
</g>
<path d="M16.3938 27.122L35.7429 23.3579C36.7159 23.1721 37.354 22.2327 37.1684 21.2597L36.3675 17.3274C36.0364 15.6243 35.0416 14.1228 33.6024 13.1538C32.1632 12.1849 30.3978 11.828 28.6952 12.1618V12.1618L9.72257 15.8538C8.02179 16.1832 6.52172 17.1752 5.55281 18.6113C4.5839 20.0473 4.22564 21.8097 4.55695 23.5101L5.35782 27.4424" stroke="#333333" stroke-width="1.60174" stroke-linecap="round" stroke-linejoin="round"/>
<path d="M21.167 21.5159L20.278 21.6681" stroke="#333333" stroke-width="1.60174" stroke-linecap="round" stroke-linejoin="round"/>
<path fill-rule="evenodd" clip-rule="evenodd" d="M7.56022 10.3358C7.54827 10.1598 7.54827 9.98321 7.56022 9.80723V9.63103C7.57381 9.51757 7.59522 9.40518 7.62429 9.29467C7.62054 9.27887 7.62054 9.26241 7.62429 9.24662C7.73087 8.7688 7.91482 8.31162 8.16888 7.89314C8.474 7.40572 8.97186 7.0709 9.53837 6.97214L25.6199 4.03295C26.1838 3.93928 26.7616 4.07796 27.2216 4.41737C27.621 4.7177 27.9698 5.08 28.2547 5.49053C28.3188 5.57863 28.3909 5.68274 28.4469 5.77885C28.481 5.82672 28.5104 5.87766 28.535 5.93101C28.6247 6.08898 28.7049 6.25211 28.7753 6.41954L30.6253 11.5691L7.85654 16.038L7.56022 10.3358Z" fill="white" stroke="#333333" stroke-width="1.60174" stroke-linecap="round" stroke-linejoin="round"/>
<path d="M35.3504 26.4012C35.3893 26.2305 35.4081 26.0558 35.4065 25.8807V23.5822L28.9995 24.7835L28.9435 25.8807C28.9439 26.2157 29.0091 26.5475 29.1357 26.8577" stroke="#333333" stroke-width="1.60174" stroke-linecap="round" stroke-linejoin="round"/>
<path d="M29.1197 26.8578C29.5118 27.7843 30.42 28.3866 31.4262 28.3874H32.9478C34.1128 28.3711 35.1108 27.5494 35.3504 26.4093" stroke="#333333" stroke-width="1.60174" stroke-linecap="round" stroke-linejoin="round"/>
<path d="M3.20348 27.995L11.8449 27.3062L18.9005 30.4136L25.4837 28.5956L37.2004 28.4034" stroke="#333333" stroke-width="1.60174" stroke-linecap="round" stroke-linejoin="round"/>
<path d="M21.167 29.9091L22.2242 32.592L20.7025 33.2247L19.309 36.0197" stroke="#333333" stroke-width="1.60174" stroke-linecap="round" stroke-linejoin="round"/>
<path d="M28.1426 35.0667C27.8943 34.7704 27.0454 33.553 27.0454 33.553L27.7502 31.2946L27.2696 28.5956" stroke="#333333" stroke-width="1.60174" stroke-linecap="round" stroke-linejoin="round"/>
<path d="M7.77646 27.7867L8.74551 30.1013L8.22495 31.703" stroke="#333333" stroke-width="1.60174" stroke-linecap="round" stroke-linejoin="round"/>
</svg>
