<svg width="40" height="40" viewBox="0 0 40 40" fill="none" xmlns="http://www.w3.org/2000/svg">
<path d="M10.8117 16.0174L8.0087 22.4244H32.0348L30.8335 17.7035L29.8804 17.0346C28.937 16.3726 27.8126 16.0174 26.6601 16.0174H10.8117Z" fill="white"/>
<path d="M11.5245 15.9614C10.6577 15.9467 9.82959 16.3196 9.26609 16.9785C8.87925 17.4435 8.60515 17.9917 8.46522 18.5802L7.11975 24.0421" stroke="#333333" stroke-width="1.60174" stroke-linecap="round" stroke-linejoin="round"/>
<path d="M32.7476 24.0421L31.3781 18.5562C31.2376 17.9678 30.9636 17.4198 30.5773 16.9544C30.0155 16.2978 29.1908 15.925 28.3268 15.9373H27.5259" stroke="#333333" stroke-width="1.60174" stroke-linecap="round" stroke-linejoin="round"/>
<path d="M6.91153 33.5805H13.3906V35.863C13.3906 37.243 12.2719 38.3617 10.8919 38.3617H9.41025C8.7469 38.3638 8.1101 38.1013 7.64103 37.6322C7.17197 37.1631 6.9094 36.5263 6.91153 35.863V33.5805Z" fill="#ECECEC"/>
<path fill-rule="evenodd" clip-rule="evenodd" d="M6.91153 33.5805H13.3906V35.863C13.3906 37.243 12.2719 38.3617 10.8919 38.3617H9.41025C8.7469 38.3638 8.11009 38.1013 7.64103 37.6322C7.17197 37.1631 6.9094 36.5263 6.91153 35.863V33.5805Z" stroke="#333333" stroke-width="1.60174" stroke-linecap="round" stroke-linejoin="round"/>
<path d="M26.9333 33.5805H33.4123V35.863C33.4123 37.243 32.2936 38.3617 30.9136 38.3617H29.432C28.7687 38.3638 28.1319 38.1013 27.6628 37.6322C27.1937 37.1631 26.9312 36.5263 26.9333 35.863V33.5805Z" fill="#ECECEC"/>
<path fill-rule="evenodd" clip-rule="evenodd" d="M26.9333 33.5805H33.4123V35.863C33.4123 37.243 32.2936 38.3617 30.9136 38.3617H29.432C28.7687 38.3638 28.1319 38.1013 27.6628 37.6322C27.1937 37.1631 26.9312 36.5263 26.9333 35.863V33.5805Z" stroke="#333333" stroke-width="1.60174" stroke-linecap="round" stroke-linejoin="round"/>
<path d="M10.5555 22.1441H29.8885C33.4959 22.1485 36.4192 25.0718 36.4236 28.6792V32.6835C36.4236 33.1593 36.2346 33.6156 35.8982 33.952C35.5617 34.2885 35.1054 34.4775 34.6297 34.4775H5.79832C4.80755 34.4775 4.00437 33.6743 4.00437 32.6835V28.6792C4.00008 26.9419 4.68942 25.2747 5.91939 24.0477C7.14936 22.8208 8.8182 22.1355 10.5555 22.1441Z" fill="#ECECEC"/>
<mask id="mask0_11377_17452" style="mask-type:luminance" maskUnits="userSpaceOnUse" x="4" y="22" width="33" height="13">
<path fill-rule="evenodd" clip-rule="evenodd" d="M10.5555 22.1441H29.8885C33.4959 22.1485 36.4192 25.0718 36.4236 28.6792V32.6835C36.4236 33.1593 36.2346 33.6156 35.8982 33.952C35.5617 34.2885 35.1054 34.4775 34.6297 34.4775H5.79832C4.80755 34.4775 4.00437 33.6743 4.00437 32.6835V28.6792C4.00008 26.9419 4.68942 25.2747 5.91939 24.0477C7.14936 22.8208 8.8182 22.1355 10.5555 22.1441Z" fill="white"/>
</mask>
<g mask="url(#mask0_11377_17452)">
<path d="M28.2467 28.9835C28.3076 30.5349 29.5468 31.7811 31.0978 31.8506C33.2922 31.8506 36.3756 31.9227 38.1375 32.6515C39.2106 33.1 38.9383 26.4127 37.7771 26.6289C35.831 26.9973 31.1459 27.5179 29.1357 27.7341C28.854 27.7793 28.6019 27.9348 28.4351 28.1663C28.2683 28.3977 28.2005 28.686 28.2467 28.9675V28.9835Z" fill="white"/>
<path d="M37.7771 26.6289C35.831 26.9973 31.1459 27.5179 29.1357 27.7341C28.854 27.7793 28.6019 27.9348 28.4351 28.1662C28.2683 28.3977 28.2005 28.686 28.2467 28.9675C28.3076 30.5189 29.5468 31.765 31.0978 31.8346C33.2922 31.8346 36.3756 31.9067 38.1375 32.6355" stroke="#333333" stroke-width="1.60174" stroke-linecap="round" stroke-linejoin="round"/>
<path d="M11.5326 28.9835C11.466 30.5172 10.2536 31.7538 8.7215 31.8506C6.52711 31.8506 3.43575 31.9227 1.67383 32.6515C0.600668 33.1 0.913007 26.4127 2.04224 26.6289C3.91627 26.9973 8.60137 27.5179 10.6436 27.7341C11.2229 27.8401 11.6152 28.3844 11.5326 28.9675V28.9835Z" fill="white"/>
<path fill-rule="evenodd" clip-rule="evenodd" d="M11.5326 28.9835C11.466 30.5172 10.2536 31.7538 8.7215 31.8506C6.52711 31.8506 3.43575 31.9227 1.67383 32.6515C0.600668 33.1 0.913007 26.4127 2.04223 26.6289C3.91627 26.9973 8.60137 27.5179 10.6436 27.7341C11.2229 27.8401 11.6152 28.3844 11.5326 28.9675V28.9835Z" stroke="#333333" stroke-width="1.60174" stroke-linecap="round" stroke-linejoin="round"/>
</g>
<path d="M24.2744 22.1441H29.8805C33.4879 22.1485 36.4112 25.0718 36.4156 28.6792V32.6835C36.4156 33.1593 36.2266 33.6156 35.8902 33.952C35.5537 34.2885 35.0974 34.4775 34.6217 34.4775H5.79031C4.80267 34.4731 4.00436 33.6712 4.00437 32.6835V28.6792C4.00008 26.9419 4.68942 25.2747 5.91939 24.0477C7.14936 22.8208 8.8182 22.1355 10.5555 22.1441H20.8307" stroke="#333333" stroke-width="1.60174" stroke-linecap="round" stroke-linejoin="round"/>
<path d="M23.5937 17.9315C21.9919 21.5114 20.3021 25.2915 20.19 25.3396C20.0778 25.3876 18.6283 15.7291 18.6283 15.7291L13.5027 16.4098L20.5584 2.40262L21.151 12.3334L26.3406 11.6286C26.3406 11.6286 25.3876 13.807 24.2264 16.4339L23.5937 17.9315Z" fill="#F7F7F7" stroke="#333333" stroke-width="1.60174" stroke-linecap="round" stroke-linejoin="round"/>
<path d="M19.5813 29.8725H20.8307" stroke="#333333" stroke-width="1.60174" stroke-linecap="round" stroke-linejoin="round"/>
</svg>
