<svg width="40" height="40" viewBox="0 0 40 40" fill="none" xmlns="http://www.w3.org/2000/svg">
<path d="M30.8723 26.25C30.9132 27.842 31.2034 29.4178 31.7323 30.92H34.5923C36.0323 30.92 37.5423 28.81 37.5423 26.22C37.5423 23.63 35.5423 20.38 34.1223 20.38C34.0323 20.38 31.8423 21.3 31.8423 21.3C31.2526 22.8865 30.925 24.5583 30.8723 26.25H30.8723Z" fill="#6C709C"/>
<path d="M33.4123 21.33C34.8523 21.33 37.4123 23.65 37.4123 26.25C37.4123 28.85 36.2423 30.95 34.8023 30.95H30.9023" stroke="black" stroke-width="1.5" stroke-linecap="round" stroke-linejoin="round"/>
<path d="M28.8325 26.25C28.8325 28.84 29.5725 30.95 31.0125 30.95C32.4525 30.95 33.6225 28.84 33.6225 26.25C33.6225 23.66 32.4525 21.33 31.0125 21.33C29.5725 21.33 28.8325 23.65 28.8325 26.25Z" fill="#6C709C"/>
<path d="M29.4425 23.24C29.0264 24.1847 28.8184 25.2078 28.8325 26.24C28.8325 28.83 29.5725 30.94 31.0125 30.94C31.795 30.8638 32.4774 30.3759 32.8025 29.66" stroke="black" stroke-width="1.5" stroke-linecap="round" stroke-linejoin="round"/>
<path d="M33.5724 25.35C33.3424 23.18 32.2824 21.35 31.0124 21.35C30.8346 21.3533 30.6587 21.3871 30.4924 21.45" stroke="black" stroke-width="1.5" stroke-linecap="round" stroke-linejoin="round"/>
<path d="M16.6724 26.25C16.7133 27.842 17.0035 29.4178 17.5324 30.92H20.3924C21.8324 30.92 23.3424 28.81 23.3424 26.22C23.3424 23.63 21.3424 20.38 19.9224 20.38C19.8324 20.38 17.6524 21.51 17.6524 21.51C17.0426 23.018 16.7106 24.6238 16.6724 26.25V26.25Z" fill="#6C709C"/>
<path d="M22.4824 29.61C22.1638 30.3538 21.4673 30.8666 20.6624 30.95H16.7524" stroke="black" stroke-width="1.5" stroke-linecap="round" stroke-linejoin="round"/>
<path d="M5.41235 26.25C5.45325 27.842 5.74344 29.4178 6.27235 30.92H9.13235C10.5724 30.92 12.0824 28.81 12.0824 26.22C12.0824 23.63 10.0824 20.59 8.66235 20.59C8.57235 20.59 6.38235 21.51 6.38235 21.51C5.77852 23.0194 5.45 24.6247 5.41235 26.25H5.41235Z" fill="#6C709C"/>
<path d="M7.99242 21.55C9.43242 21.55 11.9924 23.65 11.9924 26.25C11.9924 28.85 10.8224 30.95 9.38242 30.95H5.48242" stroke="black" stroke-width="1.5" stroke-linecap="round" stroke-linejoin="round"/>
<path d="M38.1424 27.88C38.1424 27.88 38.5524 21.62 37.7224 20.02C36.2824 17.22 33.5224 16.39 30.4324 16.02C29.4194 15.938 28.4156 15.7673 27.4324 15.51C25.7969 13.9486 24.0669 12.4892 22.2524 11.14C20.6024 10.28 19.1924 10.54 13.0524 10.88C9.7422 12.7035 6.53408 14.7064 3.44243 16.88C2.51243 17.35 1.44243 23 2.58243 25.16C3.72243 27.32 3.14243 27.95 3.14243 27.95C3.14243 27.95 38.3724 27.93 38.1424 27.88Z" fill="#9497B2"/>
<path d="M12.8176 10.9301C13.6776 10.9301 13.7901 10.43 15.5001 10.5C22.2201 10.76 22.2225 11.18 22.2225 11.18L26.7625 15.3L28.7625 15.81C28.7625 15.81 33.7625 15.48 36.0425 17.73C36.7025 18.37 37.8025 18.1 36.4825 19.1C36.4825 19.1 36.0325 19.75 35.4825 19.4C34.9624 19.2193 34.4047 19.1745 33.8625 19.27H26.6725C26.0025 19.27 23.9425 17.83 20.3725 18C15.4425 17.88 14.9025 12.81 14.9025 12.81" fill="#ADAEC2"/>
<path opacity="0.05" d="M18.7924 22.47C19.8924 23.7 31.3324 23.16 35.7124 23.17C36.4844 23.1792 37.1928 22.7433 37.5324 22.05C37.7869 21.3113 37.7869 20.5087 37.5324 19.77C36.3124 19.62 37.8324 21.01 37.8324 21.01C37.8324 21.01 37.6424 21.25 38.1724 22.33C38.3109 22.9634 38.3647 23.6124 38.3324 24.26C38.1698 25.4326 38.1062 26.6167 38.1424 27.8H28.0224L13.0824 28.13L2.71242 28.08C2.71242 28.08 3.07242 28.39 2.55242 25.3C2.21242 23.32 2.14242 22.47 3.14242 20.55C3.66817 19.4625 4.73721 18.7409 5.94242 18.66C7.40242 18.61 16.4624 19.31 17.3224 20.42L18.7924 22.47Z" fill="black"/>
<path d="M35.3023 24.61L25.8323 24.42L25.6223 25.24L25.9123 27.92H34.8223L35.3023 24.61Z" fill="#6C709C"/>
<ellipse cx="16.8224" cy="26.25" rx="2.61" ry="4.7" fill="#6C709C"/>
<path d="M14.8124 23.24C14.4048 24.187 14.2004 25.209 14.2124 26.24C14.2124 28.83 15.3824 30.94 16.8224 30.94C18.2624 30.94 19.4324 28.83 19.4324 26.24C19.4313 25.9393 19.4146 25.6389 19.3824 25.34" stroke="black" stroke-width="1.5" stroke-linecap="round" stroke-linejoin="round"/>
<path d="M19.4024 25.57C19.1424 23.47 18.1424 21.93 16.9924 21.93C16.8217 21.9299 16.6524 21.9604 16.4924 22.02" stroke="black" stroke-width="1.5" stroke-linecap="round" stroke-linejoin="round"/>
<ellipse cx="5.55238" cy="26.25" rx="2.61" ry="4.7" fill="#6C709C"/>
<path d="M7.56247 23.24C7.97011 24.187 8.17452 25.209 8.16247 26.24C8.16247 28.83 6.99247 30.94 5.55247 30.94C4.11247 30.94 2.95247 28.83 2.95247 26.24C2.93707 25.9402 2.93707 25.6398 2.95247 25.34" stroke="black" stroke-width="1.5" stroke-linecap="round" stroke-linejoin="round"/>
<path d="M2.99243 25.47C3.23243 23.26 4.28243 21.6 5.55243 21.6C5.73291 21.5999 5.91211 21.6303 6.08243 21.69" stroke="black" stroke-width="1.5" stroke-linecap="round" stroke-linejoin="round"/>
<path opacity="0.05" d="M13.5025 15.22L16.6125 14.94L12.4225 10.32L11.5125 10.94C10.8525 10.94 10.5125 10.94 10.7025 11.6H11.3725L13.5025 15.22Z" fill="black"/>
<path opacity="0.05" d="M19.7525 14.78H26.3125L20.9625 10.43L15.5625 10.21L19.7525 14.78Z" fill="black"/>
<path d="M25.6524 21.27C24.3059 21.5139 22.9219 21.4524 21.6024 21.09C20.8386 20.8484 20.1794 20.3548 19.7324 19.69L19.4624 18.75C19.4624 18.75 24.1024 18.75 25.8624 19.46C26.1164 19.554 26.3581 19.6783 26.5824 19.83C27.0724 20.11 26.1924 21.2 25.6524 21.27Z" fill="#5A5E8C"/>
<path d="M19.9924 18.94C19.6607 19.3175 19.6607 19.8825 19.9924 20.26C20.369 20.8148 20.9461 21.202 21.6024 21.34C22.6505 21.4846 23.7155 21.4507 24.7524 21.24C25.4417 20.8894 25.9241 20.2327 26.0524 19.47C26.0524 19.47 23.8424 18.99 22.1624 18.77" fill="#6C709C"/>
<path d="M19.9924 18.94C19.6607 19.3175 19.6607 19.8825 19.9924 20.26C20.369 20.8148 20.9461 21.202 21.6024 21.34C22.6505 21.4846 23.7155 21.4507 24.7524 21.24C25.4417 20.8894 25.9241 20.2327 26.0524 19.47C26.0524 19.47 23.8424 18.99 22.1624 18.77" stroke="black" stroke-width="1.5" stroke-linecap="round" stroke-linejoin="round"/>
<path d="M36.4223 19.26C36.4223 19.26 36.1923 18.02 35.1823 18.39C34.5999 18.607 34.0292 18.854 33.4723 19.13C33.4723 19.13 33.3523 21.03 34.7423 20.95C35.5572 20.8763 36.3618 20.7153 37.1423 20.47L36.4223 19.26Z" fill="#6C709C"/>
<path d="M33.6924 19.6L34.5124 20.49C34.7692 20.7773 35.128 20.9531 35.5124 20.98C36.2924 20.98 37.4024 21.04 37.4224 20.98" stroke="black" stroke-width="1.5" stroke-linecap="round" stroke-linejoin="round"/>
<path d="M9.49989 12.5L8.84232 16.11C8.84232 16.11 6.26989 16.5 5.80989 16.23C5.34989 15.96 7.15989 14.75 7.21989 14.37C7.45989 13.5 9.49989 12.5 9.49989 12.5Z" fill="#ADAEC2"/>
<path d="M11.6823 12.45L13.1123 16.23L8.38232 16.32" stroke="black" stroke-width="1.5" stroke-linecap="round" stroke-linejoin="round"/>
<path d="M9.94238 27.98L14.2324 27.94" stroke="black" stroke-width="1.5" stroke-linecap="round" stroke-linejoin="round"/>
<path d="M15.1424 12.91L16.1424 15C16.3282 15.3742 16.7269 15.5935 17.1424 15.55C20.6895 15.1685 24.2631 15.0982 27.8224 15.34L26.1424 13.87C24.1342 12.0569 21.5957 10.9384 18.9024 10.68C10.3824 10.08 8.08243 14.85 5.14243 16.06C2.08243 17.47 1.89243 22.47 2.03243 24.3C2.08667 24.8459 2.38427 25.3382 2.84243 25.64" stroke="black" stroke-width="1.5" stroke-linecap="round" stroke-linejoin="round"/>
<path d="M30.0625 16.05C32.6325 16.64 36.1925 17.24 37.4325 19.54C38.1425 20.84 38.2825 23.94 38.2025 24.92C38.1525 25.44 38.2025 27.05 38.1525 27.38C38.1091 27.6223 37.8987 27.799 37.6525 27.8C35.5425 27.8 32.4425 27.89 21.3125 27.93" stroke="black" stroke-width="1.5" stroke-linecap="round" stroke-linejoin="round"/>
<path d="M30.4523 20.36H30.0823H30.4523Z" fill="#6C709C"/>
<path d="M30.4523 20.36H30.0823" stroke="black" stroke-width="1.5" stroke-linecap="round" stroke-linejoin="round"/>
<path d="M32.7623 24.47H25.8323C25.6722 24.4695 25.5204 24.5415 25.4194 24.6658C25.3185 24.7901 25.2791 24.9534 25.3123 25.11L25.5323 26.11" fill="#5A5E8C"/>
<path d="M32.7623 24.47H25.8323C25.6722 24.4695 25.5204 24.5415 25.4194 24.6658C25.3185 24.7901 25.2791 24.9534 25.3123 25.11L25.5323 26.11" stroke="black" stroke-width="1.5" stroke-linecap="round" stroke-linejoin="round"/>
<ellipse cx="16.7625" cy="26.27" rx="0.92" ry="1.98" fill="#6C709C"/>
<ellipse cx="5.47249" cy="26.24" rx="0.92" ry="1.98" fill="#6C709C"/>
</svg>
