<svg width="40" height="40" viewBox="0 0 40 40" fill="none" xmlns="http://www.w3.org/2000/svg">
<path d="M30.5227 25.7204C30.5619 27.284 30.8418 28.8321 31.3527 30.3104H34.4627C35.8527 30.3104 37.3127 28.2404 37.3127 25.6904C37.3127 23.1404 35.0527 21.0904 33.6627 21.0904H31.4527C30.8755 22.5678 30.5607 24.1347 30.5227 25.7204Z" fill="#ECECEC"/>
<path fill-rule="evenodd" clip-rule="evenodd" d="M30.5227 25.7204C30.5619 27.2839 30.8418 28.8321 31.3527 30.3104H34.7627C36.1527 30.3104 37.2827 28.2404 37.2827 25.6904C37.2827 20.9904 32.2827 21.0604 34.3627 21.0604H31.4527C30.872 22.5472 30.5572 24.1246 30.5227 25.7204H30.5227Z" stroke="#333333" stroke-width="1.5" stroke-linecap="round" stroke-linejoin="round"/>
<ellipse cx="31.5627" cy="25.2404" rx="2.52" ry="4.63" fill="#ECECEC"/>
<path d="M29.6028 22.8204C29.2199 23.7386 29.0293 24.7256 29.0428 25.7204C29.0428 28.2704 30.1728 30.3404 31.5628 30.3404C32.035 30.3242 32.4799 30.1145 32.7928 29.7604" stroke="#333333" stroke-width="1.5" stroke-linecap="round" stroke-linejoin="round"/>
<path d="M4.87268 25.7204C4.91251 27.2847 5.19591 28.8333 5.71268 30.3104H8.82268C10.2127 30.3104 11.0127 28.2404 11.0127 25.6904C11.0127 23.1404 9.45268 21.0904 8.02268 21.0904H5.82268C5.23621 22.5659 4.91461 24.1332 4.87268 25.7204Z" fill="#ECECEC"/>
<path d="M11.0027 25.7204C11.0027 21.0204 10.1227 21.0904 8.7327 21.0904H5.8327C5.2509 22.5703 4.93276 24.1407 4.8927 25.7304C4.93188 27.2939 5.21184 28.8421 5.7227 30.3204H9.1327C9.94997 30.2299 10.6503 29.695 10.9527 28.9304" stroke="#333333" stroke-width="1.5" stroke-linecap="round" stroke-linejoin="round"/>
<path d="M15.9628 25.7204C16.002 27.284 16.2819 28.8321 16.7928 30.3104H19.9128C21.3028 30.3104 22.7528 28.2404 22.7528 25.6904C22.7528 23.1404 20.5028 21.0604 19.1128 21.0604H16.9128C16.3228 22.5453 16.0012 24.1231 15.9628 25.7204H15.9628Z" fill="#ECECEC"/>
<path fill-rule="evenodd" clip-rule="evenodd" d="M15.9628 25.7204C16.002 27.2839 16.2819 28.8321 16.7928 30.3104H20.2128C21.6028 30.3104 22.7328 28.2404 22.7328 25.6904C22.7328 20.9904 17.7328 21.0604 19.8128 21.0604H16.9128C16.3228 22.5453 16.0012 24.1231 15.9628 25.7204H15.9628Z" stroke="#333333" stroke-width="1.5" stroke-linecap="round" stroke-linejoin="round"/>
<path d="M30.0227 15.7104C30.2463 15.7135 30.4683 15.7471 30.6827 15.8104C31.2127 15.9604 32.6027 16.3304 35.9327 17.0204C36.6527 17.1704 38.4827 20.1104 38.5527 20.4704C38.5527 20.5904 38.6127 23.0904 38.6127 23.0904C38.7418 23.8449 38.8286 24.6061 38.8727 25.3704C38.6231 25.8716 38.3356 26.353 38.0127 26.8104C37.6614 27.3402 37.0684 27.6592 36.4327 27.6604L20.4327 27.5104H7.60272L3.60272 26.9504V26.4104C3.30091 26.1049 3.05396 25.7497 2.87272 25.3604C2.50045 23.2081 2.403 21.0172 2.58272 18.8404C2.82285 18.2015 3.11378 17.5828 3.45272 16.9904C3.66272 16.6804 5.36272 15.6104 5.69272 15.1504C6.02272 14.6904 6.48272 13.4304 6.81272 12.7904C7.04593 12.3346 7.43688 11.9792 7.91272 11.7904C10.2869 10.722 12.8501 10.1373 15.4527 10.0704C18.5382 9.91177 21.6314 10.1334 24.6627 10.7304C26.2327 11.0804 29.6027 15.1004 29.6027 15.1004" fill="#F7F7F7"/>
<path opacity="0.05" d="M15.5727 16.4404C15.6527 16.9104 15.5727 16.6804 15.1427 16.6904L6.85273 17.6904C6.44273 17.6904 5.77273 17.9504 5.77273 18.3604V18.6304C5.77413 18.8622 5.72284 19.0913 5.62273 19.3004C5.05835 20.6097 4.84467 22.0434 5.00273 23.4604C5.14273 25.0804 3.33273 26.6204 3.33273 26.6204C2.46469 26.3637 1.90745 25.5194 2.01273 24.6204C2.01273 22.9604 3.45273 18.0704 3.45273 18.0704V16.9904L5.06273 15.3304L6.06273 13.3304L6.75273 12.1004L10.1027 10.7504L13.1027 10.3604L15.5727 16.4404Z" fill="#333333"/>
<path d="M5.52277 13.5404C4.17277 15.2004 4.84277 15.4204 4.84277 15.4204C7.1246 15.9354 9.44649 16.2532 11.7828 16.3704L15.5728 16.4404L13.1028 10.3604L9.30277 11.0604L6.91277 11.9804L5.52277 13.5404Z" fill="white"/>
<path opacity="0.05" d="M12.3227 16.4004L15.2827 16.3904L13.1027 10.3604L10.8927 10.6604L12.3227 16.4004Z" fill="#333333"/>
<path opacity="0.05" d="M6.85278 16.3604L10.4028 16.1604L9.68278 11.1104L7.01278 12.3904L6.85278 16.3604Z" fill="#333333"/>
<path opacity="0.05" d="M38.4528 25.1904C38.0305 25.1425 37.6577 24.8927 37.4528 24.5204C37.1305 24.0314 36.5883 23.7323 36.0028 23.7204C33.2128 23.7204 27.5028 23.7204 27.5028 23.7204H27.1528C26.8461 23.7253 26.5423 23.7793 26.2528 23.8804C25.9428 23.9804 26.2528 24.0204 24.7828 24.0204C23.6963 24.1281 22.7542 24.8175 22.3228 25.8204C22.2328 25.9804 19.4328 25.9104 19.3228 26.0704C19.0528 26.7904 21.7228 27.6204 21.7228 27.6204L36.9228 27.5404C36.9228 27.5404 38.6728 25.9804 38.4528 25.1904Z" fill="#333333"/>
<path d="M38.1727 19.1904C38.1727 19.1904 37.5527 19.1904 36.4527 19.0904C32.8115 18.5433 29.1163 18.4526 25.4527 18.8204C24.1727 18.8204 22.9727 19.0204 21.3127 19.1204C20.8627 19.1204 21.2227 18.9504 21.2227 18.9504C21.2227 18.9504 20.8427 17.7904 18.6527 16.6704C18.4827 16.5804 18.2927 16.5304 18.2227 16.3604C17.5081 14.4638 16.6902 12.6076 15.7727 10.8004C15.6027 10.5504 24.4227 10.5904 24.4227 10.5904L30.7427 15.8104L36.1727 17.1904L38.1727 19.1904Z" fill="white"/>
<path d="M35.8727 19.4204C35.8627 19.8515 35.927 20.2811 36.0627 20.6904H38.1727" stroke="#333333" stroke-width="1.5" stroke-linecap="round" stroke-linejoin="round"/>
<path d="M16.4527 11.9704C16.4527 11.9704 17.9727 14.8104 18.2727 15.4504C18.3448 15.6114 18.5062 15.7138 18.6827 15.7104H30.3127C30.3127 15.7104 25.9727 10.9604 24.3927 10.6104C21.2848 10.0314 18.1143 9.86332 14.9627 10.1104C12.3731 10.1868 9.82274 10.7641 7.45268 11.8104C6.79117 12.0793 6.27991 12.6234 6.05268 13.3004C5.50175 14.1411 4.86864 14.9249 4.16268 15.6404C3.53724 16.655 3.04011 17.7433 2.68268 18.8804C2.31268 20.0804 1.68268 24.7604 4.24268 24.9904" stroke="#333333" stroke-width="1.5" stroke-linecap="round" stroke-linejoin="round"/>
<path d="M10.6127 27.1904L14.3027 27.1604" stroke="#333333" stroke-width="1.5" stroke-linecap="round" stroke-linejoin="round"/>
<ellipse cx="17.0127" cy="25.2404" rx="2.52" ry="4.63" fill="#ECECEC"/>
<path d="M15.0427 22.8204C14.6633 23.7393 14.4761 24.7263 14.4927 25.7204C14.4927 28.2704 15.6227 30.3404 17.0127 30.3404C17.4839 30.3196 17.927 30.1107 18.2427 29.7604" stroke="#333333" stroke-width="1.5" stroke-linecap="round" stroke-linejoin="round"/>
<path d="M18.4527 21.9404C18.1323 21.4424 17.5938 21.1267 17.0027 21.0904C16.7082 21.0947 16.4207 21.1813 16.1727 21.3404" stroke="#333333" stroke-width="1.5" stroke-linecap="round" stroke-linejoin="round"/>
<path d="M19.2327 23.5504C19.212 23.4555 19.1853 23.3619 19.1527 23.2704" stroke="#333333" stroke-width="1.5" stroke-linecap="round" stroke-linejoin="round"/>
<ellipse cx="17.0128" cy="25.7204" rx="0.92" ry="2.21" fill="#ECECEC"/>
<ellipse cx="5.92271" cy="25.7204" rx="2.52" ry="4.63" fill="#ECECEC"/>
<path d="M3.89274 22.9704C3.57476 23.8513 3.42549 24.7842 3.45274 25.7204C3.45274 28.2704 4.58274 30.3404 5.97274 30.3404C7.36274 30.3404 8.45274 28.2704 8.45274 25.7204C8.46823 25.4239 8.46823 25.1269 8.45274 24.8304" stroke="#333333" stroke-width="1.5" stroke-linecap="round" stroke-linejoin="round"/>
<path d="M8.39273 24.8304C8.17273 22.7004 7.15273 21.0904 5.92273 21.0904C5.6584 21.0917 5.3993 21.1642 5.17273 21.3004" stroke="#333333" stroke-width="1.5" stroke-linecap="round" stroke-linejoin="round"/>
<path d="M19.4528 24.8304C19.2228 22.7004 18.2028 21.0904 16.9728 21.0904C16.7114 21.0905 16.4552 21.1632 16.2328 21.3004" stroke="#333333" stroke-width="1.5" stroke-linecap="round" stroke-linejoin="round"/>
<path d="M24.1828 18.3604C23.5628 18.0404 23.5228 17.7504 22.8328 17.6304C20.4528 17.1904 21.4528 18.4304 21.4528 18.4304C21.7545 19.0509 22.1162 19.6403 22.5328 20.1904C22.8828 20.5104 22.8628 20.4804 23.8328 20.4604C24.8028 20.4404 26.8328 20.1704 26.8328 20.1704C26.3958 19.7942 25.9348 19.4468 25.4528 19.1304" fill="#F7F7F7"/>
<path d="M26.1327 25.9104L26.7327 25.0404C27.0467 24.5833 27.5682 24.3131 28.1227 24.3204H34.4427C35.1076 24.315 35.7108 24.7092 35.9727 25.3204L36.1627 25.7604" stroke="#333333" stroke-width="1.5" stroke-linecap="round" stroke-linejoin="round"/>
<path d="M13.3627 12.0304L15.3927 16.1404L6.56274 16.0504" stroke="#333333" stroke-width="1.5" stroke-linecap="round" stroke-linejoin="round"/>
<path opacity="0.05" d="M14.1128 23.1904C13.955 23.5159 13.6245 23.722 13.2628 23.7204H9.18276C8.82623 23.7224 8.49994 23.5204 8.34276 23.2004C7.91276 22.3504 7.25276 21.0404 5.75276 21.2004C4.89276 21.2804 6.50276 21.0104 7.29276 22.9004C7.73701 24.3008 8.04511 25.7408 8.21276 27.2004L15.0628 27.0104" fill="#333333"/>
<path opacity="0.05" d="M17.7527 15.7204L22.5427 15.7004L17.5827 10.6504L14.9927 10.3604L17.7527 15.7204Z" fill="#333333"/>
<path opacity="0.05" d="M25.1027 15.5004H29.7427L23.5127 10.2604H19.9127L25.1027 15.5004Z" fill="#333333"/>
<path d="M23.3927 18.0204C25.0322 18.2128 26.5601 18.9485 27.7327 20.1104C27.9527 20.3604 27.9327 20.7904 27.6327 20.8704C27.3801 20.9286 27.1219 20.9587 26.8627 20.9604C25.6227 20.9604 23.2527 21.0804 22.8027 20.7204C22.2887 20.1118 21.8552 19.4396 21.5127 18.7204" stroke="#333333" stroke-width="1.5" stroke-linecap="round" stroke-linejoin="round"/>
<path d="M32.1927 16.1904C32.8927 16.3504 33.8427 16.5704 35.1227 16.8404C35.9041 16.9938 36.6356 17.3373 37.2527 17.8404C38.0323 18.4858 38.5041 19.4295 38.5527 20.4404C38.5527 20.5604 38.6127 22.7104 38.6127 22.7104C38.6127 22.7104 38.6627 23.3104 38.7327 23.8604C38.8817 24.8903 38.6234 25.9378 38.0127 26.7804C37.5822 27.2763 36.9686 27.5759 36.3127 27.6104H19.3127L19.3727 27.2204C19.4751 26.7101 19.5253 26.1908 19.5227 25.6704C19.5227 25.4304 19.5227 25.2004 19.5227 24.9704" stroke="#333333" stroke-width="1.5" stroke-linecap="round" stroke-linejoin="round"/>
<ellipse cx="5.9327" cy="25.7204" rx="0.92" ry="2.21" fill="#ECECEC"/>
</svg>
