<svg width="40" height="40" viewBox="0 0 40 40" fill="none" xmlns="http://www.w3.org/2000/svg">
<path d="M12.8139 11.2122L10.8118 17.2187L23.2252 19.6213L24.4266 18.0196L24.0261 16.0174L26.8292 15.2165L28.0305 17.6191L29.2318 18.0196L30.0326 20.8226L33.2361 21.6235L33.6366 14.4157L32.0348 12.8139L15.2165 9.61044L12.8139 11.2122Z" fill="#ADAEC2"/>
<path d="M6.71978 28.3058L13.0787 29.5392L12.6462 31.7816C12.3801 33.1346 11.0683 34.0163 9.71503 33.7518L8.26546 33.4715C7.61421 33.3455 7.03976 32.9658 6.6687 32.416C6.29765 31.8661 6.16044 31.1913 6.28731 30.5403L6.71978 28.3058Z" fill="#6C709C"/>
<path d="M12.478 17.7744L31.4266 21.4584C34.967 22.1522 37.2778 25.5808 36.5923 29.1228L35.7914 33.055C35.7004 33.5225 35.4272 33.9346 35.0321 34.2005C34.637 34.4664 34.1524 34.5643 33.6851 34.4726L5.45441 28.9706C4.48353 28.7771 3.85057 27.8366 4.03687 26.8643L4.83774 22.94C5.16495 21.2348 6.15888 19.7306 7.59916 18.7609C9.03944 17.7912 10.807 17.4361 12.5101 17.7744H12.478Z" fill="#6C709C"/>
<mask id="mask0_11377_17445" style="mask-type:luminance" maskUnits="userSpaceOnUse" x="4" y="17" width="33" height="18">
<path fill-rule="evenodd" clip-rule="evenodd" d="M12.478 17.7744L31.4266 21.4584C34.967 22.1522 37.2778 25.5808 36.5923 29.1228L35.7914 33.055C35.7004 33.5225 35.4272 33.9346 35.0321 34.2005C34.637 34.4664 34.1524 34.5643 33.6851 34.4726L5.45441 28.9706C4.48353 28.7771 3.85057 27.8366 4.03687 26.8643L4.83774 22.94C5.16495 21.2348 6.15888 19.7306 7.59916 18.7609C9.03944 17.7912 10.807 17.4361 12.5101 17.7744H12.478Z" fill="white"/>
</mask>
<g mask="url(#mask0_11377_17445)">
<path d="M28.5435 27.8574C28.3082 29.3925 29.2852 30.8528 30.794 31.221C32.9483 31.6375 35.9596 32.2942 37.5533 33.3513C38.5224 33.992 39.5315 27.3768 38.3542 27.3688C36.368 27.3688 31.7069 26.9844 29.6647 26.8002C29.0738 26.7908 28.5816 27.2511 28.5515 27.8414L28.5435 27.8574Z" fill="#ADAEC2"/>
<path fill-rule="evenodd" clip-rule="evenodd" d="M28.5435 27.0565C28.3082 28.5916 29.2852 30.0519 30.794 30.4202C32.9483 30.8366 35.9596 31.4933 37.5533 32.5505C38.5224 33.1912 39.5315 26.576 38.3542 26.568C36.368 26.568 31.7069 26.1835 29.6647 25.9993C29.0738 25.99 28.5816 26.4503 28.5515 27.0405L28.5435 27.0565Z" stroke="black" stroke-width="1.60174" stroke-linecap="round" stroke-linejoin="round"/>
</g>
<path fill-rule="evenodd" clip-rule="evenodd" d="M12.478 17.7744L31.4266 21.4584C34.967 22.1522 37.2778 25.5808 36.5923 29.1228L35.7914 33.055C35.7004 33.5225 35.4272 33.9346 35.0321 34.2005C34.637 34.4664 34.1524 34.5643 33.6851 34.4726L5.45441 28.9706C4.48353 28.7771 3.85057 27.8366 4.03687 26.8643L4.83774 22.94C5.16495 21.2348 6.15888 19.7306 7.59916 18.7609C9.03944 17.7912 10.807 17.4361 12.5101 17.7744H12.478Z" stroke="black" stroke-width="1.60174" stroke-linecap="round" stroke-linejoin="round"/>
<path d="M20.0383 27.1206L20.9272 27.2727" stroke="black" stroke-width="1.60174" stroke-linecap="round" stroke-linejoin="round"/>
<path fill-rule="evenodd" clip-rule="evenodd" d="M33.645 15.9484C33.6572 15.7698 33.6572 15.5905 33.645 15.4119V15.2357C33.6384 15.1219 33.6196 15.0091 33.589 14.8993C33.4821 14.4065 33.2925 13.9353 33.0284 13.5058C32.7242 13.016 32.2264 12.6784 31.6589 12.5768L15.5854 9.63758C15.0204 9.54619 14.4425 9.68778 13.9837 10.03C13.5806 10.3261 13.2311 10.6891 12.9506 11.1032C12.8865 11.1993 12.8224 11.2954 12.7664 11.3995C12.7341 11.4457 12.7047 11.4939 12.6783 11.5436C12.5902 11.7038 12.5101 11.872 12.43 12.0322L10.588 17.1818L33.3487 21.6506L33.645 15.9484Z" stroke="black" stroke-width="1.60174" stroke-linecap="round" stroke-linejoin="round"/>
<path d="M23.4179 19.6725C23.6742 19.3762 24.5151 18.1508 24.5151 18.1508L23.8184 15.8924L26.8377 14.8673L27.8628 17.6463L29.3764 18.287L30.7779 21.074" stroke="black" stroke-width="1.60174" stroke-linecap="round" stroke-linejoin="round"/>
<path fill-rule="evenodd" clip-rule="evenodd" d="M5.79878 29.1868L12.2057 30.3881L12.2778 31.4693C12.2842 32.132 12.0271 32.7701 11.563 33.2432C11.0989 33.7164 10.4658 33.9857 9.80314 33.9921H8.2975C6.9175 33.9921 5.79878 32.8733 5.79878 31.4933L5.79878 29.1868Z" stroke="black" stroke-width="1.60174" stroke-linecap="round" stroke-linejoin="round"/>
<path d="M20.9272 14.8673L23.7863 15.8924" stroke="black" stroke-width="1.60174" stroke-linecap="round" stroke-linejoin="round"/>
<path d="M26.9578 14.0664L26.8056 14.8673" stroke="black" stroke-width="1.60174" stroke-linecap="round" stroke-linejoin="round"/>
</svg>
