<svg width="40" height="40" viewBox="0 0 40 40" fill="none" xmlns="http://www.w3.org/2000/svg">
<path d="M10.8117 10.8118L8.0087 18.42H32.0348L30.8335 12.8139L29.9901 12.1111C28.9826 11.2716 27.7127 10.8118 26.4012 10.8118H10.8117Z" fill="white"/>
<path d="M29.6322 11.6126C30.6628 12.1334 31.2339 14.0152 31.3781 14.6079L32.7476 20.0938H7.65633L9.02582 14.6079" stroke="#333333" stroke-width="1.60174" stroke-linecap="round" stroke-linejoin="round"/>
<path d="M10.0109 12.4135C10.4113 11.6126 10.3312 10.8118 11.6126 10.8118C12.894 10.8118 22.5578 10.8118 27.2296 10.8118" stroke="#333333" stroke-width="1.60174" stroke-linecap="round" stroke-linejoin="round"/>
<path d="M6.91151 29.6322H13.3906V31.9147C13.3906 33.2947 12.2718 34.4134 10.8918 34.4134H9.41023C8.74687 34.4155 8.11007 34.153 7.64101 33.6839C7.17195 33.2148 6.90938 32.578 6.91151 31.9147V29.6322Z" fill="#ECECEC"/>
<path fill-rule="evenodd" clip-rule="evenodd" d="M6.91151 29.6322H13.3906V31.9147C13.3906 33.2947 12.2718 34.4134 10.8918 34.4134H9.41023C8.74687 34.4155 8.11007 34.153 7.64101 33.6839C7.17195 33.2148 6.90938 32.578 6.91151 31.9147V29.6322Z" stroke="#333333" stroke-width="1.60174" stroke-linecap="round" stroke-linejoin="round"/>
<path d="M26.9333 29.6322H33.4123V31.9147C33.4123 33.2947 32.2936 34.4134 30.9136 34.4134H29.432C28.7686 34.4155 28.1318 34.153 27.6628 33.6839C27.1937 33.2148 26.9311 32.578 26.9333 31.9147V29.6322Z" fill="#ECECEC"/>
<path fill-rule="evenodd" clip-rule="evenodd" d="M26.9333 29.6322H33.4123V31.9147C33.4123 33.2947 32.2936 34.4134 30.9136 34.4134H29.432C28.7686 34.4155 28.1318 34.153 27.6628 33.6839C27.1937 33.2148 26.9311 32.578 26.9333 31.9147V29.6322Z" stroke="#333333" stroke-width="1.60174" stroke-linecap="round" stroke-linejoin="round"/>
<path d="M10.5555 18.1958H29.8885C33.4959 18.2002 36.4192 21.1235 36.4236 24.7309V28.7352C36.4236 29.211 36.2346 29.6673 35.8982 30.0038C35.5617 30.3402 35.1054 30.5292 34.6296 30.5292H5.7983C4.80753 30.5292 4.00435 29.726 4.00435 28.7352V24.7309C4.00006 22.9936 4.68941 21.3264 5.91938 20.0995C7.14934 18.8725 8.81818 18.1872 10.5555 18.1958Z" fill="#ECECEC"/>
<mask id="mask0_11377_17461" style="mask-type:luminance" maskUnits="userSpaceOnUse" x="4" y="18" width="33" height="13">
<path fill-rule="evenodd" clip-rule="evenodd" d="M10.5555 18.1958H29.8885C33.4959 18.2002 36.4192 21.1235 36.4236 24.7309V28.7352C36.4236 29.211 36.2346 29.6673 35.8982 30.0038C35.5617 30.3402 35.1054 30.5292 34.6296 30.5292H5.7983C4.80753 30.5292 4.00435 29.726 4.00435 28.7352V24.7309C4.00006 22.9936 4.68941 21.3264 5.91938 20.0995C7.14934 18.8725 8.81818 18.1872 10.5555 18.1958Z" fill="white"/>
</mask>
<g mask="url(#mask0_11377_17461)">
<path d="M28.2467 25.0352C28.3076 26.5866 29.5468 27.8328 31.0978 27.9023C33.2922 27.9023 36.3756 27.9744 38.1375 28.7032C39.2106 29.1517 38.9383 22.4644 37.7771 22.6807C35.831 23.0491 31.1459 23.5696 29.1357 23.7859C28.854 23.8311 28.6019 23.9866 28.4351 24.218C28.2683 24.4494 28.2005 24.7377 28.2467 25.0192V25.0352Z" fill="white"/>
<path fill-rule="evenodd" clip-rule="evenodd" d="M28.2467 25.0352C28.3076 26.5866 29.5468 27.8328 31.0978 27.9023C33.2922 27.9023 36.3756 27.9744 38.1375 28.7032C39.2106 29.1517 38.9383 22.4644 37.7771 22.6807C35.831 23.0491 31.1459 23.5696 29.1357 23.7859C28.854 23.8311 28.6019 23.9866 28.4351 24.218C28.2683 24.4494 28.2005 24.7377 28.2467 25.0192V25.0352Z" stroke="#333333" stroke-width="1.60174" stroke-linecap="round" stroke-linejoin="round"/>
<path d="M11.5325 25.0352C11.466 26.5689 10.2536 27.8055 8.72148 27.9023C6.52709 27.9023 3.43573 27.9744 1.67382 28.7032C0.600652 29.1517 0.912991 22.4644 2.04222 22.6807C3.91626 23.0491 8.60135 23.5696 10.6436 23.7859C11.2229 23.8918 11.6152 24.4362 11.5325 25.0192V25.0352Z" fill="white"/>
<path fill-rule="evenodd" clip-rule="evenodd" d="M11.5325 25.0352C11.466 26.5689 10.2536 27.8055 8.72148 27.9023C6.52709 27.9023 3.43573 27.9744 1.67382 28.7032C0.600652 29.1517 0.912991 22.4644 2.04222 22.6807C3.91626 23.0491 8.60135 23.5696 10.6436 23.7859C11.2229 23.8918 11.6152 24.4362 11.5325 25.0192V25.0352Z" stroke="#333333" stroke-width="1.60174" stroke-linecap="round" stroke-linejoin="round"/>
</g>
<path fill-rule="evenodd" clip-rule="evenodd" d="M10.5555 18.1958H29.8885C33.4959 18.2002 36.4192 21.1235 36.4236 24.7309V28.7352C36.4236 29.211 36.2346 29.6673 35.8982 30.0038C35.5617 30.3402 35.1054 30.5292 34.6296 30.5292H5.7983C4.80753 30.5292 4.00435 29.726 4.00435 28.7352V24.7309C4.00006 22.9936 4.68941 21.3264 5.91938 20.0995C7.14934 18.8725 8.81818 18.1872 10.5555 18.1958V18.1958Z" stroke="#333333" stroke-width="1.60174" stroke-linecap="round" stroke-linejoin="round"/>
<path d="M19.5813 25.9242H20.8306" stroke="#333333" stroke-width="1.60174" stroke-linecap="round" stroke-linejoin="round"/>
</svg>
