<svg width="40" height="40" viewBox="0 0 40 40" fill="none" xmlns="http://www.w3.org/2000/svg">
<path d="M3.78564 25.3214C3.82583 26.849 4.10591 28.3608 4.61564 29.8014H6.91564C8.31564 29.8814 9.78564 27.8114 9.78564 25.3214C9.78564 22.8314 8.33564 20.8114 6.95564 20.8114H4.78564C4.18303 22.2421 3.84424 23.7701 3.78564 25.3214H3.78564Z" fill="#DCDCDC"/>
<path d="M9.16571 28.6914C8.86344 29.3551 8.23133 29.8083 7.50571 29.8814H4.10571" stroke="#333333" stroke-width="1.5" stroke-linecap="round" stroke-linejoin="round"/>
<path d="M17.0256 25.3614C17.089 26.8928 17.4278 28.4002 18.0256 29.8114H20.7056C22.3156 29.8114 23.9956 27.8114 23.9956 25.3314C23.9956 22.8514 22.2756 20.8814 20.6656 20.8814H18.1156C17.4488 22.2842 17.0778 23.8091 17.0256 25.3614Z" fill="#DCDCDC"/>
<path d="M18.2356 29.8814H21.0256C21.984 29.8052 22.8259 29.2158 23.2256 28.3414C23.5596 27.813 23.7651 27.2136 23.8256 26.5914" stroke="#333333" stroke-width="1.5" stroke-linecap="round" stroke-linejoin="round"/>
<ellipse cx="3.88568" cy="25.3614" rx="2.44" ry="4.48" fill="#ECECEC"/>
<ellipse cx="3.88574" cy="25.3614" rx="1.13" ry="2.43" fill="#ECECEC"/>
<path d="M29.7856 25.3614C29.8382 26.8942 30.1774 28.4035 30.7856 29.8114H33.5656C35.2356 29.8114 36.9856 27.8114 36.9856 25.3314C36.9856 22.8514 35.2556 20.8814 33.5856 20.8814H30.9456C30.2436 22.2748 29.8481 23.8024 29.7856 25.3614Z" fill="#DCDCDC"/>
<path d="M31.0657 29.8814H33.9657C35.0565 29.7879 35.9991 29.0819 36.3957 28.0614C36.6355 27.525 36.8069 26.9606 36.9057 26.3814" stroke="#333333" stroke-width="1.5" stroke-linecap="round" stroke-linejoin="round"/>
<ellipse cx="30.8157" cy="25.3614" rx="2.44" ry="4.48" fill="#ECECEC"/>
<path d="M28.8757 28.0514C29.3157 29.1414 30.0257 29.8814 30.7857 29.8814C32.1357 29.8814 33.2257 27.8814 33.2257 25.4014C33.2409 25.1149 33.2409 24.8279 33.2257 24.5414" stroke="#333333" stroke-width="1.5" stroke-linecap="round" stroke-linejoin="round"/>
<ellipse cx="30.7958" cy="25.3614" rx="1.13" ry="2.43" fill="#ECECEC"/>
<path d="M15.4357 26.8814H6.22572C6.22572 26.8814 6.68572 20.8814 3.78572 20.8814C3.34572 20.8814 2.62572 21.5214 2.62572 21.5214C2.62572 21.5214 2.32572 20.8014 3.11572 19.1114L3.52572 17.8214C3.61115 17.5537 3.84639 17.3616 4.12572 17.3314C4.94572 17.2214 4.72572 16.6014 6.23572 12.9914C9.02723 11.5271 12.1335 10.7652 15.2857 10.7714C15.2857 10.7714 21.8557 10.0914 25.4357 11.1014C25.4357 11.1014 30.8357 13.8214 31.3457 15.5914L31.8557 15.5114L36.2057 17.0314C36.9657 17.3914 36.5157 18.4514 37.0157 19.1214C37.57 19.7856 37.8106 20.6568 37.6757 21.5114L37.4657 25.2114C37.4657 25.2114 37.7857 26.3814 35.7057 26.4614L20.3757 26.7114C20.3757 26.7114 20.9657 20.5214 17.9357 20.8814C17.9357 20.8814 15.2957 21.1614 15.4357 26.8814Z" fill="#F7F7F7"/>
<path d="M31.2356 15.3214H20.2856L21.2856 18.4214C21.2856 18.4214 26.5856 17.5314 28.4956 19.6614H33.3056C33.3056 19.6614 33.8656 16.9614 35.0356 16.6614L31.2356 15.3214Z" fill="white"/>
<path d="M25.4358 11.1014C23.3658 10.1014 19.8258 10.1014 17.5558 10.4014L14.4358 10.8814L15.3858 12.3514L16.3858 14.2814L17.6858 15.2814L31.6858 15.7014L30.5558 14.4514L25.4358 11.1014Z" fill="white"/>
<path opacity="0.04" d="M2.69568 19.9714L3.52568 17.8214C3.63014 17.6947 3.75523 17.5865 3.89568 17.5014C5.41568 16.7914 5.44568 17.1114 7.47568 19.0214C8.06568 19.5714 10.1557 17.8114 13.6457 19.8514C14.2476 20.2956 15.0762 20.2666 15.6457 19.7814C16.9777 19.0114 18.6496 19.1594 19.8257 20.1514C20.1057 20.3814 21.6557 21.2914 22.8257 22.0114C23.987 22.7538 25.305 23.2159 26.6757 23.3614C30.3122 23.6542 33.9653 23.6809 37.6057 23.4414C37.6865 24.0814 37.6595 24.7304 37.5257 25.3614C37.4757 25.6314 36.5257 26.5214 36.5257 26.5214L25.5257 26.7114C25.5257 26.7114 17.8557 26.8214 16.1057 26.8414C15.2757 26.9414 13.9157 26.8414 13.5157 26.8414C13.5157 26.8414 6.26568 27.3414 6.25568 26.8414C6.25568 26.8414 6.66568 22.4614 5.37568 21.7414C2.98568 20.4114 2.71568 21.2714 2.71568 21.2714L2.69568 19.9714Z" fill="#333333"/>
<path d="M15.4357 26.8314H8.08569" stroke="#333333" stroke-width="1.5" stroke-linecap="round" stroke-linejoin="round"/>
<path d="M7.20573 12.3914C7.08573 12.4814 6.62573 13.5514 6.53573 13.6714C6.44573 13.7914 5.94573 15.6714 6.41573 15.9114C6.56573 16.0014 8.66573 15.9114 8.90573 15.9114H10.9657L12.3757 16.0014L14.4357 15.6814C13.696 13.9855 12.8545 12.3358 11.9157 10.7414C11.0957 10.7414 10.9157 10.7414 7.91573 12.0214L7.20573 12.3914Z" fill="white"/>
<path opacity="0.05" d="M7.62564 12.2214L9.48564 15.7014L6.28564 15.9114L6.89564 12.5214L7.62564 12.2214Z" fill="#333333"/>
<path opacity="0.05" d="M12.0758 10.9614L14.2558 15.7914L11.7758 15.8814L9.92578 11.5314L12.0758 10.9614Z" fill="#333333"/>
<path opacity="0.05" d="M26.8056 15.3214L31.3456 15.5914L25.4356 11.1014L20.0156 10.6314L26.8056 15.3214Z" fill="#333333"/>
<path opacity="0.05" d="M17.6258 15.2714L22.5058 15.3114L16.8058 10.2214L14.4358 10.8314L15.3858 12.3014L17.6258 15.2714Z" fill="#333333"/>
<path d="M20.4756 26.5214L27.8956 26.5514" stroke="#333333" stroke-width="1.5" stroke-linecap="round" stroke-linejoin="round"/>
<ellipse cx="18.0358" cy="25.3614" rx="0.59" ry="1.26" fill="#ECECEC"/>
<path d="M7.55566 15.7814L14.4357 15.7014L13.1957 12.8514" stroke="#333333" stroke-width="1.5" stroke-linecap="round" stroke-linejoin="round"/>
<path d="M1.5657 23.9614C1.48393 24.4235 1.44377 24.8921 1.4457 25.3614C1.43049 25.6479 1.43049 25.9349 1.4457 26.2214" stroke="#333333" stroke-width="1.5" stroke-linecap="round" stroke-linejoin="round"/>
<path d="M1.49573 26.2214C1.70573 28.2814 2.69573 29.8814 3.88573 29.8814C5.22573 29.8814 6.32573 27.8814 6.32573 25.4014C6.32573 22.9214 5.22573 20.8814 3.88573 20.8814C3.24326 20.9383 2.67227 21.3139 2.36573 21.8814" stroke="#333333" stroke-width="1.5" stroke-linecap="round" stroke-linejoin="round"/>
<path d="M15.5957 25.3614C15.5957 27.8814 16.6857 29.8814 18.0357 29.8814C19.3857 29.8814 20.4757 27.8814 20.4757 25.4014C20.4757 22.9214 19.6657 20.6114 18.0357 20.9214C16.7157 21.1314 15.5957 22.8814 15.5957 25.3614Z" fill="#ECECEC"/>
<ellipse cx="18.0358" cy="25.3614" rx="1.13" ry="2.43" fill="#ECECEC"/>
<path d="M18.1558 15.3214H17.8658C17.6665 15.3233 17.4807 15.2209 17.3758 15.0514L15.9258 12.5914" stroke="#333333" stroke-width="1.5" stroke-linecap="round" stroke-linejoin="round"/>
<path d="M33.9856 19.7114C33.9938 19.1769 34.0988 18.6484 34.2956 18.1514" stroke="#333333" stroke-width="1.5" stroke-linecap="round" stroke-linejoin="round"/>
<path d="M28.8657 19.7114H33.9457" stroke="#333333" stroke-width="1.5" stroke-linecap="round" stroke-linejoin="round"/>
<path d="M28.3857 26.5514L36.7657 26.4514C38.3457 26.4514 38.4857 20.6814 37.5057 19.1214C37.4679 18.2652 37.0829 17.4614 36.4395 16.8954C35.796 16.3293 34.9497 16.0498 34.0957 16.1214" stroke="#333333" stroke-width="1.5" stroke-linecap="round" stroke-linejoin="round"/>
<path d="M20.1856 16.4514L20.0956 16.8614H20.4756" fill="#F7F7F7"/>
<path d="M21.3057 18.4214C26.3657 16.1414 28.3857 19.7114 28.3857 19.7114" stroke="#333333" stroke-width="1.5" stroke-linecap="round" stroke-linejoin="round"/>
<path d="M20.2857 15.3214H31.2857L30.6157 14.5414C28.9761 13.0193 27.0935 11.7823 25.0457 10.8814C18.8604 9.24276 12.2907 9.90364 6.55572 12.7414C6.30693 12.8584 6.10826 13.0606 5.99572 13.3114C5.38572 14.9514 5.44572 17.0914 4.63572 17.2214L4.01572 17.3714C3.73305 17.5305 3.52195 17.7917 3.42572 18.1014C3.25572 18.4714 2.52572 21.3114 2.36572 21.8514" stroke="#333333" stroke-width="1.5" stroke-linecap="round" stroke-linejoin="round"/>
<path d="M35.3858 22.4814H23.1658" stroke="#333333" stroke-width="1.5" stroke-linecap="round" stroke-linejoin="round"/>
<path d="M19.6956 28.8814C19.4026 29.4565 18.8295 29.836 18.1856 29.8814C16.8356 29.8814 15.7856 27.8814 15.7856 25.3614C15.7856 22.8414 16.8356 20.8814 18.1856 20.8814C19.3656 20.8814 20.3556 22.4414 20.5756 24.5014C20.6696 25.1648 20.6696 25.8381 20.5756 26.5014" stroke="#333333" stroke-width="1.5" stroke-linecap="round" stroke-linejoin="round"/>
</svg>
