<svg width="40" height="40" viewBox="0 0 40 40" fill="none" xmlns="http://www.w3.org/2000/svg">
<path d="M23.7187 8.51535L17.9187 12.8854C17.7294 13.0154 17.6407 13.2493 17.6965 13.4722C17.7522 13.695 17.9405 13.8598 18.1687 13.8854L20.0787 14.2754L14.9887 18.0854C14.7994 18.2154 14.7107 18.4493 14.7665 18.6722C14.8222 18.895 15.0105 19.0598 15.2387 19.0854L17.2387 19.4953L11.2387 24.1754C11.0494 24.3054 10.9607 24.5393 11.0165 24.7622C11.0722 24.985 11.2605 25.1498 11.4887 25.1754L17.8587 26.4753L16.1887 30.6054L13.5987 30.0753L12.7987 34.0753L19.5587 35.4454L18.8387 35.3054L23.6987 36.3054L24.5087 32.3054L21.9187 31.7854L22.0787 27.2554L28.4587 28.5554C28.6705 28.6061 28.8922 28.5271 29.0242 28.354C29.1562 28.1808 29.1737 27.9461 29.0687 27.7554L25.3287 21.0854L27.3287 21.5054C27.5434 21.5596 27.7696 21.4798 27.9028 21.303C28.036 21.1261 28.0501 20.8867 27.9387 20.6954L26.3187 17.9054" fill="#F7F7F7"/>
<path d="M22.5588 9.45536L24.5588 13.0154C24.6548 13.1601 24.6753 13.3423 24.6139 13.5048C24.5524 13.6673 24.4166 13.7903 24.2488 13.8354L23.2488 13.6954C22.1588 13.6254 22.3188 14.5454 22.5788 15.1254L24.9488 18.1254C25.1702 18.3704 25.2338 18.7196 25.113 19.0269C24.9921 19.3343 24.7078 19.5467 24.3788 19.5754H23.5688C22.8188 19.7354 22.9788 20.8954 23.3188 21.5754L25.0788 24.7654C25.4143 25.2772 25.441 25.9321 25.1482 26.4695C24.8555 27.0069 24.2908 27.3397 23.6788 27.3354L21.8388 26.8854C20.7688 26.6854 20.2688 26.3354 20.1888 27.4254L20.0788 31.7654C20.0288 32.4754 20.0788 32.9854 20.7388 33.2354L22.1388 33.3554C22.8688 33.3554 22.6988 34.1454 22.5588 34.8554L22.3188 35.8554L23.7888 36.2354L24.5988 32.2354L22.0088 31.7154L22.0788 27.2554L28.4588 28.5554L29.0688 27.7554L25.3288 21.0854L27.3288 21.5054L27.2788 20.3454L25.5888 15.4754L26.9288 15.3154L27.2688 14.7754L23.8688 8.77536L22.5588 9.45536Z" fill="white"/>
<path d="M22.6287 35.9754L23.7387 36.2054L24.5487 32.2054L21.9587 31.6854L22.0787 27.2554L28.4587 28.5554C28.6705 28.6061 28.8922 28.5271 29.0242 28.354C29.1562 28.1808 29.1737 27.9461 29.0687 27.7554L25.3287 21.0854L27.3287 21.5054C27.5434 21.5596 27.7696 21.4798 27.9028 21.303C28.036 21.1261 28.0501 20.8867 27.9387 20.6954L26.3187 17.9054" stroke="#333333" stroke-width="1.5" stroke-linecap="round" stroke-linejoin="round"/>
<path d="M20.3187 35.4854L20.3487 35.4954" stroke="#333333" stroke-width="1.5" stroke-linecap="round" stroke-linejoin="round"/>
<path d="M17.9187 35.0154L12.8387 33.9854L13.6387 30.0154L16.2287 30.5454L17.8987 26.4154L15.5087 25.9254" stroke="#333333" stroke-width="1.5" stroke-linecap="round" stroke-linejoin="round"/>
<path d="M23.3887 8.73535L17.9187 12.8854C17.7294 13.0154 17.6407 13.2493 17.6965 13.4722C17.7522 13.695 17.9405 13.8598 18.1687 13.8854L20.0787 14.2754L14.9887 18.0854C14.7994 18.2154 14.7107 18.4493 14.7665 18.6722C14.8222 18.895 15.0105 19.0598 15.2387 19.0854L17.2387 19.4954L11.2387 24.1754C11.0494 24.3054 10.9607 24.5393 11.0165 24.7622C11.0722 24.985 11.2605 25.1498 11.4887 25.1754L13.0287 25.4654" stroke="#333333" stroke-width="1.5" stroke-linecap="round" stroke-linejoin="round"/>
<path d="M24.7887 15.2154L26.6987 15.6054C26.9133 15.6596 27.1396 15.5798 27.2727 15.403C27.4059 15.2261 27.4201 14.9867 27.3087 14.7954L26.4187 13.2454" stroke="#333333" stroke-width="1.5" stroke-linecap="round" stroke-linejoin="round"/>
<path d="M26.0787 4.08536C25.1284 3.83376 24.118 4.14855 23.4787 4.89536C22.8303 5.48319 22.3095 6.19796 21.9487 6.99536V6.99536" stroke="#333333" stroke-width="1.5" stroke-linecap="round" stroke-linejoin="round"/>
<path d="M26.0787 4.08536C27.3787 4.66536 27.4687 7.14536 26.2787 9.62536C25.8397 10.5467 25.2365 11.3803 24.4987 12.0854L23.4087 11.6854" stroke="#333333" stroke-width="1.5" stroke-linecap="round" stroke-linejoin="round"/>
</svg>
