<svg width="40" height="40" viewBox="0 0 40 40" fill="none" xmlns="http://www.w3.org/2000/svg">
<path d="M30.2117 26.61C30.2524 28.1514 30.5359 29.6768 31.0517 31.13H33.9217C35.3217 31.13 37.7917 29.13 37.7917 26.58C37.7917 24.03 34.7917 21.58 33.3917 21.58C33.3017 21.58 31.1717 22.06 31.1717 22.06C30.5808 23.5066 30.2556 25.0479 30.2117 26.61Z" fill="#6C709C"/>
<path d="M37.2618 27.02C37.3352 26.5738 37.372 26.1223 37.3718 25.67C37.4104 23.6076 35.8963 21.844 33.8518 21.57C33.7718 21.57 31.3118 22.05 31.3118 22.05C30.706 23.4972 30.3672 25.0421 30.3118 26.61C30.3525 28.1515 30.636 29.6769 31.1518 31.13H34.8118C35.5018 31.13 36.1618 30.44 36.6018 29.64C37.0495 28.831 37.2641 27.9137 37.2218 26.99" stroke="black" stroke-width="1.5" stroke-linecap="round" stroke-linejoin="round"/>
<ellipse cx="31.2717" cy="26.61" rx="2.55" ry="4.55" fill="#6C709C"/>
<path d="M29.3716 29.65C29.6721 30.4695 30.4054 31.0523 31.2716 31.16C32.5816 31.16 33.6616 29.39 33.8016 27.16" stroke="black" stroke-width="1.5" stroke-linecap="round" stroke-linejoin="round"/>
<path d="M4.43164 26.61C4.47235 28.1514 4.75583 29.6768 5.27164 31.13H8.14164C9.55164 31.13 12.0216 29.13 12.0216 26.58C12.0216 24.03 9.02164 21.58 7.61164 21.58C7.53164 21.58 5.39164 22.06 5.39164 22.06C4.80078 23.5066 4.47558 25.0479 4.43164 26.61H4.43164Z" fill="#6C709C"/>
<path d="M11.3416 27.02C11.415 26.5738 11.4518 26.1223 11.4516 25.67C11.4902 23.6076 9.97612 21.844 7.9316 21.57C7.8516 21.57 5.3916 22.05 5.3916 22.05C4.78584 23.4972 4.44705 25.0421 4.3916 26.61C4.43231 28.1515 4.71579 29.6769 5.2316 31.13H8.8916C9.5816 31.13 10.2416 30.44 10.6816 29.64" stroke="black" stroke-width="1.5" stroke-linecap="round" stroke-linejoin="round"/>
<path d="M32.0017 26.13C32.0017 26.8 32.2517 27.34 32.5717 27.34C32.8917 27.34 33.1317 26.8 33.1317 26.13C33.1317 25.46 32.8817 24.45 32.5717 24.45C32.2617 24.45 32.0017 25.45 32.0017 26.13Z" fill="#6C709C"/>
<path fill-rule="evenodd" clip-rule="evenodd" d="M32.0017 26.13C32.0017 26.8 32.2517 27.34 32.5717 27.34C32.8917 27.34 33.1317 26.8 33.1317 26.13C33.1317 25.46 32.8817 24.45 32.5717 24.45C32.2617 24.45 32.0017 25.45 32.0017 26.13Z" stroke="black" stroke-width="1.5" stroke-linecap="round" stroke-linejoin="round"/>
<path d="M16.4917 26.61C16.5324 28.1514 16.8159 29.6768 17.3317 31.13H20.1917C21.6017 31.13 24.0717 29.13 24.0717 26.58C24.0717 24.03 21.0717 21.58 19.6717 21.58C19.5817 21.58 17.4417 22.06 17.4417 22.06C16.8555 23.5076 16.5338 25.0487 16.4917 26.61V26.61Z" fill="#6C709C"/>
<path d="M23.5316 27.02C23.6134 26.5747 23.6536 26.1228 23.6516 25.67C23.6902 23.6076 22.1761 21.844 20.1316 21.57C20.0416 21.57 17.5816 22.05 17.5816 22.05C16.9942 23.5008 16.6725 25.0454 16.6316 26.61C16.6723 28.1515 16.9558 29.6769 17.4716 31.13H21.1316C21.8116 31.13 22.4716 30.44 22.9116 29.64C23.3593 28.831 23.5739 27.9137 23.5316 26.99" stroke="black" stroke-width="1.5" stroke-linecap="round" stroke-linejoin="round"/>
<path d="M4.17168 27.91L2.5 26.4999C2.43097 25.0997 1.43299 24.1062 1.64168 22.72C2.10512 21.7447 2.39287 20.6953 2.49168 19.62C2.54322 18.3972 2.82835 17.1956 3.33168 16.08L5.39168 12.27L6.71168 12.08C7.16167 12.08 9.35168 11.39 14.4017 9.25999C20.3317 9.08999 22.91 10.0699 25 10.9999C27.09 11.9299 30.0017 14.9 30.7217 15.09C31.4417 15.28 37.0817 18.08 37.0817 18.08L37.1517 19.02L38.5717 21.72L38.2017 27.58L4.17168 27.91Z" fill="#9497B2"/>
<path d="M13.0916 15.77L14.8416 15.92C14.8416 15.92 13.2299 10.3299 11.4999 10.1299C10.1499 9.99988 11.4999 10.3099 9.49995 10.9999C8.49995 11.3399 6.25162 11.23 5.17162 13.01C4.83709 13.5653 4.58131 14.1643 4.41162 14.79L11.2516 15.44" fill="#ADAEC2"/>
<path opacity="0.05" d="M2.51166 21.56C2.51166 21.56 2.39166 18.48 2.67166 18.16C2.95166 17.84 4.10166 18.35 4.10166 18.35C7.53673 19.4821 11.0405 20.394 14.5917 21.08C15.4417 21.21 15.9017 19.36 18.1417 19.88C20.0517 20.33 20.9917 24.19 20.9517 25.77C20.8765 26.4922 20.763 27.2099 20.6117 27.92H15.1817V27.87L2.49998 27.0501C1.99575 26.4642 1.6513 25.7581 1.49998 25.0001C1.43998 24.0001 2.51166 21.56 2.51166 21.56Z" fill="black"/>
<path d="M13.8718 9.99999C13.8718 10.07 11.2718 10.22 11.3218 10.3C11.96 11.2087 12.5219 11.1686 13.0018 12.17C13.6818 13.7 14.7318 14.89 15.0018 15.51C15.2718 16.13 16.5718 16.51 17.5918 16.62C18.6118 16.73 20.3018 16.68 21.3218 17.37C21.6618 17.6 19.8218 18.29 19.9618 18.72C20.1018 19.15 22.2918 19.93 22.2218 20.64C22.0918 21.91 38.5618 21.74 38.5618 21.74L37.0818 18.08C35.5249 16.5534 33.4995 15.5953 31.3318 15.36C29.4818 14.36 25.5001 11 25.5001 11L22.8918 9.57999H13.7818L16.7818 15.58L30.7218 15.08" fill="#ADAEC2"/>
<path opacity="0.05" d="M19.4017 15.15H23.1517L15.9617 9.73999L14.4717 9.77999L17.4017 15.07L19.4017 15.15Z" fill="black"/>
<path d="M37.3016 18.84L35.9316 19.34L36.9316 21.1L37.8816 21.01" fill="#6C709C"/>
<path d="M25.5717 27.81L24.5617 26.02L24.5217 23.58L28.0017 24.07H37.3317L38.9817 23.97L38.5117 26.08L38.6917 27.71" fill="#5A5E8C"/>
<path d="M2.91161 26.36C2.34641 25.8369 1.99094 25.126 1.91161 24.36C1.75733 23.4704 1.82605 22.5565 2.11161 21.7C2.34661 20.9911 2.45493 20.2464 2.43161 19.5C2.41364 19.0213 2.46758 18.5427 2.59161 18.08C2.99051 17.0651 3.55855 16.1251 4.27161 15.3C4.50011 14.601 4.7706 13.9164 5.08161 13.25C5.26196 12.9432 5.53509 12.7016 5.86161 12.56C10.0816 10.76 19.3416 8.24999 24.2716 10.89C25.8616 11.59 29.8116 15.16 29.8116 15.16L18.1516 15.28L16.1516 11.69" stroke="black" stroke-width="1.5" stroke-linecap="round" stroke-linejoin="round"/>
<ellipse cx="17.5417" cy="26.61" rx="2.55" ry="4.55" fill="#6C709C"/>
<path d="M16.6817 22.32C16.9341 22.1533 17.2292 22.063 17.5317 22.06C18.9417 22.06 20.0817 24.06 20.0817 26.61C20.0817 29.16 18.9417 31.16 17.5317 31.16C16.1217 31.16 15.1317 29.39 14.9917 27.16" stroke="black" stroke-width="1.5" stroke-linecap="round" stroke-linejoin="round"/>
<path d="M15.3017 24.41C15.3017 24.29 15.3717 24.18 15.4117 24.06" stroke="black" stroke-width="1.5" stroke-linecap="round" stroke-linejoin="round"/>
<ellipse cx="5.49165" cy="26.61" rx="2.55" ry="4.55" fill="#6C709C"/>
<ellipse cx="17.4117" cy="26.66" rx="0.92" ry="2.42" fill="#6C709C"/>
<ellipse cx="5.42171" cy="26.63" rx="0.92" ry="2.42" fill="#6C709C"/>
<path d="M31.7016 15.74C35.4216 16.94 36.7516 17.74 37.1516 18.4C37.7104 19.387 38.1183 20.4522 38.3616 21.56C38.4716 22.88 37.9516 24.27 38.0916 26.64C38.1052 26.9721 37.9827 27.2954 37.7524 27.5352C37.5221 27.7749 37.204 27.9103 36.8716 27.91H21.8716" stroke="black" stroke-width="1.5" stroke-linecap="round" stroke-linejoin="round"/>
<path opacity="0.05" d="M10.2417 10.72L11.9317 15.39H14.2217L13.0717 9.91" fill="black"/>
<path opacity="0.05" d="M6.11157 11.66L7.73157 15.27L9.61157 15.37L7.53157 10.99" fill="black"/>
<path d="M6.26172 15.72L14.5517 15.77L12.9917 12.52" stroke="black" stroke-width="1.5" stroke-linecap="round" stroke-linejoin="round"/>
<path d="M36.0317 24.13H36.4117" stroke="black" stroke-width="1.5" stroke-linecap="round" stroke-linejoin="round"/>
<path d="M25.1618 25.83C25.0183 25.2584 24.9643 24.6681 25.0018 24.08C25.0006 23.973 25.0531 23.8725 25.1415 23.8122C25.2299 23.752 25.3426 23.7399 25.4418 23.78C25.4418 23.78 28.0618 24.14 28.1518 24.14H34.0018" stroke="black" stroke-width="1.5" stroke-linecap="round" stroke-linejoin="round"/>
<path d="M35.7217 19.53L35.8917 20.85L38.2217 21.12" fill="#6C709C"/>
<path d="M35.7217 19.53L35.8917 20.85L38.2217 21.12" stroke="black" stroke-width="1.5" stroke-linecap="round" stroke-linejoin="round"/>
<path opacity="0.05" d="M26.3116 15.15H29.6416L22.9116 9.73999H19.1216L26.3116 15.15Z" fill="black"/>
<path d="M22.4517 18.4C22.7169 18.4108 22.9809 18.4408 23.2417 18.49C24.7062 18.5039 25.9235 19.622 26.0617 21.08L22.4717 21.16C21.9816 21.1696 21.5125 20.9607 21.1917 20.59L19.5117 18.67" fill="#6C709C"/>
<path d="M22.4517 18.4C22.7169 18.4108 22.9809 18.4408 23.2417 18.49C24.7062 18.5039 25.9235 19.622 26.0617 21.08L22.4717 21.16C21.9816 21.1696 21.5125 20.9607 21.1917 20.59L19.5117 18.67" stroke="black" stroke-width="1.5" stroke-linecap="round" stroke-linejoin="round"/>
<path d="M31.7016 20.36H31.0216H31.7016Z" fill="#6C709C"/>
<path d="M31.7016 20.36H31.0216" stroke="black" stroke-width="1.5" stroke-linecap="round" stroke-linejoin="round"/>
<path d="M7.74171 24.41C7.30171 23.01 6.46171 22.08 5.50171 22.08C4.09171 22.08 3.00171 24.08 3.00171 26.61C3.00171 29.14 4.14171 31.16 5.55171 31.16C6.70171 31.16 7.68171 29.8 7.99171 27.94H13.3117" stroke="black" stroke-width="1.5" stroke-linecap="round" stroke-linejoin="round"/>
</svg>
