<svg width="40" height="40" viewBox="0 0 40 40" fill="none" xmlns="http://www.w3.org/2000/svg">
<path d="M10.0109 22.024L8.00873 22.8248L8.8096 17.6192C9.77064 15.6971 11.3457 15.2166 12.0131 15.2166H26.0283C29.2318 15.2166 30.8335 17.0853 31.234 18.0196L32.4353 22.024H26.8292L25.6279 22.4244L23.2253 24.4266L20.8227 23.2253L17.2187 22.024H10.0109Z" fill="white"/>
<path d="M31.3947 18.372L32.7642 23.8579" stroke="#333333" stroke-width="1.60174" stroke-linecap="round" stroke-linejoin="round"/>
<path d="M9.35475 16.7142C8.9444 17.1906 8.65583 17.7595 8.51384 18.372L7.14435 23.8579" stroke="#333333" stroke-width="1.60174" stroke-linecap="round" stroke-linejoin="round"/>
<path d="M6.92811 33.3963H13.4072V35.6788C13.4072 37.0588 12.2884 38.1775 10.9084 38.1775H9.42683C8.76348 38.1796 8.12668 37.9171 7.65761 37.448C7.18855 36.9789 6.92598 36.3421 6.92811 35.6788V33.3963Z" fill="#ECECEC"/>
<path fill-rule="evenodd" clip-rule="evenodd" d="M6.92811 33.3963H13.4072V35.6788C13.4072 37.0588 12.2884 38.1775 10.9084 38.1775H9.42683C8.76348 38.1796 8.12668 37.9171 7.65761 37.448C7.18855 36.9789 6.92598 36.3421 6.92811 35.6788V33.3963Z" stroke="#333333" stroke-width="1.60174" stroke-linecap="round" stroke-linejoin="round"/>
<path d="M26.9499 33.3963H33.4289V35.6788C33.4289 37.0588 32.3102 38.1775 30.9302 38.1775H29.4486C28.7852 38.1796 28.1484 37.9171 27.6794 37.448C27.2103 36.9789 26.9477 36.3421 26.9499 35.6788V33.3963Z" fill="#ECECEC"/>
<path fill-rule="evenodd" clip-rule="evenodd" d="M26.9499 33.3963H33.4289V35.6788C33.4289 37.0588 32.3102 38.1775 30.9302 38.1775H29.4486C28.7852 38.1796 28.1484 37.9171 27.6794 37.448C27.2103 36.9789 26.9477 36.3421 26.9499 35.6788V33.3963Z" stroke="#333333" stroke-width="1.60174" stroke-linecap="round" stroke-linejoin="round"/>
<path d="M10.5721 21.9599H18.4527L22.9055 24.2344L26.2531 21.9599H29.9051C33.5125 21.9643 36.4358 24.8876 36.4402 28.495V32.4993C36.4402 33.4901 35.637 34.2933 34.6463 34.2933H5.81492C4.82414 34.2933 4.02097 33.4901 4.02097 32.4993V28.495C4.02096 26.759 4.71168 25.0943 5.94071 23.8683C7.16975 22.6423 8.8361 21.9556 10.5721 21.9599Z" fill="#ECECEC"/>
<mask id="mask0_11377_17442" style="mask-type:luminance" maskUnits="userSpaceOnUse" x="4" y="21" width="33" height="14">
<path fill-rule="evenodd" clip-rule="evenodd" d="M10.5721 21.9599H29.9051C33.5125 21.9643 36.4358 24.8876 36.4402 28.495V32.4993C36.4402 33.4901 35.637 34.2933 34.6463 34.2933H5.81492C4.82414 34.2933 4.02097 33.4901 4.02097 32.4993V28.495C4.02096 26.759 4.71168 25.0943 5.94071 23.8683C7.16975 22.6423 8.8361 21.9556 10.5721 21.9599Z" fill="white"/>
</mask>
<g mask="url(#mask0_11377_17442)">
<path d="M28.2633 28.7993C28.3242 30.3507 29.5634 31.5968 31.1144 31.6664C33.3088 31.6664 36.3922 31.7385 38.1541 32.4673C39.2272 32.9158 38.955 26.2285 37.7937 26.4447C35.8476 26.8292 31.1945 27.3337 29.1523 27.5499C28.5682 27.6481 28.1718 28.1981 28.2633 28.7833V28.7993Z" fill="white"/>
<path fill-rule="evenodd" clip-rule="evenodd" d="M28.2633 28.7993C28.3242 30.3507 29.5634 31.5968 31.1144 31.6664C33.3088 31.6664 36.3922 31.7385 38.1541 32.4673C39.2272 32.9158 38.955 26.2285 37.7937 26.4447C35.8476 26.8292 31.1945 27.3337 29.1523 27.5499C28.5682 27.6481 28.1718 28.1981 28.2633 28.7833V28.7993Z" stroke="#333333" stroke-width="1.60174" stroke-linecap="round" stroke-linejoin="round"/>
<path d="M11.5491 28.7993C11.4842 30.352 10.2425 31.5971 8.69003 31.6664C6.49565 31.6664 3.40429 31.7385 1.64237 32.4673C0.569203 32.9158 0.881543 26.2285 2.01077 26.4447C3.95689 26.8292 8.60994 27.3337 10.6522 27.5499C11.2315 27.6559 11.6238 28.2002 11.5411 28.7833L11.5491 28.7993Z" fill="white"/>
<path fill-rule="evenodd" clip-rule="evenodd" d="M11.5491 28.7993C11.4842 30.352 10.2425 31.5971 8.69003 31.6664C6.49565 31.6664 3.40429 31.7385 1.64237 32.4673C0.569203 32.9158 0.881543 26.2285 2.01077 26.4447C3.95689 26.8292 8.60994 27.3337 10.6522 27.5499C11.2315 27.6559 11.6238 28.2002 11.5411 28.7833L11.5491 28.7993Z" stroke="#333333" stroke-width="1.60174" stroke-linecap="round" stroke-linejoin="round"/>
</g>
<path fill-rule="evenodd" clip-rule="evenodd" d="M10.5721 21.9599H17.5637L23.1698 24.6508C23.3506 24.7381 23.5671 24.6994 23.7064 24.5547L26.2371 21.9599H29.8891C33.4965 21.9643 36.4198 24.8876 36.4242 28.495V32.4993C36.4242 33.4901 35.621 34.2933 34.6302 34.2933H5.79889C4.80812 34.2933 4.00494 33.4901 4.00494 32.4993V28.5751C3.99422 27.7561 4.13262 26.9419 4.41339 26.1725C5.38891 23.6289 7.83189 21.9504 10.5561 21.9519L10.5721 21.9599Z" stroke="#333333" stroke-width="1.60174" stroke-linecap="round" stroke-linejoin="round"/>
<path d="M19.5499 29.472H20.7992" stroke="#333333" stroke-width="1.60174" stroke-linecap="round" stroke-linejoin="round"/>
<path fill-rule="evenodd" clip-rule="evenodd" d="M30.0012 6.37494L17.7159 2.40262L11.0286 7.67235L11.8935 16.4739L22.8815 21.6155L28.4475 15.3767L30.0012 6.37494Z" fill="white" stroke="#333333" stroke-width="1.60174" stroke-linecap="round" stroke-linejoin="round"/>
<path d="M20.7992 19.9737L25.3962 14.0873L25.228 10.2912L24.3391 8.63338L24.1469 4.22058L30.0012 6.37492L28.5196 14.9763L22.8815 21.6155L20.7992 19.9737Z" fill="#ECECEC"/>
<path d="M17.7159 2.40262L18.2124 7.01563L16.2583 14.9763L11.8935 16.4739L11.0286 7.67235L17.7159 2.40262Z" fill="#ECECEC"/>
<path d="M16.6267 11.012L16.2583 14.9763L11.9976 16.522" stroke="#333333" stroke-width="1.60174" stroke-linecap="round" stroke-linejoin="round"/>
<path d="M24.1469 4.48489L24.3391 8.6334L24.6834 11.6527" fill="white"/>
<path d="M24.1469 4.48489L24.3391 8.6334L24.6834 11.6527" stroke="#333333" stroke-width="1.60174" stroke-linecap="round" stroke-linejoin="round"/>
<path fill-rule="evenodd" clip-rule="evenodd" d="M30.0012 6.37494L17.7159 2.40262L11.0286 7.67235L11.8935 16.4739L22.8815 21.6155L28.4475 15.3767L30.0012 6.37494Z" stroke="#333333" stroke-width="1.60174" stroke-linecap="round" stroke-linejoin="round"/>
</svg>
