<svg width="40" height="40" viewBox="0 0 40 40" fill="none" xmlns="http://www.w3.org/2000/svg">
<path d="M8.74269 18.2211L8.50795 20.3338C8.45524 20.8082 8.8266 21.2231 9.30392 21.2231H11.6126H20.7229C21.2023 21.2231 21.5743 20.8047 21.5183 20.3286L20.9131 15.1845C20.8626 14.7557 20.4814 14.4441 20.0512 14.48L11.9465 15.1554C11.5315 15.1899 11.2122 15.5369 11.2122 15.9535V16.5403C11.2122 16.9318 10.9291 17.2659 10.543 17.3303L9.407 17.5196C9.05356 17.5785 8.78226 17.865 8.74269 18.2211Z" fill="#ADAEC2"/>
<path d="M32.0348 17.6192L32.3364 20.3338C32.3892 20.8082 32.0178 21.2231 31.5405 21.2231H29.2318H20.1215C19.6421 21.2231 19.2701 20.8047 19.3261 20.3286L19.8885 15.5486C19.9533 14.9973 20.5456 14.6776 21.042 14.9258L24.827 16.8183L25.7808 17.176C27.0233 17.6419 28.4082 17.0124 28.8741 15.77L29.0369 15.3358C29.1541 15.0232 29.4605 14.8346 29.7433 15.0119C30.67 15.5932 32.0348 17.2886 32.0348 17.6192Z" fill="#ADAEC2"/>
<path d="M29.3359 15.2166C30.3666 15.7373 31.1142 16.6872 31.3781 17.8114L32.7476 23.2973H7.65634L9.02583 17.8114" stroke="black" stroke-width="1.60174" stroke-linecap="round" stroke-linejoin="round"/>
<path d="M17.6752 7.56023L20.9668 2.40262L22.5686 8.00871L28.9755 8.80958L24.9712 12.0131L26.5729 16.0174L21.7677 15.2165L18.5642 19.2209L17.1867 15.3527L10.5555 16.0174L14.5599 12.0131L7.35202 5.6061L17.6752 7.56023Z" fill="#9497B2" stroke="black" stroke-width="1.60174" stroke-linecap="round" stroke-linejoin="round"/>
<path d="M6.91154 32.8357H13.3906V35.1182C13.3906 36.4982 12.2719 37.6169 10.8919 37.6169H9.41026C8.74691 37.619 8.11011 37.3565 7.64104 36.8874C7.17198 36.4183 6.90941 35.7815 6.91154 35.1182V32.8357Z" fill="#6C709C"/>
<path fill-rule="evenodd" clip-rule="evenodd" d="M6.91154 32.8357H13.3906V35.1182C13.3906 36.4982 12.2719 37.6169 10.8919 37.6169H9.41026C8.74691 37.619 8.11011 37.3565 7.64104 36.8874C7.17198 36.4183 6.90941 35.7815 6.91154 35.1182V32.8357Z" stroke="black" stroke-width="1.60174" stroke-linecap="round" stroke-linejoin="round"/>
<path d="M26.9333 32.8357H33.4123V35.1182C33.4123 36.4982 32.2936 37.6169 30.9136 37.6169H29.432C28.7687 37.619 28.1319 37.3565 27.6628 36.8874C27.1937 36.4183 26.9312 35.7815 26.9333 35.1182V32.8357Z" fill="#6C709C"/>
<path fill-rule="evenodd" clip-rule="evenodd" d="M26.9333 32.8357H33.4123V35.1182C33.4123 36.4982 32.2936 37.6169 30.9136 37.6169H29.432C28.7687 37.619 28.1319 37.3565 27.6628 36.8874C27.1937 36.4183 26.9312 35.7815 26.9333 35.1182V32.8357Z" stroke="black" stroke-width="1.60174" stroke-linecap="round" stroke-linejoin="round"/>
<path d="M10.5555 21.3993H29.8885C33.4959 21.4037 36.4192 24.327 36.4236 27.9344V31.9387C36.4236 32.4145 36.2346 32.8708 35.8982 33.2073C35.5618 33.5437 35.1055 33.7327 34.6297 33.7327H5.79833C4.80756 33.7327 4.00438 32.9295 4.00438 31.9387V27.9344C4.00009 26.1971 4.68944 24.5299 5.91941 23.303C7.14937 22.076 8.81821 21.3907 10.5555 21.3993Z" fill="#6C709C"/>
<mask id="mask0_11377_17438" style="mask-type:luminance" maskUnits="userSpaceOnUse" x="4" y="21" width="33" height="13">
<path fill-rule="evenodd" clip-rule="evenodd" d="M10.5555 21.3993H29.8885C33.4959 21.4037 36.4192 24.327 36.4236 27.9344V31.9387C36.4236 32.4145 36.2346 32.8708 35.8982 33.2073C35.5618 33.5437 35.1055 33.7327 34.6297 33.7327H5.79833C4.80756 33.7327 4.00438 32.9295 4.00438 31.9387V27.9344C4.00009 26.1971 4.68944 24.5299 5.91941 23.303C7.14937 22.076 8.81821 21.3907 10.5555 21.3993Z" fill="white"/>
</mask>
<g mask="url(#mask0_11377_17438)">
<path d="M28.2467 28.2387C28.3076 29.7901 29.5468 31.0363 31.0978 31.1058C33.2922 31.1058 36.3756 31.1779 38.1375 31.9067C39.2107 32.3552 38.9384 25.6679 37.7771 25.8842C35.831 26.2526 31.1459 26.7731 29.1357 26.9894C28.854 27.0346 28.602 27.1901 28.4352 27.4215C28.2684 27.6529 28.2006 27.9412 28.2467 28.2227V28.2387Z" fill="#ADAEC2"/>
<path fill-rule="evenodd" clip-rule="evenodd" d="M28.2467 28.2387C28.3076 29.7901 29.5468 31.0363 31.0978 31.1058C33.2922 31.1058 36.3756 31.1779 38.1375 31.9067C39.2107 32.3552 38.9384 25.6679 37.7771 25.8842C35.831 26.2526 31.1459 26.7731 29.1357 26.9894C28.854 27.0346 28.602 27.1901 28.4352 27.4215C28.2684 27.6529 28.2006 27.9412 28.2467 28.2227V28.2387Z" stroke="black" stroke-width="1.60174" stroke-linecap="round" stroke-linejoin="round"/>
<path d="M11.5326 28.2387C11.466 29.7724 10.2536 31.009 8.7215 31.1058C6.52711 31.1058 3.43575 31.1779 1.67383 31.9067C0.600667 32.3552 0.913006 25.6679 2.04223 25.8842C3.91627 26.2526 8.60136 26.7731 10.6436 26.9894C11.2229 27.0953 11.6152 27.6396 11.5326 28.2227V28.2387Z" fill="#ADAEC2"/>
<path fill-rule="evenodd" clip-rule="evenodd" d="M11.5326 28.2387C11.466 29.7724 10.2536 31.009 8.72149 31.1058C6.52711 31.1058 3.43575 31.1779 1.67383 31.9067C0.600667 32.3552 0.913006 25.6679 2.04223 25.8842C3.91627 26.2526 8.60136 26.7731 10.6436 26.9894C11.2229 27.0953 11.6152 27.6396 11.5326 28.2227V28.2387Z" stroke="black" stroke-width="1.60174" stroke-linecap="round" stroke-linejoin="round"/>
</g>
<path fill-rule="evenodd" clip-rule="evenodd" d="M10.5555 21.3993H29.8885C33.4959 21.4037 36.4192 24.327 36.4236 27.9344V31.9387C36.4236 32.4145 36.2346 32.8708 35.8982 33.2073C35.5618 33.5437 35.1055 33.7327 34.6297 33.7327H5.79833C4.80756 33.7327 4.00438 32.9295 4.00438 31.9387V27.9344C4.00009 26.1971 4.68944 24.5299 5.91941 23.303C7.14937 22.076 8.81821 21.3907 10.5555 21.3993V21.3993Z" stroke="black" stroke-width="1.60174" stroke-linecap="round" stroke-linejoin="round"/>
<path d="M19.5813 29.1277H20.8307" stroke="black" stroke-width="1.60174" stroke-linecap="round" stroke-linejoin="round"/>
</svg>
