<svg width="72" height="73" viewBox="0 0 72 73" fill="none" xmlns="http://www.w3.org/2000/svg">
<path d="M48.9197 8.94804L49.1567 7.82362L48.7908 6.5914L48.7783 6.18152" fill="#F7F7F7"/>
<path d="M48.9197 8.94804L49.1567 7.82362L48.7908 6.5914L48.7783 6.18152" stroke="#DCDCDC" stroke-width="2" stroke-linecap="round" stroke-linejoin="round"/>
<path d="M49.3921 26.261L49.5993 24.3675L49.7654 22.9864L49.4523 21.4181L49.6334 19.7021L49.2799 16.8095L49.4362 15.9337L48.6957 13.804L49.141 11.6444L49.0534 10.8455" fill="#F7F7F7"/>
<path d="M49.3921 26.261L49.5993 24.3675L49.7654 22.9864L49.4523 21.4181L49.6334 19.7021L49.2799 16.8095L49.4362 15.9337L48.6957 13.804L49.141 11.6444L49.0534 10.8455" stroke="#DCDCDC" stroke-width="2" stroke-linecap="round" stroke-linejoin="round"/>
<path d="M28.8675 19.9848L28.7974 19.4124L29.0815 18.0125L28.7428 16.4463L29.174 14.8964L28.6649 13.0936L29.2204 11.3482L29.1543 9.29761L29.0161 8.22873L29.2272 7.12817L29.3523 5.63125" fill="#F7F7F7"/>
<path d="M28.8675 19.9848L28.7974 19.4124L29.0815 18.0125L28.7428 16.4463L29.174 14.8964L28.6649 13.0936L29.2204 11.3482L29.1543 9.29761L29.0161 8.22873L29.2272 7.12817L29.3523 5.63125" stroke="#DCDCDC" stroke-width="2" stroke-linecap="round" stroke-linejoin="round"/>
<path d="M28.3927 23.3882L28.7162 21.8451" stroke="#DCDCDC" stroke-width="2" stroke-linecap="round" stroke-linejoin="round"/>
<path d="M39.9941 4.60329L39.7446 5.85335L39.9411 7.46701L39.4275 9.22848L39.7777 11.0224L39.0564 13.0315L39.5209 15.0678L39.2719 17.3969L39.5709 18.6722L39.2162 19.8315L39.1758 21.5912" fill="#F7F7F7"/>
<path d="M39.9941 4.60329L39.7446 5.85335L39.9411 7.46701L39.4275 9.22848L39.7777 11.0224L39.0564 13.0315L39.5209 15.0678L39.2719 17.3969L39.5709 18.6722L39.2162 19.8315L39.1758 21.5912" stroke="#DCDCDC" stroke-width="2" stroke-linecap="round" stroke-linejoin="round"/>
<path d="M39.641 1.28894L39.7317 2.01041" stroke="#DCDCDC" stroke-width="2" stroke-linecap="round" stroke-linejoin="round"/>
<path d="M36.5926 72.4679C35.6118 72.4798 34.6236 72.4438 33.6342 72.3717L33.4893 72.3581C22.9912 71.5474 13.8879 66.3482 7.81577 58.709C7.13346 57.851 6.49233 56.9617 5.89856 56.0469C8.86289 53.976 15.7712 48.9977 17.2098 46.6363C16.1648 35.882 22.1955 27.5958 29.8521 29.1796C29.8521 29.1796 31.0658 30.0935 31.231 29.7875C31.4532 29.3774 31.6689 29.1481 31.6689 29.1481C35.4154 26.4755 40.3418 27.3541 42.5388 30.8985L42.7677 31.692C43.3562 31.2527 42.7251 32.4638 43.5069 32.4399C48.5356 31.9371 54.2179 37.6561 53.97 45.1033C53.6957 53.6529 47.5103 62.1965 36.5926 72.4679Z" fill="white"/>
<path opacity="0.06" d="M42.6404 72.0303C41.6936 72.1676 40.7272 72.2573 39.754 72.3172L37.9831 72.4736C27.6836 73.0412 18.1532 69.0349 11.2756 62.4134C10.5064 61.6665 9.46284 60.6089 8.76396 59.7996C11.3754 57.4084 18.9966 51.3369 20.0886 48.8597C18.2111 37.6493 24.6866 30.7219 30.4642 31.4843C30.4642 31.4843 31.7626 32.2151 31.8793 31.8985C32.041 31.4783 32.2197 31.22 32.2197 31.22C35.5085 28.146 40.4087 28.3634 43.0029 31.5103L43.3264 32.2468C43.8407 31.7436 43.3856 33.0034 44.1402 32.878C48.9569 31.7437 55.2134 36.5543 55.9406 43.8032C56.7789 52.1262 51.9174 60.6594 42.6402 72.0243L42.6404 72.0303Z" fill="#333333"/>
<path d="M27.0701 28.5507C27.0701 28.5507 27.8108 26.9872 28.5421 27.0852C28.5964 27.0896 29.235 28.6832 29.2722 28.7182" fill="#DCDCDC"/>
<path d="M14.5189 49.9708C11.8992 52.29 8.40729 54.8225 7.05212 55.7788" stroke="#333333" stroke-width="1.8" stroke-linecap="round" stroke-linejoin="round"/>
<path d="M16.2211 48.3529C16.1278 48.4521 16.0285 48.5514 15.9292 48.6507" stroke="#333333" stroke-width="1.8" stroke-linecap="round" stroke-linejoin="round"/>
<path d="M29.8523 29.1833C22.1959 27.6056 16.1709 35.8795 17.21 46.6401" stroke="#333333" stroke-width="1.8" stroke-linecap="round" stroke-linejoin="round"/>
<path d="M48.5095 33.6469L46.0641 32.8068C46.0641 32.8068 47.2742 30.4524 48.3235 30.5166C49.3728 30.5809 48.5155 33.6468 48.5155 33.6468L48.5095 33.6469Z" fill="#DCDCDC"/>
<path d="M48.0111 30.4004C48.3272 30.1078 48.6764 29.9166 48.9821 30.0698C49.581 30.3644 48.9821 34 48.9821 34" fill="#DCDCDC"/>
<path d="M48.0111 30.4004C48.3272 30.1078 48.6764 29.9166 48.9821 30.0698C49.581 30.3644 48.9821 34 48.9821 34" stroke="#333333" stroke-width="1.8" stroke-linecap="round" stroke-linejoin="round"/>
<path d="M46.3925 32.1212C46.3925 32.1212 46.4267 32.06 46.4839 31.9619L46.3925 32.1212Z" fill="#DCDCDC"/>
<path d="M46.3925 32.1212C46.3925 32.1212 46.4267 32.06 46.4839 31.9619" stroke="#333333" stroke-width="1.8" stroke-linecap="round" stroke-linejoin="round"/>
<path d="M37.5817 27.2457C37.5817 27.2457 38.5449 25.4768 39.3923 25.6314C39.6345 25.6782 39.7916 27.2745 39.7877 27.7381" fill="#DCDCDC"/>
<path d="M30.8221 30.983C31.0048 29.8699 31.6692 29.1574 31.6692 29.1574C35.4155 26.4787 40.3359 27.3576 42.5389 30.9017" stroke="#333333" stroke-width="1.8" stroke-linecap="round" stroke-linejoin="round"/>
<path d="M37.4479 71.6988C48.3425 61.4583 53.6962 53.6684 53.9702 45.1068C54.212 37.6598 48.5297 31.9407 43.501 32.4435C42.7193 32.4674 41.8259 32.7776 41.2374 33.217" stroke="#333333" stroke-width="1.8" stroke-linecap="round" stroke-linejoin="round"/>
<path d="M37.0503 26.7085C37.0503 26.7085 37.94 24.8997 38.7923 25.0181C39.0341 25.0528 39.1235 25.4172 39.1377 25.8803" stroke="#333333" stroke-width="1.8" stroke-linecap="round" stroke-linejoin="round"/>
<path d="M26.5 28.5C26.5 28.5 27.7843 25.9153 28.5156 26.0133C28.5699 26.0177 28.7017 26.1942 28.739 26.2352" stroke="#333333" stroke-width="1.8" stroke-linecap="round" stroke-linejoin="round"/>
<path opacity="0.03" d="M41.8567 33.1969C41.8567 33.1969 52.2759 32.8061 51.2964 43.8872C51.2885 57.2139 35.5758 67.7582 32.243 71.7545C32.617 72.7663 36.2557 72.4745 36.2557 72.4745C47.7987 61.7867 53.6916 53.9142 53.9759 45.0994C53.9759 45.0994 53.2719 29.1582 41.8625 33.1907L41.8567 33.1969Z" fill="#333333"/>
</svg>
