<svg width="40" height="40" viewBox="0 0 40 40" fill="none" xmlns="http://www.w3.org/2000/svg">
<path fill-rule="evenodd" clip-rule="evenodd" d="M23.0384 6.55351C23.8878 6.72817 24.6902 6.98569 25.5206 7.30103C26.1715 7.54841 26.8928 7.52099 27.5235 7.22711C30.0659 6.04383 33.7469 3.54077 35.8684 5.56397C38.3691 7.94781 35.8368 13.1328 35.6055 16.5097C35.602 16.8376 35.6258 17.1649 35.6973 17.485C35.9459 18.5913 36.263 20.2873 36.263 21.2387C36.263 29.2194 29.1896 35.2 20.4655 35.2C20.3368 35.2 20.2098 35.1941 20.0816 35.1911C19.9535 35.1941 19.8265 35.2 19.6978 35.2C10.9737 35.2 3.90079 29.2194 3.90079 21.2387C3.90079 20.2873 4.21793 18.5913 4.46591 17.485C4.53804 17.1649 4.56188 16.8376 4.5583 16.5097C4.32642 13.1328 1.79474 7.94781 4.29482 5.56397C6.41638 3.54077 10.0974 6.04383 12.6398 7.22711C13.2705 7.52099 13.9918 7.54841 14.6427 7.30103C16.2505 6.69002 17.7515 6.29837 19.6978 6.29837C19.8265 6.29837 19.9535 6.30433 20.0816 6.30731C20.2098 6.30433 20.3368 6.29837 20.4655 6.29837C20.7874 6.29837 21.0968 6.3091 21.3967 6.32997" fill="#9497B2"/>
<path opacity="0.05" fill-rule="evenodd" clip-rule="evenodd" d="M34.6537 5.28555C34.6537 7.62766 33.6341 12.5355 32.781 15.246C32.4735 16.22 32.3876 17.2477 32.5235 18.2593C33.1333 22.7981 33.2287 32.0932 18.9513 34.4949V34.793C31.077 35.6871 37.995 27.5491 35.5478 16.3136C36.932 10.6547 37.7785 7.40094 35.8459 5.56391L34.6537 5.28555Z" fill="black"/>
<path fill-rule="evenodd" clip-rule="evenodd" d="M14.6111 10.4307C14.6111 10.4307 13.0398 10.0784 10.988 12.6292C8.93564 15.1793 7.95146 15.9322 7.63314 17.959C7.31422 19.9858 9.1097 22.2444 10.8181 23.1708C12.5265 24.0977 15.885 23.5183 17.5064 20.4639C19.1279 17.4088 17.7961 12.8158 16.4931 11.493C15.364 10.4099 14.6111 10.4307 14.6111 10.4307Z" fill="#ADAEC2"/>
<path d="M21.7342 6.33009C21.4343 6.30922 21.125 6.29849 20.8031 6.29849C20.5471 6.29849 20.2913 6.29849 20.0353 6.29849C18.089 6.29849 16.588 6.69014 14.9803 7.30115C14.3293 7.54853 13.608 7.52111 12.9773 7.22723C10.4349 6.04395 6.7539 3.54089 4.63234 5.56409C2.13226 7.94793 4.66394 13.1329 4.89582 16.5098C4.8994 16.8377 4.87556 17.165 4.80343 17.4851C4.55545 18.5915 4.23831 20.2874 4.23831 21.2388C4.23831 29.2195 11.3112 35.2001 20.0353 35.2001C20.164 35.2001 20.291 35.1942 20.4192 35.1912C20.5473 35.1942 20.6743 35.2001 20.8031 35.2001C29.5271 35.2001 36.6006 29.2195 36.6006 21.2388C36.6006 20.2874 36.2834 18.5915 36.0348 17.4851C35.9633 17.165 35.9395 16.8377 35.943 16.5098C36.1743 13.1329 38.7066 7.94793 36.2059 5.56409C34.0844 3.54089 30.4034 6.04395 27.861 7.22723C27.2303 7.52111 26.509 7.54853 25.8581 7.30115C25.155 7.03414 24.472 6.80859 23.7634 6.63969" stroke="black" stroke-width="1.5" stroke-linecap="round" stroke-linejoin="round"/>
<path d="M20.7085 22V23.2518C20.7085 23.9522 20.9322 24.4798 21.4758 25.0415C22.4035 26 24.4035 26 25.2035 24.4" stroke="black" stroke-width="1.5" stroke-linecap="round" stroke-linejoin="round"/>
<path d="M16.1635 24.4C16.9635 26 18.9635 26 19.8912 25.0415C20.257 24.6635 20.5003 24.2786 20.6203 23.8539" stroke="black" stroke-width="1.5" stroke-linecap="round" stroke-linejoin="round"/>
<path fill-rule="evenodd" clip-rule="evenodd" d="M18.7513 20.4742C18.7513 20.8349 19.4982 21.9371 20.4192 21.9371C21.3408 21.9371 22.0877 20.8349 22.0877 20.4742C22.0877 20.1142 21.3408 19.8215 20.4192 19.8215C19.4982 19.8215 18.7513 20.1142 18.7513 20.4742Z" fill="#6C709C"/>
<path fill-rule="evenodd" clip-rule="evenodd" d="M18.7822 20.6113C18.7822 21.0477 19.6287 22.3815 20.6725 22.3815C21.7169 22.3815 22.5635 21.0477 22.5635 20.6113C22.5635 20.1756 21.7169 19.8215 20.6725 19.8215C19.6287 19.8215 18.7822 20.1756 18.7822 20.6113Z" fill="#5A5E8C" stroke="black" stroke-width="1.5" stroke-linecap="round" stroke-linejoin="round"/>
<path d="M26.9042 19.8902V20.3577" stroke="black" stroke-width="1.5" stroke-linecap="round"/>
<path d="M13.7898 19.8902V20.3577" stroke="black" stroke-width="1.5" stroke-linecap="round"/>
</svg>
