<svg width="32" height="32" viewBox="0 0 32 32" fill="none" xmlns="http://www.w3.org/2000/svg">
<g clip-path="url(#clip0_978_4945)">
<path d="M29.9206 21.6109C27.0439 28.7636 19.1976 32.564 11.7925 30.3913C4.38744 28.2185 -0.153775 20.7835 1.30049 13.2134C2.75475 5.64323 9.72872 0.414692 17.4132 1.13333C25.0976 1.85197 30.9784 8.28266 31.0002 15.9908C30.9977 17.1288 30.8688 18.2631 30.6158 19.3727" fill="#6C709C"/>
<path d="M4.69568 11.8155C4.31984 12.9008 4.08081 14.0286 3.9841 15.1728C3.58435 21.0491 7.49691 26.3528 13.2349 27.7127C18.9729 29.0727 24.8543 26.0903 27.1409 20.6612C29.4275 15.2321 27.4489 8.94778 22.4629 5.80257C17.4768 2.65736 10.9447 3.57325 7.01854 7.96809C6.03777 9.11433 5.25295 10.4142 4.69568 11.8155Z" fill="#ADAEC2"/>
<path d="M10.6992 29.9826C3.52161 27.2761 -0.451869 19.5945 1.49145 12.182C3.43476 4.76956 10.6677 0.0184387 18.2524 1.17224C25.837 2.32604 31.3256 9.01241 30.9711 16.6665C30.6165 24.3207 24.5333 30.4724 16.8744 30.922C15.7368 30.9911 14.5949 30.928 13.4719 30.7341" stroke="black" stroke-width="1.49246" stroke-linecap="round" stroke-linejoin="round"/>
<path d="M16.0156 6.26898C18.5926 6.27114 21.0628 7.29728 22.8811 9.12097C24.6995 10.9447 25.7165 13.416 25.7078 15.9897H16.0156V6.26898Z" fill="#9497B2"/>
<path d="M16.0156 6.89801V15.9897H20.8658" stroke="black" stroke-width="1.49246" stroke-linecap="round" stroke-linejoin="round"/>
</g>
<defs>
<clipPath id="clip0_978_4945">
<rect width="32" height="32" fill="white"/>
</clipPath>
</defs>
</svg>
