<svg width="40" height="40" viewBox="0 0 40 40" fill="none" xmlns="http://www.w3.org/2000/svg">
<path d="M5.1604 26.49C5.19843 28.0128 5.47166 29.5206 5.9704 30.96H8.2204C9.5704 30.96 11.4704 28.96 11.4704 26.46C11.4704 23.96 9.5704 20.99 8.2204 20.99C8.1304 20.99 6.0804 21.99 6.0804 21.99C5.51272 23.4246 5.20132 24.9477 5.1604 26.49Z" fill="#ECECEC"/>
<path d="M7.86033 21.98C9.22033 21.98 11.2303 23.98 11.2303 26.48C11.2303 28.98 10.1403 30.98 8.78033 30.98H5.34033" stroke="#333333" stroke-width="1.5" stroke-linecap="round" stroke-linejoin="round"/>
<path d="M29.1304 26.39C29.1304 28.66 31.2704 30.95 31.2704 30.95H33.5204C34.8704 30.95 36.7704 28.95 36.7704 26.45C36.7704 23.95 34.8704 20.98 33.5204 20.98C33.4304 20.98 31.3804 21.98 31.3804 21.98C31.3804 21.98 29.1304 24.06 29.1304 26.39Z" fill="#ECECEC"/>
<path d="M34.1404 21.98C35.4904 21.98 37.3004 23.98 37.3004 26.48C37.3004 28.98 36.2004 30.98 34.8404 30.98H31.6204" stroke="#333333" stroke-width="1.5" stroke-linecap="round" stroke-linejoin="round"/>
<path d="M29.2004 24.79C29.0847 25.3492 29.0277 25.919 29.0304 26.49C29.0304 28.98 30.1204 30.99 31.4804 30.99" stroke="#333333" stroke-width="1.5" stroke-linecap="round"/>
<path d="M29.2003 24.82C29.0853 25.3692 29.0283 25.9289 29.0303 26.49C29.0303 28.98 30.1203 30.99 31.4803 30.99C32.2103 30.99 32.8603 30.4 33.3103 29.47" stroke="#333333" stroke-width="1.5" stroke-linecap="round" stroke-linejoin="round"/>
<path opacity="0.05" d="M16.7703 15.1H20.8603L12.7303 10L11.1003 10.04L14.5903 15.02L16.7703 15.1Z" fill="#333333"/>
<path opacity="0.05" d="M23.4604 15.1H26.3804L20.4704 10H17.2004L23.4604 15.1Z" fill="#333333"/>
<path d="M16.4004 26.49C16.4384 28.0128 16.7117 29.5206 17.2104 30.96H19.4604C20.8104 30.96 22.7104 28.96 22.7104 26.46C22.7104 23.96 20.8104 20.99 19.4604 20.99C19.3704 20.99 17.3204 21.99 17.3204 21.99C16.7527 23.4246 16.4413 24.9477 16.4004 26.49H16.4004Z" fill="#ECECEC"/>
<path d="M19.5603 21.98C20.9103 21.98 22.9603 23.98 22.9603 26.48C22.9603 28.98 21.8603 30.98 20.5103 30.98H17.0403" stroke="#333333" stroke-width="1.5" stroke-linecap="round" stroke-linejoin="round"/>
<ellipse cx="31.7704" cy="25.54" rx="0.64" ry="1.39" fill="#ECECEC"/>
<ellipse cx="31.7704" cy="25.54" rx="0.64" ry="1.39" stroke="#333333" stroke-width="1.5" stroke-linecap="round" stroke-linejoin="round"/>
<path d="M38.4403 27.71L4 27.17C2.99705 26.574 2.26273 25.614 1.95 24.49C1.7367 23.4388 1.53961 22.5718 1.5 21.4999L3.4403 16.87C4.62528 16.2804 5.91859 15.94 7.2403 15.87L11.4403 16.33L9.8603 11.33C9.75599 11.1103 9.7732 10.8522 9.90574 10.6483C10.0383 10.4444 10.2672 10.3239 10.5103 10.33H23.4203L29.0403 15.05C29.0403 15.05 34.3003 16.05 36.2903 17.51C37.2903 18.51 37.9303 21.63 38.3503 23.24C38.4203 27.19 38.4403 27.71 38.4403 27.71Z" fill="#F7F7F7"/>
<path d="M2.68006 26.59C2.3112 25.9479 2.07965 25.2362 2.00006 24.5C1.77426 23.6997 0.993461 23.0115 1.00037 22.18C1.21037 20.64 2.53037 19.49 2.88037 18.33C3.23037 17.17 3.13037 16.85 5.54037 16.54C6.16037 16.46 6.94037 15.86 7.54037 15.86L11.3504 16.62L9.93037 11.12C9.78037 10.76 10.2304 10.36 10.6204 10.36H21.1604C22.4819 10.3622 23.7642 10.8096 24.8004 11.63L29.0404 15.08C29.0404 15.08 34.3004 16.08 36.2904 17.54C37.2904 18.54 37.9304 21.66 38.3504 23.27C38.4204 27.19 38.4404 27.71 38.4404 27.71H18.8604" fill="#F7F7F7"/>
<path opacity="0.05" d="M11.2205 18.68C12.3605 18.81 13.6805 18.95 14.4005 19.09C16.2425 19.4453 17.721 20.8191 18.2105 22.63C18.663 24.2596 18.7213 25.9735 18.3805 27.63L4.72049 27.13C4.72049 27.13 2.31049 26.39 2.26049 24.49C2.2352 23.4026 2.14839 22.3176 2.00049 21.24L3.34049 18.82C5.94457 18.371 8.6021 18.3238 11.2205 18.68Z" fill="#333333"/>
<path d="M12.9805 10.74L15.3505 15.27C15.3505 15.27 19.0405 15.49 19.7205 17.35C21.0267 19.6105 21.4741 22.2663 20.9805 24.83C20.8679 25.4955 21.0561 26.1767 21.4942 26.6902C21.9324 27.2036 22.5755 27.4965 23.2505 27.49L38.4405 27.67L38.2605 21.67L36.2605 17.51L28.8805 15.05L24.4505 11.03L22.2405 10.39L12.9805 10.74Z" fill="white"/>
<path d="M35.7204 27.49L34.6504 25.59C34.2935 24.9718 33.6342 24.5907 32.9204 24.59H28.3304C27.8022 24.5896 27.2954 24.7981 26.9204 25.17L24.3904 27.71" fill="#ECECEC"/>
<path d="M35.1504 27.49L34.5404 25.71C34.4305 25.3748 34.2338 25.0747 33.9704 24.84C33.6159 24.5555 33.175 24.4003 32.7204 24.4H28.1204C27.5923 24.3996 27.0854 24.6081 26.7104 24.98L26.2004 25.71" stroke="#333333" stroke-width="1.5" stroke-linecap="round" stroke-linejoin="round"/>
<path d="M12.5803 16.49L10.6603 11.12C10.4503 10.61 10.9603 10.36 11.3503 10.36H21.1603C22.4819 10.3622 23.7641 10.8096 24.8003 11.63L29.0703 15.49H15.7203L13.9903 12.28" stroke="#333333" stroke-width="1.5" stroke-linecap="round" stroke-linejoin="round"/>
<path d="M2.80036 25.22C3.18036 25.17 2.03036 24.9 1.80036 23.41C1.52036 21.41 2.51036 20.17 2.92036 18.91C3.50036 17.1 3.98036 16.99 4.42036 16.75C6.45309 16.4952 8.50335 16.4082 10.5504 16.49" stroke="#333333" stroke-width="1.5" stroke-linecap="round" stroke-linejoin="round"/>
<path d="M14.5004 25.61C14.4849 25.8998 14.4849 26.1902 14.5004 26.48C14.5004 28.97 15.6004 30.98 16.9504 30.98C18.3004 30.98 19.4004 28.98 19.4004 26.48C19.4004 23.98 18.3004 21.98 16.9504 21.98C16.2122 22.0561 15.5712 22.5216 15.2704 23.2" fill="#ECECEC"/>
<path d="M14.5004 25.61C14.4849 25.8998 14.4849 26.1902 14.5004 26.48C14.5004 28.97 15.6004 30.98 16.9504 30.98C18.3004 30.98 19.4004 28.98 19.4004 26.48C19.4004 23.98 18.3004 21.98 16.9504 21.98C16.2122 22.0561 15.5712 22.5216 15.2704 23.2" stroke="#333333" stroke-width="1.5" stroke-linecap="round"/>
<path d="M14.4905 25.62C14.4905 25.9 14.4905 26.19 14.4905 26.48C14.4905 28.97 15.5905 30.98 16.9405 30.98C18.2905 30.98 19.3905 28.98 19.3905 26.48C19.4059 26.1935 19.4059 25.9065 19.3905 25.62" stroke="#333333" stroke-width="1.5" stroke-linecap="round" stroke-linejoin="round"/>
<path d="M3.95041 22.61L3.89041 22.67L3.95041 22.61Z" fill="#ECECEC"/>
<path d="M3.95041 22.61L3.89041 22.67" stroke="#333333" stroke-width="1.5" stroke-linecap="round"/>
<path d="M2.93046 24.79C2.7962 25.3469 2.72574 25.9172 2.72046 26.49C2.72046 28.98 3.82046 30.99 5.17046 30.99C6.52046 30.99 7.62046 28.99 7.62046 26.49C7.62046 24.35 6.81046 22.55 5.72046 22.1" fill="#ECECEC"/>
<path d="M2.93046 24.79C2.7962 25.3469 2.72574 25.9172 2.72046 26.49C2.72046 28.98 3.82046 30.99 5.17046 30.99C6.52046 30.99 7.62046 28.99 7.62046 26.49C7.62046 24.35 6.81046 22.55 5.72046 22.1" stroke="#333333" stroke-width="1.5" stroke-linecap="round"/>
<ellipse cx="16.8104" cy="26.59" rx="0.92" ry="2.42" fill="#ECECEC"/>
<ellipse cx="5.10042" cy="26.56" rx="0.92" ry="2.42" fill="#ECECEC"/>
<path d="M2.92046 24.82C2.7953 25.3681 2.72826 25.9279 2.72046 26.49C2.72046 28.98 3.82046 30.99 5.17046 30.99C6.52046 30.99 7.62046 28.99 7.62046 26.49C7.63588 26.2035 7.63588 25.9165 7.62046 25.63" stroke="#333333" stroke-width="1.5" stroke-linecap="round" stroke-linejoin="round"/>
<path d="M37.6403 20.68C36.8825 20.8756 36.0921 20.9097 35.3203 20.78C35.4156 20.0226 35.7049 19.3026 36.1603 18.69L36.6803 18.27L37.6403 20.68Z" fill="#ECECEC"/>
<path d="M38.3603 25.49C38.3603 26.49 38.4203 26.92 38.4303 27.27C38.4359 27.3945 38.3896 27.5158 38.3024 27.6049C38.2152 27.694 38.095 27.7429 37.9703 27.74H21.1003" stroke="#333333" stroke-width="1.5" stroke-linecap="round" stroke-linejoin="round"/>
<path d="M31.1504 16.03C32.5747 16.3154 33.9805 16.6861 35.3604 17.14C36.0872 17.4213 36.6923 17.9485 37.0704 18.63C37.5511 19.5866 37.9266 20.5925 38.1904 21.63C38.2738 22.0721 38.3207 22.5202 38.3304 22.97" stroke="#333333" stroke-width="1.5" stroke-linecap="round" stroke-linejoin="round"/>
<path d="M25.1705 21.28C25.1705 21.28 24.9705 18.83 23.8505 18.44C22.6744 18.1012 21.4629 17.8999 20.2405 17.84C20.0305 17.84 18.9105 18.58 18.9205 18.84C18.9305 19.1 20.0505 19.69 20.6905 20.07C22.0674 20.8211 23.6026 21.2358 25.1705 21.28Z" fill="#ECECEC"/>
<path d="M21.9003 18.35L20.1703 18.25C20.0677 18.2468 19.9686 18.2875 19.8979 18.362C19.8272 18.4365 19.7917 18.5377 19.8003 18.64C19.8565 19.3185 20.1892 19.9441 20.7203 20.37C22.3866 21.1824 24.2073 21.6291 26.0603 21.68C26.0603 21.68 25.9203 19.16 24.8003 18.77C24.562 18.6912 24.318 18.631 24.0703 18.59" stroke="#333333" stroke-width="1.5" stroke-linecap="round" stroke-linejoin="round"/>
<path d="M37.6504 21.4C36.8961 21.5957 36.1089 21.6298 35.3404 21.5C35.318 20.9231 35.365 20.3456 35.4804 19.78" stroke="#333333" stroke-width="1.5" stroke-linecap="round" stroke-linejoin="round"/>
<path d="M13.8504 27.71H8.11035" stroke="#333333" stroke-width="1.5" stroke-linecap="round" stroke-linejoin="round"/>
<path d="M31.1703 20.25H30.0403" stroke="#333333" stroke-width="1.5" stroke-linecap="round" stroke-linejoin="round"/>
<path opacity="0.05" d="M16.8304 15.59H20.9204L15.4104 10.52L12.9004 10.58L14.9904 15.15L16.8304 15.59Z" fill="#333333"/>
<path opacity="0.05" d="M24.5104 15.47L28.2904 15.32L22.3804 10.22H19.1104L24.5104 15.47Z" fill="#333333"/>
</svg>
