<svg width="40" height="40" viewBox="0 0 40 40" fill="none" xmlns="http://www.w3.org/2000/svg">
<rect x="11.7096" y="4" width="5.81" height="11.59" rx="2.81" transform="rotate(13.52 11.7096 4)" fill="#9497B2"/>
<rect x="27.0786" y="7.69073" width="5.81" height="11.59" rx="2.81" transform="rotate(13.52 27.0786 7.69073)" fill="#9497B2"/>
<path d="M29.9924 8.39394H29.8124C29.3882 8.2939 28.9466 8.2939 28.5224 8.39394C29.3309 9.08039 29.6896 10.1602 29.4524 11.1939L28.0524 17.0039C27.7976 18.0341 26.9861 18.834 25.9524 19.0739C26.2832 19.3595 26.6775 19.5618 27.1024 19.6639L27.2824 19.7139C28.0078 19.8883 28.7728 19.767 29.4087 19.3769C30.0446 18.9867 30.4992 18.3596 30.6724 17.6339L32.0724 11.8239C32.256 11.093 32.1394 10.319 31.7487 9.67458C31.3579 9.03017 30.7254 8.56899 29.9924 8.39394Z" fill="#ADAEC2"/>
<path d="M14.6224 4.70393H14.4424C14.0182 4.6039 13.5766 4.6039 13.1524 4.70393C13.9709 5.38361 14.3316 6.46962 14.0824 7.50393L12.6824 13.2639C12.4383 14.3001 11.622 15.1048 10.5824 15.3339C10.9139 15.6206 11.3076 15.826 11.7324 15.9339H11.9124C12.6378 16.1083 13.4028 15.987 14.0387 15.5969C14.6746 15.2067 15.1292 14.5796 15.3024 13.8539L16.7024 8.05393C17.0405 6.55658 16.1144 5.06503 14.6224 4.70393Z" fill="#ADAEC2"/>
<path d="M13.5724 31.4339L19.2524 10.5339L23.6624 11.5939L18.7224 32.0939C18.4726 33.0106 18.0848 33.8839 17.5724 34.6839C17.0301 35.4831 16.1178 35.9506 15.1524 35.9239C14.294 35.612 13.6484 34.8914 13.4324 34.0039C13.3067 33.1465 13.3543 32.2726 13.5724 31.4339Z" fill="#6C709C"/>
<path d="M14.8724 27.1239L19.2524 10.5439L22.3924 11.2939L21.6824 14.5339" stroke="black" stroke-width="1.5" stroke-linecap="round" stroke-linejoin="round"/>
<path d="M13.9924 29.6839L14.0124 29.5839" stroke="black" stroke-width="1.5" stroke-linecap="round" stroke-linejoin="round"/>
<path d="M21.2324 20.2639L18.7224 32.0939C18.5394 33.033 18.1462 33.9184 17.5724 34.6839C17.0589 35.4581 16.1144 35.8263 15.2124 35.6039C14.3909 35.4652 13.7415 34.8317 13.5824 34.0139C13.4919 33.6607 13.4416 33.2984 13.4324 32.9339L13.5024 32.0039" stroke="black" stroke-width="1.5" stroke-linecap="round" stroke-linejoin="round"/>
<rect x="15.9021" y="6.99622" width="11.03" height="8.52" transform="rotate(13.52 15.9021 6.99622)" fill="#9497B2"/>
<path d="M26.6225 9.57394L24.6325 17.8539L14.9125 15.5239" stroke="black" stroke-width="1.5" stroke-linecap="round" stroke-linejoin="round"/>
<path d="M19.8424 7.88394L26.3724 9.45394" stroke="black" stroke-width="1.5" stroke-linecap="round" stroke-linejoin="round"/>
<path d="M30.2024 18.6039C29.5315 19.5136 28.3822 19.9347 27.2824 19.6739L27.1024 19.6239C25.6057 19.2629 24.6781 17.7646 25.0224 16.2639L26.4224 10.4539C26.5903 9.71355 27.0507 9.07261 27.6987 8.67704C28.3467 8.28147 29.1271 8.16492 29.8624 8.35393H30.0424C30.7681 8.52709 31.3952 8.98173 31.7853 9.61764C32.1755 10.2536 32.2968 11.0185 32.1224 11.7439L31.2524 15.3539" stroke="black" stroke-width="1.5" stroke-linecap="round" stroke-linejoin="round"/>
<path d="M11.0525 6.73394C11.2256 6.00824 11.6803 5.3812 12.3162 4.99102C12.9521 4.60085 13.717 4.47958 14.4425 4.65394H14.6225C15.3482 4.8271 15.9752 5.28174 16.3654 5.91765C16.7555 6.55356 16.8768 7.31853 16.7025 8.04394L15.3025 13.8439C15.1293 14.5696 14.6747 15.1967 14.0387 15.5869C13.4028 15.977 12.6379 16.0983 11.9125 15.9239H11.7325C10.2246 15.5585 9.29521 14.0437 9.65245 12.5339L10.3525 9.62394" stroke="black" stroke-width="1.5" stroke-linecap="round" stroke-linejoin="round"/>
</svg>
