<svg width="46" height="40" viewBox="0 0 46 40" fill="none" xmlns="http://www.w3.org/2000/svg">
<g filter="url(#filter0_d_14689_32384)">
<path d="M37.4663 8.4445H8.31013C7.08179 8.4445 6.09229 9.46812 6.09229 10.7306V29.0875C6.09229 30.35 7.08179 31.3736 8.31013 31.3736H37.4663C38.6947 31.3736 39.6842 30.35 39.6842 29.0875V10.7306C39.6842 9.46812 38.6947 8.4445 37.4663 8.4445Z" fill="#ADAEC2"/>
</g>
<path d="M39.2762 13.091H6.09229V19.7266H39.2762V13.091Z" fill="#ECECEC"/>
<path d="M33.1762 28.0375C34.6586 28.0375 35.8602 26.8087 35.8602 25.2929C35.8602 23.777 34.6586 22.5482 33.1762 22.5482C31.6939 22.5482 30.4922 23.777 30.4922 25.2929C30.4922 26.8087 31.6939 28.0375 33.1762 28.0375Z" fill="#ECECEC"/>
<path d="M14.8613 27.6887H15.3817" stroke="#6C709C" stroke-width="1.5" stroke-miterlimit="10" stroke-linecap="round"/>
<path d="M9.98206 27.6887H12.5241" stroke="#6C709C" stroke-width="1.5" stroke-miterlimit="10" stroke-linecap="round"/>
<path d="M39.6842 13.6735V10.7306C39.6842 9.46812 38.6947 8.4445 37.4663 8.4445H18.5975M39.6842 13.827V29.0875C39.6842 30.35 38.6947 31.3736 37.4663 31.3736H31.0601M31.299 31.3736H8.31013C7.08179 31.3736 6.09229 30.35 6.09229 29.0875V10.7306C6.09229 9.46812 7.08179 8.4445 8.31013 8.4445H12.507M15.6973 8.4445H16.175" stroke="black" stroke-width="1.5" stroke-miterlimit="10" stroke-linecap="round"/>
<defs>
<filter id="filter0_d_14689_32384" x="0.758952" y="4.00005" width="44.2585" height="33.5958" filterUnits="userSpaceOnUse" color-interpolation-filters="sRGB">
<feFlood flood-opacity="0" result="BackgroundImageFix"/>
<feColorMatrix in="SourceAlpha" type="matrix" values="0 0 0 0 0 0 0 0 0 0 0 0 0 0 0 0 0 0 127 0" result="hardAlpha"/>
<feOffset dy="0.888889"/>
<feGaussianBlur stdDeviation="2.66667"/>
<feComposite in2="hardAlpha" operator="out"/>
<feColorMatrix type="matrix" values="0 0 0 0 0.423529 0 0 0 0 0.439216 0 0 0 0 0.611765 0 0 0 0.25 0"/>
<feBlend mode="normal" in2="BackgroundImageFix" result="effect1_dropShadow_14689_32384"/>
<feBlend mode="normal" in="SourceGraphic" in2="effect1_dropShadow_14689_32384" result="shape"/>
</filter>
</defs>
</svg>
