<svg width="40" height="40" viewBox="0 0 40 40" fill="none" xmlns="http://www.w3.org/2000/svg">
<g clip-path="url(#clip0_14689_32382)">
<path d="M34.4663 8.4445H5.31013C4.08179 8.4445 3.09229 9.46813 3.09229 10.7306V29.0876C3.09229 30.35 4.08179 31.3736 5.31013 31.3736H34.4663C35.6947 31.3736 36.6842 30.35 36.6842 29.0876V10.7306C36.6842 9.46813 35.6947 8.4445 34.4663 8.4445Z" fill="white"/>
<path d="M36.2762 13.091H3.09229V19.7266H36.2762V13.091Z" fill="#ECECEC"/>
<path d="M30.1762 28.0375C31.6586 28.0375 32.8602 26.8087 32.8602 25.2929C32.8602 23.777 31.6586 22.5482 30.1762 22.5482C28.6939 22.5482 27.4922 23.777 27.4922 25.2929C27.4922 26.8087 28.6939 28.0375 30.1762 28.0375Z" fill="#ECECEC"/>
<path d="M11.8613 27.6887H12.3817" stroke="#ECECEC" stroke-width="1.5" stroke-miterlimit="10" stroke-linecap="round"/>
<path d="M6.98206 27.6887H9.52405" stroke="#ECECEC" stroke-width="1.5" stroke-miterlimit="10" stroke-linecap="round"/>
<path d="M36.6842 13.6735V10.7306C36.6842 9.46813 35.6947 8.4445 34.4663 8.4445H15.5975M36.6842 13.8271V29.0876C36.6842 30.35 35.6947 31.3736 34.4663 31.3736H28.0601M28.299 31.3736H5.31013C4.08179 31.3736 3.09229 30.35 3.09229 29.0876V10.7306C3.09229 9.46813 4.08179 8.4445 5.31013 8.4445H9.50698M12.6973 8.4445H13.175" stroke="#333333" stroke-width="1.5" stroke-miterlimit="10" stroke-linecap="round"/>
</g>
<defs>
<clipPath id="clip0_14689_32382">
<rect width="35.5556" height="35.5556" fill="white" transform="translate(2.22223 2.22223)"/>
</clipPath>
</defs>
</svg>
