<svg width="40" height="40" viewBox="0 0 40 40" fill="none" xmlns="http://www.w3.org/2000/svg">
<path d="M31.8861 18.3597V32.6586C31.971 33.8606 31.0397 34.9049 29.7978 35H9.69113C8.44924 34.9049 7.51793 33.8606 7.60285 32.6586V7.28708C7.51793 6.08501 8.44924 5.0408 9.69113 4.94565H29.7978C31.0397 5.0408 31.971 6.08501 31.8861 7.28708V11.9342" fill="#ADAEC2"/>
<path d="M31.8861 18.3597V32.6586C31.971 33.8606 31.0397 34.9049 29.7978 35H9.69113C8.44924 34.9049 7.51793 33.8606 7.60285 32.6586V7.28708C7.51793 6.08501 8.44924 5.0408 9.69113 4.94565H29.7978C31.0397 5.0408 31.971 6.08501 31.8861 7.28708V11.9342" stroke="black" stroke-width="1.59783" stroke-linecap="round"/>
<path d="M31.8861 14.9995V15.2587V14.9995Z" fill="#ADAEC2"/>
<path d="M31.8861 14.9995V15.2587" stroke="black" stroke-width="1.59783" stroke-linecap="round"/>
<path d="M13.3503 11.398H17.3975" stroke="#6C709C" stroke-width="1.59783" stroke-linecap="round"/>
<path d="M13.3503 17.6627H26.1387" stroke="#6C709C" stroke-width="1.59783" stroke-linecap="round"/>
<path d="M13.3503 22.2919H24.0689" stroke="#6C709C" stroke-width="1.59783" stroke-linecap="round"/>
<path d="M23.0895 28.5566H26.1387" stroke="#6C709C" stroke-width="1.59783" stroke-linecap="round"/>
<path d="M13.3503 28.5566H18.9036" stroke="#6C709C" stroke-width="1.59783" stroke-linecap="round"/>
</svg>
