<svg width="40" height="40" viewBox="0 0 40 40" fill="none" xmlns="http://www.w3.org/2000/svg">
<path d="M13.2366 33.9236L4.90996 11.2751C4.42186 9.94744 5.182 8.48777 6.54961 8.12651L23.1258 3.74791C24.307 3.43588 25.5341 4.06105 25.9761 5.20006L34.641 27.5288C35.1545 28.8521 34.4136 30.3295 33.0459 30.7095L16.1316 35.4079C14.9273 35.7424 13.6679 35.0967 13.2366 33.9236Z" fill="#9497B2"/>
<path d="M31.6 19.6L26.3482 5.24511C25.9238 4.08491 24.6879 3.43647 23.492 3.74651L6.55235 8.13828C5.18321 8.49324 4.41638 9.94922 4.8982 11.279L6.89855 16.8M8.8 22L13.2443 34.3072C13.6706 35.4877 14.9345 36.1404 16.1439 35.8045L33.8795 30.8779C34.7976 30.6229 35.2907 29.6268 34.9368 28.7421L34.8 28.4M7.72879 19.1363L7.92223 19.7523" stroke="black" stroke-width="1.5" stroke-linecap="round"/>
<path d="M12.4 8.79999L20 6.79999" stroke="black" stroke-width="1.5" stroke-linecap="round"/>
<path d="M15.6586 29.1654L9.84928 14.9649C9.29575 13.6118 10.0702 12.0824 11.4885 11.7279L22.3827 9.00431C23.7028 8.67428 25.0286 9.50911 25.4153 10.8138C26.7826 15.4266 29.1257 19.8605 30.6197 22.2906C30.9594 22.8431 31.62 23.095 32.2492 22.9377C32.6046 22.8488 32.9801 22.89 33.3078 23.0539L33.5132 23.1566C34.0761 23.438 34.4878 23.9513 34.6404 24.5618L34.6897 24.759C34.7617 25.047 34.7501 25.3496 34.6562 25.6312C34.4956 26.1132 34.1104 26.4868 33.6238 26.6328L19.3116 30.9265C18.7261 31.1022 18.0955 31.0477 17.5487 30.7743L16.8066 30.4033C16.2866 30.1433 15.8787 29.7034 15.6586 29.1654Z" fill="#ADAEC2"/>
<path d="M15.2 15.6L22.4 14" stroke="#6C709C" stroke-width="1.5" stroke-linecap="round"/>
<path d="M16.8 18.8L24 17.2" stroke="#6C709C" stroke-width="1.5" stroke-linecap="round"/>
<path d="M18.4 22L25.6 20.4" stroke="#6C709C" stroke-width="1.5" stroke-linecap="round"/>
<path d="M12 11.6L10.6041 11.949C9.65454 12.1863 9.13878 13.2131 9.51523 14.1166L15.9741 29.6178C16.4443 30.7464 17.6878 31.3411 18.8615 30.9987L33.5412 26.7171C34.8725 26.3288 35.5986 24.8963 35.1247 23.5929L34.915 23.0163C34.6257 22.2208 33.7668 21.7882 32.9554 22.0295L20.3338 25.7818C19.9234 25.9038 19.6786 26.3324 19.6661 26.7604C19.6472 27.406 19.4493 28.1836 18.8 28.4" stroke="black" stroke-width="1.5" stroke-linecap="round"/>
<path d="M15.2 10.8L23.305 8.77373C24.1396 8.56508 24.9883 9.05231 25.2461 9.87304C26.5179 13.9217 28.8371 20.2001 30.965 22.5998" stroke="black" stroke-width="1.5" stroke-linecap="round"/>
</svg>
