<svg width="40" height="40" viewBox="0 0 40 40" fill="none" xmlns="http://www.w3.org/2000/svg">
<mask id="mask0_13252_23217" style="mask-type:alpha" maskUnits="userSpaceOnUse" x="0" y="0" width="40" height="40">
<rect width="40" height="40" fill="white"/>
</mask>
<g mask="url(#mask0_13252_23217)">
<path fill-rule="evenodd" clip-rule="evenodd" d="M23.4002 18.1378C23.4002 18.1378 10.5959 18.8039 11.4252 19.2872C13.0279 20.2218 16.6796 21.0072 16.4195 23.6139C15.7915 29.9125 18.6246 35.2 18.6246 35.2C18.6246 35.2 21.408 33.4252 22.2584 33.0899C23.6711 32.5333 25.8712 31.8474 25.8712 31.8474C25.8712 31.8474 22.9935 27.4976 23.6711 23.9837" fill="#ADAEC2"/>
<mask id="mask1_13252_23217" style="mask-type:luminance" maskUnits="userSpaceOnUse" x="11" y="18" width="15" height="18">
<path fill-rule="evenodd" clip-rule="evenodd" d="M11.425 19.2865C13.0277 20.2211 16.6794 21.0072 16.4193 23.6139C15.792 29.9119 18.6244 35.2 18.6244 35.2C18.6244 35.2 21.4084 33.4245 22.2589 33.0899C23.6709 32.5333 25.871 31.8474 25.871 31.8474C25.871 31.8474 22.9939 27.497 23.6709 23.9837L23.4006 18.1378C23.4006 18.1378 10.5957 18.8039 11.425 19.2865Z" fill="white"/>
</mask>
<g mask="url(#mask1_13252_23217)">
<path fill-rule="evenodd" clip-rule="evenodd" d="M14.8673 25.5702C14.8673 25.5702 17.5608 23.8687 19.1743 23.7322C19.3987 23.7138 19.6072 23.6985 19.7972 23.687C20.6508 23.6353 21.3336 24.3965 21.2137 25.2654C21.1098 26.0222 21.1181 28.7322 21.9354 30.0754C22.7131 31.353 22.3568 32.869 21.0257 33.5084C19.8055 34.0956 18.6592 34.7516 18.6497 35.1519C18.6267 36.0125 28.2595 34.2186 28.2595 34.2186L26.1187 26.0534L24.9164 20.2425L15.7751 16.647L14.3082 22.7027L14.8673 25.5702Z" fill="#9497B2"/>
</g>
<path d="M23.4002 18.1377C23.4002 18.1377 10.5959 18.8039 11.4252 19.2871C13.0279 20.2217 16.6796 21.0071 16.4195 23.6139C15.7915 29.9125 18.6246 35.2 18.6246 35.2C18.6246 35.2 21.408 33.4251 22.2584 33.0898C23.6711 32.5333 25.8712 31.8473 25.8712 31.8473C25.8712 31.8473 22.9935 27.4976 23.6711 23.9836" stroke="black" stroke-width="1.5" stroke-linecap="round" stroke-linejoin="round"/>
<path fill-rule="evenodd" clip-rule="evenodd" d="M21.4491 9.34768C26.4414 9.72572 30.2811 8.20144 33.593 7.99489C35.6764 7.86547 37.4002 9.6709 37.2255 11.8046C37.177 12.402 37.0923 13.0427 37.0527 13.7363C37.5238 14.493 37.6437 15.1235 37.6437 15.1235C37.8547 17.6295 34.5441 22.1584 31.34 23.3671C29.5996 24.0237 26.5402 23.3199 23.6785 22.5492C23.2609 22.437 22.8376 22.3496 22.4098 22.291C21.4281 22.1565 20.0122 22.0245 18.871 22.2935C14.6233 24.5159 10.8901 31.1479 8.83857 32.9616C3.47458 30.7571 6.34655 24.602 2.28818 20.2236C4.81398 17.0437 12.2964 9.70405 15.8652 9.77927C16.4 9.79011 18.1226 9.32473 20.3201 9.30114" fill="#9497B2"/>
<mask id="mask2_13252_23217" style="mask-type:luminance" maskUnits="userSpaceOnUse" x="2" y="7" width="36" height="26">
<path fill-rule="evenodd" clip-rule="evenodd" d="M33.5925 7.99417C30.2813 8.20136 26.4416 9.72564 21.4492 9.3476L20.3202 9.30106C18.1227 9.32465 16.4002 9.79003 15.8653 9.77855C12.2959 9.70396 4.81412 17.0436 2.28831 20.2228C6.34605 24.6019 3.47472 30.757 8.8387 32.9615C10.8896 31.1478 14.6228 24.5158 18.8712 22.2928C20.0123 22.0244 21.4276 22.1564 22.4093 22.2909C22.8377 22.3496 23.261 22.4369 23.6786 22.5491C26.5404 23.3198 29.5998 24.0243 31.3402 23.367C34.5436 22.1583 37.8549 17.6295 37.6438 15.1234C37.6438 15.1234 37.524 14.4929 37.0522 13.7362C37.0924 13.0426 37.1772 12.4019 37.2256 11.8039C37.3939 9.74285 35.7912 7.98779 33.8029 7.98779C33.7334 7.98779 33.6632 7.99034 33.5925 7.99417Z" fill="white"/>
</mask>
<g mask="url(#mask2_13252_23217)">
<path fill-rule="evenodd" clip-rule="evenodd" d="M34.7098 8.11355L34.836 8.35134C35.0082 8.67455 34.7965 9.07236 34.4382 9.09595C33.7026 9.14376 32.6162 9.28146 31.9449 9.67289C33.5929 9.59065 34.6544 9.74174 35.2313 9.87243C35.4723 9.92662 36.8805 10.4411 37.8323 10.7936C38.3417 10.9817 35.3907 6.69254 35.3907 6.69254L34.7098 8.11355Z" fill="#6C709C"/>
</g>
<path d="M2.50626 19.6858C6.6526 15.5509 13.1858 9.72219 15.8652 9.77893C16.4001 9.7904 18.1226 9.32438 20.3195 9.3008" stroke="black" stroke-width="1.5" stroke-linecap="round" stroke-linejoin="round"/>
<path d="M8.83843 32.9613C8.80974 33.004 8.78169 33.0474 8.75428 33.0895" stroke="black" stroke-width="1.5" stroke-linecap="round" stroke-linejoin="round"/>
<path d="M22.0648 9.38475C26.7588 9.60087 30.4187 8.19325 33.5929 7.99435C35.6769 7.86493 37.4001 9.67035 37.2254 11.8041C37.177 12.4014 37.0922 13.0421 37.0526 13.7357C37.5238 14.4931 37.6436 15.123 37.6436 15.123C37.8553 17.6296 34.544 22.1579 31.3399 23.3672C29.5995 24.0238 26.5408 23.3194 23.6784 22.5486C23.2608 22.4371 22.8375 22.3491 22.4097 22.2905C21.428 22.1559 20.0121 22.024 18.8709 22.293C15.7446 23.9288 12.7974 26.9921 9.52634 31.9206" stroke="black" stroke-width="1.5" stroke-linecap="round" stroke-linejoin="round"/>
<path fill-rule="evenodd" clip-rule="evenodd" d="M10.8362 30.0233C10.8362 30.0233 6.25632 18.8402 6.96651 15.3658C11.3876 11.3769 15.1833 9.89339 15.1833 9.89339L15.3842 24.6491L10.8362 30.0233Z" fill="#ADAEC2"/>
<mask id="mask3_13252_23217" style="mask-type:luminance" maskUnits="userSpaceOnUse" x="6" y="9" width="10" height="22">
<path fill-rule="evenodd" clip-rule="evenodd" d="M6.96633 15.3664C6.25678 18.8402 10.836 30.024 10.836 30.024L15.384 24.6498L15.1838 9.89339C15.1838 9.89339 11.3874 11.3775 6.96633 15.3664Z" fill="white"/>
</mask>
<g mask="url(#mask3_13252_23217)">
<path fill-rule="evenodd" clip-rule="evenodd" d="M10.9806 26.8045L12.4386 25.6449C13.1992 25.0386 13.5906 24.067 13.4695 23.0872C13.115 20.1942 12.1326 12.5626 14.0502 10.5869C16.6015 7.95849 16.351 24.4323 16.351 24.4323L15.9118 27.9074L13.0168 30.3006L9.96954 27.2488L10.9806 26.8045Z" fill="#9497B2"/>
</g>
<path fill-rule="evenodd" clip-rule="evenodd" d="M10.8363 30.024C10.8363 30.024 6.25641 18.8408 6.9666 15.3664C11.3877 11.3775 15.1834 9.89402 15.1834 9.89402L15.3842 24.6498L10.8363 30.024Z" stroke="black" stroke-width="1.5" stroke-linecap="round" stroke-linejoin="round"/>
<path fill-rule="evenodd" clip-rule="evenodd" d="M13.7518 19.2272C14.3013 22.2694 15.1817 24.9648 15.3845 24.7761C16.5747 23.6668 17.9466 23.1383 19.2694 22.629C19.476 22.5493 19.6296 22.3701 19.6762 22.1489C20.3322 19.0545 20.5387 11.7773 20.8307 9.60597C20.8817 9.2241 20.6152 8.9028 20.2384 8.90025C17.6591 8.88112 14.5927 9.83228 13.7595 10.1274C13.486 10.2237 13.1844 10.4086 13.1436 10.7018C12.967 11.9456 13.0359 13.6969 13.2291 15.5354" fill="#ADAEC2"/>
<mask id="mask4_13252_23217" style="mask-type:luminance" maskUnits="userSpaceOnUse" x="13" y="8" width="8" height="17">
<path fill-rule="evenodd" clip-rule="evenodd" d="M13.759 10.1272C13.4861 10.2234 13.1846 10.4083 13.1432 10.7016C12.9666 11.9453 13.0354 13.6966 13.2286 15.5352L13.7513 19.227C14.3015 22.2691 15.1819 24.9645 15.384 24.7758C16.5742 23.6666 17.9468 23.1381 19.2696 22.6287C19.4768 22.549 19.6292 22.3699 19.6763 22.1487C20.3323 19.0548 20.5382 11.777 20.8302 9.60633C20.8819 9.22319 20.6147 8.90253 20.2386 8.89998C20.2138 8.89934 20.1889 8.89934 20.1647 8.89934C17.6006 8.89934 14.5846 9.83456 13.759 10.1272Z" fill="white"/>
</mask>
<g mask="url(#mask4_13252_23217)">
<path fill-rule="evenodd" clip-rule="evenodd" d="M20.2251 8.90002L18.0748 17.3362C17.589 20.9241 13.6549 22.936 13.4694 23.0871L15.3112 28.1846L19.2688 22.6287L21.0762 16.5865L20.9773 6.29836L20.2251 8.90002Z" fill="#9497B2"/>
</g>
<path d="M13.8997 20C14.4472 22.7101 15.1991 24.9485 15.3844 24.7759C16.5746 23.6667 17.9466 23.1382 19.2694 22.6288C19.4759 22.5491 19.6296 22.37 19.6761 22.1488C20.3321 19.0543 20.5387 11.7771 20.8306 9.6058C20.8816 9.22393 20.6152 8.90263 20.2384 8.90008C17.659 8.88095 14.5926 9.83211 13.7594 10.1273C13.4859 10.2235 13.1844 10.4084 13.1436 10.7017C12.9963 11.7388 13.0197 13.1288 13.1436 14.6281" stroke="black" stroke-width="1.5" stroke-linecap="round" stroke-linejoin="round"/>
<path fill-rule="evenodd" clip-rule="evenodd" d="M31.945 9.67331C32.1809 9.65482 32.4792 9.63761 32.8146 9.63378C34.0743 9.61784 35.8663 9.77467 36.952 10.6646C37.4333 11.0592 37.7093 11.6598 37.7629 12.2903C37.812 12.8749 37.7144 13.3893 37.5531 13.7973C37.4977 13.9376 37.4339 14.0657 37.367 14.1792" fill="#9497B2"/>
<mask id="mask5_13252_23217" style="mask-type:luminance" maskUnits="userSpaceOnUse" x="31" y="9" width="7" height="6">
<path fill-rule="evenodd" clip-rule="evenodd" d="M32.8147 9.63384C32.4787 9.63767 32.181 9.65424 31.9445 9.67337L37.3665 14.1793C37.4341 14.0652 37.4978 13.9383 37.5533 13.7968C37.7146 13.3894 37.8121 12.8749 37.7624 12.2903C37.7095 11.6598 37.4334 11.0587 36.9515 10.6641C35.9136 9.81298 34.228 9.63257 32.9811 9.63257C32.925 9.63257 32.8689 9.63321 32.8147 9.63384Z" fill="white"/>
</mask>
<g mask="url(#mask5_13252_23217)">
<path fill-rule="evenodd" clip-rule="evenodd" d="M36.0594 9.38974C36.0594 9.38974 36.4834 10.1095 36.6861 10.9733C36.8391 11.6217 36.347 12.2445 35.698 12.219C34.284 12.1654 31.8506 12.5327 30.5546 13.1759C28.8065 14.0442 37.6436 15.1228 37.6436 15.1228L39.384 12.3682L36.7531 9.17617L36.0594 9.38974Z" fill="#6C709C"/>
</g>
<path d="M32.1881 10.6645C33.4479 10.6486 35.8662 9.77454 36.9519 10.6645C37.4332 11.0591 37.7093 11.6597 37.7628 12.2901C37.8119 12.8747 37.7144 13.3892 37.5531 13.7972C37.4976 13.9375 37.4339 14.0656 37.3669 14.1791" stroke="black" stroke-width="1.5" stroke-linecap="round" stroke-linejoin="round"/>
<path d="M30.4 13.6C30.4 13.6 37.2361 11.8255 37.6441 15.1234" stroke="black" stroke-width="1.5" stroke-linecap="round" stroke-linejoin="round"/>
<path fill-rule="evenodd" clip-rule="evenodd" d="M13.4509 17.33C13.4624 17.4103 13.4739 17.4907 13.4854 17.571L13.4509 17.33Z" fill="#ADAEC2"/>
<path d="M13.4509 17.33C13.4624 17.4103 13.4739 17.4907 13.4854 17.571" stroke="black" stroke-width="1.5" stroke-linecap="round" stroke-linejoin="round"/>
</g>
</svg>
