<svg width="40" height="40" viewBox="0 0 40 40" fill="none" xmlns="http://www.w3.org/2000/svg">
<path fill-rule="evenodd" clip-rule="evenodd" d="M22.823 6.13912C23.6467 6.33866 24.4509 6.61103 25.2263 6.95302C25.856 7.22176 27.0845 5.78592 27.6987 5.46343C30.1558 4.17348 32.8816 6.07004 34.9394 8.27371C37.358 10.869 37.0048 15.952 34.9931 16.9885C34.9891 17.3464 35.0199 17.7039 35.0852 18.0558C35.3726 19.4012 35.555 20.767 35.6304 22.1407C35.6304 30.8401 28.7814 35.7312 20.3276 35.7312H19.5598C11.1137 35.7312 4.97106 30.1951 4.97106 21.4957C4.97106 20.4591 5.19374 19.1308 4.78679 18.0558C4.8559 17.7026 3.4968 16.8273 3.4968 16.4741C3.27413 12.7885 1.14733 11.9823 3.57366 9.37938C5.62376 7.17572 8.9484 4.69565 11.3978 5.9856C12.012 6.30041 14.016 7.22176 14.6457 6.95302C16.1807 6.24027 17.8519 5.86833 19.5444 5.86272H20.3122C20.627 5.86272 20.9265 5.86272 21.2183 5.86272" fill="#9497B2"/>
<path opacity="0.05" fill-rule="evenodd" clip-rule="evenodd" d="M31.4546 18.4936C32.0227 23.4384 32.1072 33.5661 18.8929 36.1536V36.4838C33.1936 37.7261 37 25.0556 33.9053 18.0871C33.5185 17.3189 33.1317 18.0871 31.4546 18.4936Z" fill="black"/>
<path fill-rule="evenodd" clip-rule="evenodd" d="M14.6239 9.92443C14.6239 9.92443 13.0883 9.54056 11.115 12.3201C9.14168 15.0996 8.17422 15.9135 7.85941 18.1249C7.54461 20.3362 9.29525 22.7932 10.9307 23.8068C12.5662 24.8203 15.8448 24.183 17.4111 20.8583C18.9775 17.5336 17.6953 12.5197 16.4284 11.0762C15.3534 9.90139 14.6239 9.92443 14.6239 9.92443Z" fill="#ADAEC2"/>
<path d="M5.35613 20.436C5.30303 20.8564 5.27227 21.2793 5.26399 21.7029C5.26399 30.3947 11.8136 36.0997 19.8527 36.0997H20.5668C28.6444 36.0997 35.1939 30.3947 35.1939 21.7029C35.1939 21.0722 34.8783 19.0652 34.5792 17.319" stroke="black" stroke-width="1.5" stroke-linecap="round" stroke-linejoin="round"/>
<path fill-rule="evenodd" clip-rule="evenodd" d="M18.578 20.8355C18.6265 21.2505 18.8257 21.6332 19.1378 21.911C19.4499 22.1888 19.8533 22.3422 20.2711 22.3422C20.6889 22.3422 21.0922 22.1888 21.4043 21.911C21.7164 21.6332 21.9156 21.2505 21.9641 20.8355C21.9641 20.4669 21.1963 20.1675 20.2673 20.1675C19.3382 20.1675 18.578 20.4669 18.578 20.8355Z" fill="#6C709C"/>
<path d="M20.5206 21.5725V22.8394C20.5133 23.1797 20.578 23.5176 20.7103 23.8312C20.8426 24.1448 21.0396 24.4269 21.2884 24.6591C21.5575 24.9191 21.8841 25.112 22.2417 25.2221C22.5994 25.3322 22.9779 25.3565 23.3466 25.2929C23.7154 25.2294 24.064 25.0797 24.364 24.8562C24.6641 24.6327 24.9073 24.3416 25.0739 24.0065" stroke="black" stroke-width="1.5" stroke-linecap="round" stroke-linejoin="round"/>
<path d="M15.9746 24.0066C16.1411 24.3417 16.3843 24.6328 16.6844 24.8563C16.9845 25.0798 17.3331 25.2295 17.7018 25.293C18.0705 25.3566 18.4491 25.3323 18.8067 25.2222C19.1643 25.1121 19.4909 24.9192 19.76 24.6592C20.1156 24.3303 20.3801 23.9151 20.5278 23.4538" stroke="black" stroke-width="1.5" stroke-linecap="round" stroke-linejoin="round"/>
<path fill-rule="evenodd" clip-rule="evenodd" d="M18.608 20.1598C18.6509 20.6392 18.8717 21.0853 19.227 21.4101C19.5822 21.735 20.0462 21.9152 20.5276 21.9152C21.0089 21.9152 21.4729 21.735 21.8281 21.4101C22.1834 21.0853 22.4042 20.6392 22.4471 20.1598C22.4471 19.7144 21.5872 19.3919 20.5276 19.3919C19.468 19.3919 18.608 19.7144 18.608 20.1598Z" fill="#5A5E8C" stroke="black" stroke-width="1.5" stroke-linecap="round" stroke-linejoin="round"/>
<path d="M27.1921 19.4227V19.8988" stroke="black" stroke-width="1.5" stroke-linecap="round"/>
<path d="M13.8631 19.4227V19.8988" stroke="black" stroke-width="1.5" stroke-linecap="round"/>
<path opacity="0.05" d="M10.3235 7.07592C10.9748 7.32561 11.5322 7.7716 11.9188 8.35213C12.3054 8.93266 12.5019 9.61898 12.4812 10.3161C12.3967 12.9114 12.6347 16.9962 10.8226 18.7622C8.11989 21.1194 3.76631 19.3842 3.52829 13.4412C3.50752 12.949 3.62173 12.4605 3.85849 12.0284C5.1864 9.69233 7.26027 7.86982 9.74766 6.85322L10.3235 7.07592Z" fill="black"/>
<path d="M29.1353 7.97441C30.264 8.80367 28.3982 14.5701 30.9781 16.9273C33.6809 19.1694 36.7598 17.0962 36.9979 11.4911C37.0174 11.0282 36.9028 10.5696 36.6677 10.1704C35.3055 7.93029 33.2321 6.21106 30.7785 5.28702C30.2417 5.08035 29.6632 5.00528 29.0915 5.06807C28.5197 5.13086 27.9713 5.32969 27.4922 5.64792C26.4556 6.35432 25.6955 7.26036 25.4958 7.18358C23.2682 6.22427 20.8228 5.9034 18.432 6.24913" stroke="black" stroke-width="1.5" stroke-linecap="round" stroke-linejoin="round"/>
<path d="M10.4623 8.01251C9.33355 8.84176 11.2301 14.6082 8.61177 16.9654C6.04723 19.2075 2.83774 17.1343 2.59972 11.5369C2.58026 11.0692 2.69476 10.6056 2.92983 10.2008C4.29343 7.96362 6.36668 6.24718 8.8191 5.32511C9.35587 5.11844 9.93437 5.04338 10.5061 5.10616C11.0779 5.16895 11.6263 5.36778 12.1054 5.68602C13.142 6.36938 13.9021 7.27542 14.1017 7.22167C14.7638 6.94814 15.4436 6.71981 16.1365 6.53829" fill="#6C709C"/>
<path d="M10.4623 8.01251C9.33355 8.84176 11.2301 14.6082 8.61177 16.9654C6.04723 19.2075 2.83774 17.1343 2.59972 11.5369C2.58026 11.0692 2.69476 10.6056 2.92983 10.2008C4.29343 7.96362 6.36668 6.24718 8.8191 5.32511C9.35587 5.11844 9.93437 5.04338 10.5061 5.10616C11.0779 5.16895 11.6263 5.36778 12.1054 5.68602C13.142 6.36938 13.9021 7.27542 14.1017 7.22167C14.7638 6.94814 15.4436 6.71981 16.1365 6.53829" stroke="black" stroke-width="1.5" stroke-linecap="round" stroke-linejoin="round"/>
</svg>
