<svg width="40" height="40" viewBox="0 0 40 40" fill="none" xmlns="http://www.w3.org/2000/svg">
<mask id="mask0_11415_16518" style="mask-type:alpha" maskUnits="userSpaceOnUse" x="0" y="0" width="40" height="40">
<rect width="40" height="40" fill="white"/>
</mask>
<g mask="url(#mask0_11415_16518)">
<path d="M31.2948 32.8849V31.0954C31.3491 30.7141 31.3771 30.3295 31.3785 29.9443C31.3785 24.9211 26.7635 20.8607 21.0706 20.8607C15.3776 20.8607 10.7731 24.9211 10.7731 29.9443V32.8849" fill="#9497B2"/>
<path d="M21.5101 20.9758C21.1648 20.9758 20.809 20.9758 20.4636 20.9758C25.6961 21.4467 29.7146 25.3083 29.7146 30.0175C29.7167 30.4024 29.6922 30.7871 29.6414 31.1686V32.9581H31.7343V31.2105C31.7887 30.8292 31.8167 30.4445 31.8181 30.0594C31.8181 25.0362 27.203 20.9758 21.5101 20.9758Z" fill="#ADAEC2"/>
<path d="M16.9369 22.3467C18.4733 23.0416 20.1717 23.2987 21.845 23.0897C25.6862 22.5085 28.6229 19.361 28.9369 15.4887C29.2509 11.6164 26.8597 8.03684 23.1622 6.84429C19.4648 5.65174 15.4327 7.15954 13.425 10.4856C11.4173 13.8116 11.9615 18.0818 14.7393 20.7979C15.4001 21.4092 16.1391 21.93 16.9369 22.3467Z" fill="#9497B2"/>
<path d="M22.567 7.44466C22.567 7.44466 26.5019 8.19814 26.753 14.948C26.9518 20.3374 24.66 21.4258 24.66 21.4258C24.66 21.4258 28.553 21.4258 28.5216 14.6027C28.4483 6.79583 22.2845 7.02606 22.567 7.44466Z" fill="#ADAEC2"/>
<path d="M20.3171 22.9642C16.472 22.8973 13.1793 20.1912 12.369 16.4318C11.5587 12.6725 13.4442 8.85018 16.9203 7.2053C20.3965 5.56043 24.5477 6.52625 26.9407 9.53667C29.3338 12.5471 29.3384 16.8091 26.9518 19.8247C26.4341 20.4883 25.8163 21.0674 25.1205 21.5409" stroke="black" stroke-width="1.5" stroke-linecap="round" stroke-linejoin="round"/>
<path d="M12.4475 24.9735C11.3659 26.4055 10.7784 28.1498 10.7731 29.9443V32.6547" stroke="black" stroke-width="1.5" stroke-linecap="round" stroke-linejoin="round"/>
<path d="M31.3785 32.6547V29.9443C31.3785 26.3235 28.7937 23.0584 25.3193 21.5724" stroke="black" stroke-width="1.5" stroke-linecap="round" stroke-linejoin="round"/>
<path d="M17.0834 32.8849L8.61731 26.9931C8.61731 26.9931 6.64991 25.1722 7.84291 24.1362C9.03591 23.1002 8.56499 21.0909 8.56499 21.0909L28.1344 32.8849" fill="#6C709C"/>
<path d="M8.52319 22.692L25.8217 32.8849H27.8624L8.52319 21.0909V22.692Z" fill="#ADAEC2"/>
<path d="M18.9462 33L8.54407 27.035" stroke="black" stroke-width="1.5" stroke-linecap="round" stroke-linejoin="round"/>
<path d="M27.9775 32.6547L8.52319 21.0909" stroke="black" stroke-width="1.5" stroke-linecap="round" stroke-linejoin="round"/>
</g>
</svg>
