<svg width="72" height="72" viewBox="0 0 72 72" fill="none" xmlns="http://www.w3.org/2000/svg">
<path d="M11.0002 23.2863C11.0002 23.2863 10.1439 22.5209 8.3871 31.4253C8.42435 41.7958 6.11933 41.3679 5.56061 49.5238C6.92015 60.5282 21.8149 57.2295 27.0916 56.5804C30.5754 57.0681 33.7307 57.4316 36.59 57.6826C37.7581 57.7851 37.2225 54.8411 40.3849 55.1573C42.5985 54.5249 43.2672 56.6179 44.4959 56.5804C49.8719 54.5249 49.5557 57.371 50.8206 57.371C62.5616 56.1897 64.3783 51.5324 65.5179 45.9252C65.5179 45.9252 66.5055 42.0017 63.5824 41.6738C62.8134 41.2908 59.4888 41.0382 58.4451 40.2861C57.7539 39.7881 54.9511 37.7118 54.2143 37.1648C52.7584 36.0838 53.3868 34.4456 52.0989 33.6955C47.3375 30.9158 41.0001 27.7015 39.7089 25.3723C38.0761 22.4164 32.741 24.3692 27.9232 21.2065C23.6924 28.1449 20.151 20.6877 11.0002 23.2863Z" fill="#ADAEC2"/>
<path d="M8.79075 28.4354C8.79075 28.4354 8.81638 29.3374 9.81585 32.2775C10.8153 35.2177 14.024 41.5476 15.5388 43.5025C17.0535 45.4575 20.1202 47.214 21.9391 47.1223C23.7581 47.0307 26.713 48.0769 28.7182 48.0922C30.7234 48.1074 55.1143 51.1509 55.1143 51.1509C55.1143 51.1509 65.1401 48.1685 65.8292 46.7328C66.5183 45.2971 65.5312 55.1484 55.1143 56.7674C53.7437 56.9806 52.2555 57.1376 50.7045 57.2496C49.9138 57.3066 49.1069 55.7547 48.2908 55.7898C46.9344 55.8482 46.1855 56.4137 44.8122 56.4223C43.5311 56.4303 41.6247 54.8651 40.3849 54.8411C38.1713 54.7982 37.9161 57.3956 36.7618 57.35C31.4829 57.1412 27.5139 56.7674 27.5139 56.7674C27.5139 56.7674 11.2827 58.9269 7.68827 54.5663C4.09388 50.2058 6.43174 43.5025 6.43174 43.5025C6.43174 43.5025 9.88956 33.3229 8.67901 29.3213" fill="#9497B2"/>
<g opacity="0.05">
<path d="M11.8387 28.8422C11.1294 32.6583 12.354 37.1397 11.8387 40.8435C11.1248 45.9372 8.93344 49.0605 10.3737 51.1835C14.5951 57.3998 21.3617 49.9388 28.9106 52.1839C33.5789 53.5738 46.2568 58.2228 57.1455 55.4736C61.3881 54.3024 63.8099 51.9551 63.9962 51.5198C64.1636 51.1285 59.4394 56.4531 50.8208 57.0548C49.8511 57.1225 49.3606 55.5539 48.2907 55.4736C46.8195 55.3642 43.9368 55.5381 41.966 54.7952C40.6457 54.2976 39.7182 54.8381 38.8037 54.7952C37.5967 54.7387 38.3287 56.993 37.2225 56.9534C31.4212 56.7459 27.2468 56.7506 27.2468 56.7506C27.2468 56.7506 12.7278 58.3811 9.20795 54.9217C5.68805 51.4623 5.56066 48.8103 5.56066 48.8103L8.28045 38.2079C8.28045 38.2079 8.44302 24.9588 10.3737 24.3326C11.8387 23.2896 11.3024 25.7188 11.8387 28.8422Z" fill="black"/>
</g>
<path opacity="0.15" d="M63.5825 41.6808C63.5825 41.6808 65.3435 40.7153 63.8847 42.3801C62.4258 44.0449 62.7625 43.1372 61.4671 44.1147C60.4117 43.6031 57.0456 43.9292 56.6918 43.8375C56.3379 43.7459 53.5705 48.2832 53.0056 47.237C52.8318 46.9163 51.6642 42.426 51.1924 41.3339C50.9627 40.7994 49.5333 40.3137 49.3098 39.7257C48.5028 37.6179 49.9861 34.7359 51.4946 34.0486C52.9349 35.0184 54.2144 36.824 54.2144 36.824L56.6918 37.8647L58.4451 40.2932L61.1649 41.3339H63.3875L63.5825 41.6808Z" fill="black"/>
<path d="M52.4011 34.0496C52.9305 35.2391 53.3627 37.1668 53.9121 37.3934C54.2656 37.5391 55.9498 38.061 56.3341 38.2076C56.8083 38.3885 58.445 40.6411 58.445 40.6411C58.445 40.6411 59.6123 40.9243 61.0492 41.2192M63.5824 41.6819C66.9065 43.4203 65.4466 48.6241 64.6048 50.1257C62.8202 54.3592 57.2454 56.1942 50.8207 56.8876L48.2909 55.4736L44.496 56.4223L41.9662 54.5249L40.385 55.1573L38.8038 54.8411L36.5901 57.0728C33.2972 56.91 30.3788 56.6809 28.296 56.5828C22.2992 56.3002 5.55273 60.1709 6.16851 48.0919C6.78931 41.5168 7.59754 44.9782 8.28041 34.7451C8.77825 27.1441 9.18703 20.5176 17.6485 22.9472C18.196 23.1044 19.3195 23.3806 21 23.6694" stroke="black" stroke-width="1.8" stroke-linecap="round" stroke-linejoin="round"/>
<path d="M40.4139 31.4293C43.6669 33.5599 45.1447 32.8278 46.6594 31.2699C41.811 26.8559 43.0736 29.5191 39.7089 26.0138C35.8786 22.0275 36.3847 18.4339 34.5716 16.0055C34.3853 14.4323 33.9672 15.6585 32.154 18.4339C31.2476 17.8688 31.2474 18.7819 29.7364 17.7411C28.5276 19.4745 25.8079 23.6388 27.9232 24.6796" fill="#ADAEC2"/>
<path d="M52.4011 34.0431C48.3525 32.1589 45.0902 30.321 42.5634 28.3474M40.9177 26.9447C39.3642 25.4911 38.1759 23.9476 37.3346 22.249C36.2965 20.1532 35.9886 16.1021 33.6649 15.6575L32.154 18.4329L30.0386 17.7391C29.6807 17.7391 29.132 18.4329 28.8715 19.8206" stroke="black" stroke-width="1.8" stroke-linecap="round" stroke-linejoin="round"/>
<path d="M36.9863 31.4219C38.2521 30.4505 39.6977 28.549 40.6991 27.1062" stroke="black" stroke-width="1.8" stroke-linecap="round" stroke-linejoin="round"/>
<path d="M53.3911 48.3424C53.4584 47.8564 53.5139 47.365 53.551 46.8858" stroke="black" stroke-width="1.8" stroke-linecap="round" stroke-linejoin="round"/>
<path d="M10.9139 35.8274C11.0462 35.9934 11.1743 36.1926 11.3025 36.4197M62.3239 48.9616C49.5226 54.9894 36.6086 48.1144 25.8936 47.6337C16.8093 47.2259 13.9699 42.0768 12.3284 38.554" stroke="black" stroke-width="1.8" stroke-linecap="round" stroke-linejoin="round"/>
<path d="M30.9802 26.1328C30.9802 26.1328 29.6766 26.7056 30.3594 33.6473C31.0423 40.589 28.7516 41.6352 28.7516 41.6352" stroke="black" stroke-width="1.8" stroke-linecap="round" stroke-linejoin="round"/>
<path opacity="0.05" d="M22.4855 28.626C28.4982 32.6912 31.9747 40.5654 38.3344 38.3898C39.0058 38.1601 39.1616 39.1625 38.736 39.8447C37.6031 41.6685 34.444 44.62 30.4936 43.193C25.5666 41.4061 25.0179 36.0851 21.3292 30.8084C21.9019 30.8084 22.4855 29.5401 22.4855 28.626Z" fill="black"/>
<path d="M63.5824 41.6832C62.3736 43.4178 61.7692 44.0184 61.7692 44.0184C61.7692 44.0184 58.1429 43.7647 56.9341 43.7647L53.6099 46.887L51.4581 41.8343C51.4581 41.8343 48.4726 39.9486 48.4718 39.2111C48.6571 38.1735 49.2943 36.8621 49.7613 36" stroke="black" stroke-width="1.8" stroke-linecap="round" stroke-linejoin="round"/>
<path d="M44.8463 32.874C43.4931 34.3629 40.4321 32.038 38.4596 30.265C35.7063 27.7903 32.1541 21.2064 26.1101 21.5559C25.4404 23.3876 24.7038 24.6133 23.9948 26.0633L24.297 28.1448C24.1497 28.4317 22.6257 28.5736 22.4838 28.8387C21.1336 31.3605 20.6706 32.3104 20.6706 32.3104L21.0265 34.9183M11.8787 25.3695C11.6047 27.7979 16.1377 28.3408 18.253 26.4102C19.1282 26.8408 19.4861 27.8058 19.6906 28.8387" stroke="black" stroke-width="1.8" stroke-linecap="round" stroke-linejoin="round"/>
</svg>
