<svg width="40" height="40" viewBox="0 0 40 40" fill="none" xmlns="http://www.w3.org/2000/svg">
<path d="M7.31965 29.9305C6.47873 27.1355 5.71791 26.8311 5.6218 22.7227C5.37353 13.7529 9.58611 6.76133 15.3364 6.51306L23.7295 6.44098C29.4958 6.29682 34.1408 13.3605 34.3891 22.3783C33.6843 25.8381 33.9486 25.4216 32.523 28.577L32.459 29.5621C33.0516 30.1467 34.2369 33.5665 32.3148 33.9349C22.9526 34.1351 14.3353 34.1271 9.15364 34.0069C6.5428 34.095 7.31965 29.9305 7.31965 29.9305Z" fill="#F7F7F7"/>
<path d="M22.1037 34.1911C25.171 34.4314 24.5944 30.9877 23.5853 30.1868C24.6766 27.6463 25.324 24.9375 25.4994 22.1781C25.8598 16.0354 24.0899 8.26696 16.2814 6.96154H13.134C13.8409 6.67687 14.591 6.51439 15.3524 6.48102L23.7535 6.40894C29.5278 6.27279 34.7655 13.1363 34.1648 22.3703C33.7644 26.0223 34.4451 25.6539 33.0196 28.7773L32.467 30.2589C33.0676 31.4762 33.8845 32.9578 32.8274 33.6385C32.6686 33.7403 32.496 33.8185 32.3148 33.8708" fill="#ECECEC"/>
<path d="M25.131 16.9164C24.6524 14.2236 23.4729 11.7045 21.7113 9.61246C21.2782 9.10803 20.7923 8.65158 20.2617 8.25098" stroke="#333333" stroke-width="1.60174" stroke-linecap="round" stroke-linejoin="round"/>
<path d="M23.6654 30.3229L23.8816 29.7783C24.9708 26.9481 25.5143 23.9372 25.4834 20.9047" stroke="#333333" stroke-width="1.60174" stroke-linecap="round" stroke-linejoin="round"/>
<path d="M11.0837 14.9142C9.93237 17.0502 9.37899 19.4574 9.48199 21.8818C9.62615 27.2877 12.4452 31.5803 15.7848 31.4922C19.1245 31.4041 21.7273 26.9032 21.5992 21.4974C21.471 16.0915 18.6359 11.7988 15.2963 11.8869C13.9884 11.9985 12.7878 12.6554 11.9887 13.6969L11.8686 13.825" fill="#ECECEC"/>
<path d="M10.9636 14.8341C9.81607 16.8991 9.26174 19.2412 9.36187 21.6015C9.51403 26.8552 12.3171 31.0357 15.6247 30.9396C18.9323 30.8435 21.487 26.5108 21.3349 21.2651C21.1827 16.0194 18.3957 11.8309 15.1121 11.927C13.8247 12.0103 12.6309 12.6289 11.8205 13.6328L11.7004 13.761" fill="white"/>
<path d="M10.4751 15.4668C9.60624 17.4196 9.19796 19.5459 9.28178 21.6816C9.41792 27.0874 12.237 31.3801 15.5766 31.292C18.9162 31.2039 21.5191 26.7271 21.3749 21.2971C21.2308 15.8672 18.4197 11.5986 15.0721 11.6867C13.7594 11.7857 12.5496 12.4343 11.7404 13.4726" stroke="#333333" stroke-width="1.60174" stroke-linecap="round"/>
<g opacity="0.04">
<path d="M31.0174 12.4715L30.0564 12.7759L28.9992 12.5356L28.0302 12.8399L25.3152 12.5997" fill="#F7F7F7"/>
<path d="M31.0174 12.4715L30.0564 12.7759L28.9992 12.5356L28.0302 12.8399L25.3152 12.5997" stroke="#333333" stroke-width="1.60174" stroke-linecap="round"/>
</g>
<g opacity="0.04">
<path d="M32.467 17.1486L31.5059 17.4449L30.4488 17.2047L27.7098 17.509L26.7728 17.2687" fill="#F7F7F7"/>
<path d="M32.467 17.1486L31.5059 17.4449L30.4488 17.2047L27.7098 17.509L26.7728 17.2687" stroke="#333333" stroke-width="1.60174" stroke-linecap="round"/>
</g>
<g opacity="0.04">
<path d="M33.0997 21.8337L32.1386 22.1461L31.0815 21.9058L30.1124 22.2101L27.3975 21.9619" fill="#F7F7F7"/>
<path d="M33.0997 21.8337L32.1386 22.1461L31.0815 21.9058L30.1124 22.2101L27.3975 21.9619" stroke="#333333" stroke-width="1.60174" stroke-linecap="round"/>
</g>
<g opacity="0.04">
<path d="M32.467 26.3506L31.5059 26.655L30.4568 26.4147L29.4797 26.719L26.7728 26.4708" fill="#F7F7F7"/>
<path d="M32.467 26.3506L31.5059 26.655L30.4568 26.4147L29.4797 26.719L26.7728 26.4708" stroke="#333333" stroke-width="1.60174" stroke-linecap="round"/>
</g>
<g opacity="0.04">
<path d="M28.5187 8.37111L27.5576 8.68344L26.5085 8.43517L25.5314 8.74751L24.5944 8.49924" fill="#F7F7F7"/>
<path d="M28.5187 8.37111L27.5576 8.68344L26.5085 8.43517L25.5314 8.74751L24.5944 8.49924" stroke="#333333" stroke-width="1.60174" stroke-linecap="round"/>
</g>
<path d="M7.43978 31.0197C6.42267 32.0368 6.79908 33.9349 9.58611 33.8788C12.5493 33.8788 27.2053 34.007 30.7211 34.007C34.8055 34.007 32.4109 30.323 32.4109 30.323L32.6512 29.7784C35.1899 23.3714 34.9577 14.8261 30.4248 9.61245C29.1231 8.10106 27.3471 7.07612 25.3873 6.70529C25.0281 6.63454 24.6639 6.5917 24.2981 6.57715H15.5686C15.2001 6.59173 14.8333 6.63457 14.4714 6.70529C12.4988 7.07907 10.7146 8.11962 9.41793 9.65249C5.0692 14.6099 4.73284 22.6586 6.94324 28.9695" stroke="#333333" stroke-width="1.60174" stroke-linecap="round" stroke-linejoin="round"/>
<path d="M13.8628 19.1588C13.4763 19.8728 13.2908 20.6782 13.3262 21.4893C13.3822 23.2993 14.3433 24.7409 15.4885 24.6928C16.6338 24.6448 17.4987 23.1632 17.4507 21.3612C17.4026 19.5592 16.4336 18.1097 15.2963 18.1577C14.8525 18.1863 14.4406 18.398 14.1591 18.7424L14.119 18.7824" fill="#ECECEC"/>
</svg>
