<svg width="40" height="40" viewBox="0 0 40 40" fill="none" xmlns="http://www.w3.org/2000/svg">
<path fill-rule="evenodd" clip-rule="evenodd" d="M34.0771 27.4696C34.4388 28.6271 34.073 29.8887 33.1481 30.673C31.3541 32.1707 27.6541 33.5562 25.5558 34.0848C23.1372 25.8411 23.6711 21.0866 27.1575 19.8212C30.0781 19.25 31.7092 19.4528 32.0509 20.4299" fill="#9497B2"/>
<path opacity="0.04" fill-rule="evenodd" clip-rule="evenodd" d="M34.0771 27.4696C34.4388 28.627 34.073 29.8887 33.1481 30.673C31.3541 32.1707 27.6541 33.5562 25.5558 34.0847C23.1372 25.8411 23.6711 21.0866 27.1575 19.8212C29.7203 18.9136 31.3514 19.1165 32.0509 20.4299" fill="black"/>
<path d="M24.7873 34.3422C24.9118 34.7667 25.3569 35.0098 25.7813 34.8853C26.2057 34.7607 26.4488 34.3157 26.3243 33.8913L24.7873 34.3422ZM27.1575 19.8533L27.4308 20.6061L27.4375 20.6036L27.4443 20.6011L27.1575 19.8533ZM30.7371 20.1006C31.148 20.2645 31.6139 20.0642 31.7777 19.6534C31.9415 19.2425 31.7412 18.7766 31.3304 18.6128L30.7371 20.1006ZM34.7773 29.9574C34.9349 29.5441 34.7277 29.0813 34.3144 28.9237C33.9011 28.766 33.4383 28.9733 33.2807 29.3865L34.7773 29.9574ZM33.5164 30.633L32.8625 30.1706L32.8573 30.1779L32.8523 30.1854L33.5164 30.633ZM29.005 32.1217C28.5667 32.1806 28.259 32.5837 28.3179 33.0221C28.3768 33.4605 28.7799 33.7681 29.2183 33.7092L29.005 32.1217ZM26.3243 33.8913C25.1249 29.8033 24.689 26.676 24.9381 24.4576C25.1828 22.2788 26.0604 21.1035 27.4308 20.6061L26.8843 19.1004C24.7683 19.8685 23.6356 21.7031 23.3464 24.2788C23.0616 26.8149 23.5681 30.1866 24.7873 34.3422L26.3243 33.8913ZM27.4443 20.6011C29.1644 19.9415 30.1985 19.8859 30.7371 20.1006L31.3304 18.6128C30.1818 18.1549 28.6318 18.4303 26.8708 19.1055L27.4443 20.6011ZM33.2807 29.3865C33.1747 29.6644 33.0342 29.9278 32.8625 30.1706L34.1703 31.0954C34.4195 30.743 34.6235 30.3606 34.7773 29.9574L33.2807 29.3865ZM32.8523 30.1854C32.2741 31.0435 31.0038 31.8532 29.005 32.1217L29.2183 33.7092C31.5122 33.4011 33.2692 32.4329 34.1806 31.0806L32.8523 30.1854Z" fill="black"/>
<path fill-rule="evenodd" clip-rule="evenodd" d="M30.6253 21.471C31.402 21.216 32.1444 20.8663 32.8357 20.4299C33.8368 19.7171 34.4375 19.3888 35.3825 20.5981C36.6032 22.1714 36.6262 24.3654 35.4385 25.9639C34.6717 26.8719 33.6923 27.5762 32.5874 28.0141C32.0356 26.9821 31.5592 25.9115 31.1619 24.8107C30.5052 22.5362 30.5532 21.487 30.6253 21.471Z" fill="#ADAEC2"/>
<path d="M30.6974 21.9515C32.0269 21.2468 33.1 20.1095 34.0611 20.2937C36.5678 20.7823 37.7691 26.7568 32.5715 27.9501" stroke="black" stroke-width="1.60174" stroke-linecap="round" stroke-linejoin="round"/>
<path d="M30.5692 21.479C30.5622 22.7595 30.7818 24.0312 31.2179 25.2351C31.5505 26.3383 32.056 27.3817 32.7156 28.3265" stroke="black" stroke-width="1.60174" stroke-linecap="round" stroke-linejoin="round"/>
<path fill-rule="evenodd" clip-rule="evenodd" d="M4.95738 9.79433C5.69939 8.51052 6.59494 7.32182 7.62428 6.25448C11.4524 2.51442 14.8321 0.560292 15.8652 0.824579C16.1616 1.80164 17.7553 8.36077 18.5321 12.5413L5.63812 16.834C5.08552 15.8409 4.03638 12.6454 3.77209 12.213C4.10653 11.3836 4.50274 10.5804 4.95738 9.81035" fill="#ADAEC2"/>
<path d="M17.4189 5.2774C17.6019 7.72381 17.9741 10.1524 18.5322 12.5413" stroke="black" stroke-width="1.60174" stroke-linecap="round" stroke-linejoin="round"/>
<path d="M5.93446 16.6418C5.29572 14.4206 4.37808 12.2893 3.20349 10.2989" stroke="black" stroke-width="1.60174" stroke-linecap="round" stroke-linejoin="round"/>
<path fill-rule="evenodd" clip-rule="evenodd" d="M10.9639 30.9453C9.22601 27.7418 9.17796 25.0509 7.0957 22.408C5.80986 20.9009 5.22727 18.9172 5.49396 16.9541C5.59807 16.2734 12.0931 10.5471 18.9326 10.6833C19.309 10.6833 21.3352 15.8089 21.3352 18.0593C16.6981 18.6119 20.8787 29.0713 17.6672 31.3458" fill="#9497B2"/>
<path fill-rule="evenodd" clip-rule="evenodd" d="M22.6246 18.9723C23.7218 18.5879 27.8463 19.621 27.8463 19.621C27.8463 19.621 27.3898 30.4328 26.2445 34.1168C24.0822 36.7276 18.1798 35.7185 18.1798 35.7185C18.1798 35.7185 18.8845 20.2777 22.6246 18.9723Z" fill="#9497B2"/>
<path d="M24.6348 18.7321C25.8623 18.6152 27.0949 18.8959 28.1506 19.5329C27.1976 20.8063 27.0454 24.7065 27.0775 27.7258" stroke="black" stroke-width="1.60174" stroke-linecap="round" stroke-linejoin="round"/>
<path d="M27.1015 29.8882C27.1015 31.4899 27.2857 33.372 26.685 33.8925C24.0742 36.4313 19.1328 36.3672 17.8754 35.3821C16.6181 34.3971 21.5835 18.5639 22.3843 19.5329" stroke="black" stroke-width="1.60174" stroke-linecap="round" stroke-linejoin="round"/>
<path fill-rule="evenodd" clip-rule="evenodd" d="M21.4953 18.0273C22.2962 18.9323 22.5125 18.9963 22.5685 19.4368C23.1532 23.7375 18.4761 35.6705 17.4189 36.0148C14.776 37.4404 10.7316 35.1099 11.1561 31.9064C11.3163 29.3035 14.3596 26.06 15.2806 21.8474" fill="#9497B2"/>
<path d="M21.4953 18.0273C22.2962 18.9323 22.5125 18.9963 22.5685 19.4368C23.1532 23.7375 18.4761 35.6705 17.4189 36.0148C14.776 37.4404 10.7316 35.1099 11.1561 31.9064C11.3163 29.3035 14.3596 26.06 15.2806 21.8474" stroke="black" stroke-width="1.60174" stroke-linecap="round" stroke-linejoin="round"/>
<path d="M9.71456 29.6719C8.06477 26.997 7.76044 23.7295 7.60827 22.9286C6.22906 21.5496 5.3786 19.7297 5.20566 17.787C5.47795 15.3203 13.9271 9.70623 18.5321 10.8194C19.9577 11.4601 21.5434 15.6247 21.3752 18.0273C14.9683 18.1634 11.1241 19.9734 9.57841 21.9756" stroke="black" stroke-width="1.60174" stroke-linecap="round" stroke-linejoin="round"/>
</svg>
