<svg width="40" height="40" viewBox="0 0 40 40" fill="none" xmlns="http://www.w3.org/2000/svg">
<g clip-path="url(#clip0_978_3098)">
<mask id="mask0_978_3098" style="mask-type:alpha" maskUnits="userSpaceOnUse" x="0" y="0" width="40" height="40">
<rect width="40" height="40" fill="white"/>
</mask>
<g mask="url(#mask0_978_3098)">
<path d="M7.27335 34.2673C6.85845 35.6128 6.9171 37.0449 7.44087 38.3578C7.63914 38.76 8.02106 39.0603 8.48333 39.1775C8.94561 39.2946 9.44046 39.2165 9.83405 38.9642C11.044 38.095 11.9305 36.9005 12.3708 35.5463L16.2717 23.3299L11.1623 22.0068" fill="#ECECEC"/>
<path d="M10.6597 22.9771L8.93665 28.942L10.6597 22.9771Z" fill="#ECECEC"/>
<path d="M20.5316 3.11984C19.2632 2.63472 17.4923 3.6601 16.1401 5.50138" stroke="#333333" stroke-width="1.5" stroke-linecap="round" stroke-linejoin="round"/>
<path d="M13.6871 23.7266L8.73322 39.2286L11.6768 37.4865L15.9367 24.344L13.6871 23.7266Z" fill="white"/>
<path d="M23.0205 10.8266C23.7983 11.8911 23.925 13.2499 23.3556 14.421L19.4068 22.5028C18.7126 23.8698 17.0475 24.574 15.47 24.1676L11.0546 23.0651C9.48179 22.698 8.45434 21.3063 8.66142 19.8235L10.0255 11.1023C10.2306 9.9914 10.9385 9.01322 11.9726 8.41166C13.0066 7.8101 14.2695 7.64188 15.4461 7.94893L17.6837 8.51124" fill="#F7F7F7"/>
<path d="M20.759 9.73534C20.9071 12.0327 20.6114 14.3361 19.8854 16.5382C19.2803 18.4548 18.2357 20.2295 16.8222 21.7422C16.1426 22.4465 15.3801 23.0789 14.5486 23.6276L17.6 24.0466L19.5863 22.944L24.4445 13.7046L23.2479 10.5292L20.759 9.55893V9.73534Z" fill="white"/>
<path d="M23.4393 10.9372C24.2763 11.9668 24.4456 13.3324 23.8821 14.5095L19.8376 22.5692C19.0284 23.9547 17.272 24.6233 15.6375 24.1679L10.8512 22.9771C9.19381 22.6443 8.06507 21.226 8.21868 19.6695L9.41527 10.9151C9.67682 9.75932 10.4676 8.76403 11.5843 8.1851C12.7011 7.60617 14.0348 7.50008 15.2427 7.89409L17.6358 8.48947" stroke="#333333" stroke-width="1.5" stroke-linecap="round" stroke-linejoin="round"/>
<path d="M16.4033 16.604L14.1298 16.0417" stroke="#DCDCDC" stroke-width="1.5" stroke-linecap="round" stroke-linejoin="round"/>
<path d="M20.5316 3.11975C22.0991 3.73719 22.2786 6.42744 20.9264 9.22795C20.4368 10.2568 19.7475 11.1947 18.8922 11.9954L17.576 11.5764" stroke="#333333" stroke-width="1.5" stroke-linecap="round" stroke-linejoin="round"/>
<path d="M7.27335 34.2673C6.85845 35.6128 6.9171 37.0449 7.44087 38.3578V38.3578C7.63914 38.76 8.02106 39.0603 8.48333 39.1774C8.94561 39.2946 9.44046 39.2165 9.83405 38.9642V38.9642C11.044 38.095 11.9305 36.9005 12.3708 35.5463L15.0273 27.1227" stroke="#333333" stroke-width="1.5" stroke-linecap="round" stroke-linejoin="round"/>
<path d="M8.09903 31.6212V31.6543" stroke="#333333" stroke-width="1.5" stroke-linecap="round" stroke-linejoin="round"/>
<path d="M10.6597 22.9771L8.93665 28.942" stroke="#333333" stroke-width="1.5" stroke-linecap="round" stroke-linejoin="round"/>
<path d="M28.3952 35.2269C28.8929 36.544 29.8176 37.6391 31.0366 38.3547C31.4399 38.5507 31.9257 38.5536 32.3627 38.3626C32.7996 38.1715 33.1425 37.8063 33.2987 37.3657C33.721 35.937 33.6885 34.4498 33.2056 33.1102L28.7929 21.0692L23.946 23.1584" fill="#ECECEC"/>
<path d="M24.1444 24.233L26.4423 30.0008L24.1444 24.233Z" fill="#ECECEC"/>
<path d="M19.7605 2.49484C18.4611 2.88972 17.6915 4.78585 17.753 7.06945" stroke="#333333" stroke-width="1.5" stroke-linecap="round" stroke-linejoin="round"/>
<path d="M26.995 22.9679L32.5914 38.2497L33.8476 35.0683L29.1504 22.0756L26.995 22.9679Z" fill="white"/>
<path d="M26.4534 7.05476C27.7206 7.41833 28.6542 8.41384 28.9228 9.68797L30.7615 18.4929C31.0518 19.9984 30.1687 21.5759 28.6736 22.2226L24.5101 24.0602C23.0427 24.7351 21.3776 24.2662 20.6316 22.9681L16.3594 15.2435C15.84 14.2404 15.799 13.0337 16.2467 11.9243C16.6944 10.8149 17.5885 9.90741 18.7062 9.42816L20.8183 8.4997" fill="#F7F7F7"/>
<path d="M23.998 7.58009C25.5242 9.3036 26.7035 11.3042 27.4809 13.4886C28.1787 15.3735 28.4423 17.4159 28.2538 19.4777C28.1492 20.4507 27.9348 21.4179 27.6148 22.3613L30.2816 20.8205L31.174 18.7313L29.3434 8.45421L26.4506 6.68036L23.8898 7.44077L23.998 7.58009Z" fill="white"/>
<path d="M26.8521 6.88517C28.1447 7.18496 29.116 8.15965 29.393 9.43491L31.1426 18.2812C31.3534 19.8717 30.3763 21.4771 28.8061 22.1201L24.2956 24.1156C22.7824 24.8693 21.021 24.4416 20.1876 23.118L15.7627 15.4701C15.2603 14.3968 15.2743 13.1257 15.8012 11.9835C16.328 10.8413 17.3163 9.93936 18.5119 9.50963L20.7672 8.51188" stroke="#333333" stroke-width="1.5" stroke-linecap="round" stroke-linejoin="round"/>
<path d="M24.7712 15.6766L22.6307 16.6271" stroke="#DCDCDC" stroke-width="1.5" stroke-linecap="round" stroke-linejoin="round"/>
<path d="M19.7604 2.49476C21.3771 2.02088 23.1691 4.03547 23.819 7.07665C24.0634 8.18955 24.0943 9.3531 23.91 10.5101L22.6134 10.9866" stroke="#333333" stroke-width="1.5" stroke-linecap="round" stroke-linejoin="round"/>
<path d="M28.3952 35.2268C28.8928 36.544 29.8176 37.6391 31.0366 38.3547V38.3547C31.4399 38.5507 31.9257 38.5536 32.3627 38.3626C32.7996 38.1715 33.1425 37.8063 33.2986 37.3656V37.3656C33.721 35.9369 33.6885 34.4498 33.2056 33.1102L30.1365 24.828" stroke="#333333" stroke-width="1.5" stroke-linecap="round" stroke-linejoin="round"/>
<path d="M27.4242 32.6306L27.4445 32.6567" stroke="#333333" stroke-width="1.5" stroke-linecap="round" stroke-linejoin="round"/>
<path d="M24.1444 24.233L26.4423 30.0008" stroke="#333333" stroke-width="1.5" stroke-linecap="round" stroke-linejoin="round"/>
</g>
</g>
<defs>
<clipPath id="clip0_978_3098">
<rect width="40" height="40" fill="white"/>
</clipPath>
</defs>
</svg>
