<svg width="40" height="40" viewBox="0 0 40 40" fill="none" xmlns="http://www.w3.org/2000/svg">
<rect x="17.9744" y="19.9921" width="3.8472" height="15.9629" rx="1.9236" transform="rotate(45 17.9744 19.9921)" fill="#6C709C" stroke="black" stroke-width="1.5" stroke-linecap="round" stroke-linejoin="round"/>
<circle cx="23.2082" cy="16.6878" r="9.91282" fill="#ADAEC2"/>
<path fill-rule="evenodd" clip-rule="evenodd" d="M29.0535 8.6876C30.746 11.0227 31.4101 14.0729 30.6055 17.0756C29.1885 22.3638 23.753 25.502 18.4648 24.0851C17.2594 23.7621 16.1656 23.2303 15.2121 22.539C16.5003 24.3163 18.3841 25.6792 20.6696 26.2916C25.9577 27.7086 31.3933 24.5703 32.8103 19.2822C33.9042 15.1995 32.283 11.0289 29.0535 8.6876Z" fill="#9497B2"/>
<path d="M17.1504 8.8408C18.8256 7.54566 20.9269 6.77502 23.2082 6.77502C28.6829 6.77502 33.1211 11.2131 33.1211 16.6878C33.1211 22.1625 28.6829 26.6007 23.2082 26.6007C17.7335 26.6007 13.2954 22.1625 13.2954 16.6878C13.2954 15.1053 13.6663 13.6093 14.3258 12.2821" stroke="black" stroke-width="1.5" stroke-linecap="round" stroke-linejoin="round"/>
<rect x="16.5996" y="10.0793" width="13.2171" height="13.2171" rx="6.60855" fill="#2F335B" stroke="black" stroke-width="1.5" stroke-linecap="round" stroke-linejoin="round"/>
</svg>
