<svg width="40" height="40" viewBox="0 0 40 40" fill="none" xmlns="http://www.w3.org/2000/svg">
<g clip-path="url(#clip0_11744_20901)">
<path fill-rule="evenodd" clip-rule="evenodd" d="M31.2175 18.2996L16.227 32.6602C13.5357 35.243 9.26211 35.16 6.68043 32.4745C4.10085 29.7903 4.18981 25.5221 6.88264 22.9396L23.6312 6.87091C26.3222 4.28967 30.5958 4.37266 33.1763 7.05627C34.9849 8.93843 35.4811 11.5976 34.6912 13.9089" fill="#ECECEC"/>
<mask id="mask0_11744_20901" style="mask-type:luminance" maskUnits="userSpaceOnUse" x="4" y="4" width="32" height="31">
<path fill-rule="evenodd" clip-rule="evenodd" d="M23.6311 6.87079L6.88191 22.9386C4.18908 25.521 4.10071 29.7902 6.68122 32.4738C9.26138 35.1589 13.535 35.2419 16.2263 32.6592L31.2173 18.2995L34.6904 13.9079C35.4819 11.5969 34.9842 8.93738 33.1761 7.05615C30.9175 4.70694 27.3626 4.34969 24.7061 6.02901C24.3282 6.26769 23.9664 6.5483 23.6311 6.87079Z" fill="white"/>
</mask>
<g mask="url(#mask0_11744_20901)">
<path fill-rule="evenodd" clip-rule="evenodd" d="M11.353 37.3356L2.235 27.8497C2.235 27.8497 10.6064 15.7366 15.0377 15.5663C23.6875 15.2352 24.1573 25.0526 24.1573 25.0526L11.353 37.3356Z" fill="white"/>
</g>
<mask id="mask1_11744_20901" style="mask-type:luminance" maskUnits="userSpaceOnUse" x="4" y="15" width="21" height="20">
<path fill-rule="evenodd" clip-rule="evenodd" d="M6.88165 22.9387C4.18883 25.5211 4.10046 29.7903 6.68096 32.4739C9.26112 35.1591 13.5347 35.242 16.226 32.6593L17.0784 31.8423L24.1578 25.0529C24.1578 25.0529 23.6875 15.2345 15.0367 15.5663C14.8597 15.5726 14.6768 15.5983 14.4872 15.6425" fill="white"/>
</mask>
<g mask="url(#mask1_11744_20901)">
<path fill-rule="evenodd" clip-rule="evenodd" d="M4.92049 26.5518L7.0402 24.2494L14.5181 17.6745C15.551 16.6939 17.0793 16.4564 18.3627 17.0701C20.3603 18.027 23.0558 19.8229 23.7749 22.7526C24.9547 27.5618 21.9646 16.5123 21.9646 16.5123C21.9646 16.5123 18.5833 12.7773 17.1494 13.088C15.7161 13.3996 7.74154 17.5619 7.44215 17.8382C7.14395 18.1164 3.82607 24.9841 3.82607 24.9841L4.92049 26.5518Z" fill="white"/>
</g>
<mask id="mask2_11744_20901" style="mask-type:luminance" maskUnits="userSpaceOnUse" x="4" y="4" width="32" height="31">
<path fill-rule="evenodd" clip-rule="evenodd" d="M23.6311 6.87079L6.88191 22.9386C4.18908 25.521 4.10071 29.7902 6.68122 32.4738C9.26138 35.1589 13.535 35.2419 16.2263 32.6592L31.2173 18.2995L34.6904 13.9079C35.4819 11.5969 34.9842 8.93738 33.1761 7.05615C30.9175 4.70694 27.3626 4.34969 24.7061 6.02901C24.3282 6.26769 23.9664 6.5483 23.6311 6.87079Z" fill="white"/>
</mask>
<g mask="url(#mask2_11744_20901)">
<g opacity="0.260742">
<path fill-rule="evenodd" clip-rule="evenodd" d="M5.26129 27.3916C5.26129 27.3916 9.39556 30.8489 13.5882 29.1485C16.4632 27.9821 23.0247 21.5785 26.867 17.6684C29.0586 15.4365 29.1197 11.8538 26.9527 9.60425C25.8366 8.44738 24.3924 7.637 22.6192 7.97324C22.4502 6.82748 26.609 2.35684 26.609 2.35684L34.9412 4.1221C34.9412 4.1221 39.9381 21.3932 39.3692 22.0859C38.7993 22.7792 26.9128 33.7859 26.9128 33.7859L11.3577 39.3434C11.3577 39.3434 3.04961 42.081 3.31631 35.668L3.58488 29.2538L5.26129 27.3916Z" fill="#DCDCDC"/>
</g>
</g>
<path d="M32.5566 16.8188L16.2268 32.6603C13.5355 35.2431 9.26189 35.1601 6.68021 32.4746C4.10064 29.7904 4.1896 25.5222 6.88242 22.9397L23.631 6.87101C26.322 4.28977 30.5956 4.37276 33.1761 7.05637C34.9847 8.93853 35.4808 11.5977 34.6909 13.909" stroke="#333333" stroke-width="1.5" stroke-linecap="round" stroke-linejoin="round"/>
<path d="M25.0013 24.0814C24.2844 21.9252 23.2938 18.6155 18.2189 15.9766" stroke="#333333" stroke-width="1.5" stroke-linecap="round" stroke-linejoin="round"/>
</g>
<defs>
<clipPath id="clip0_11744_20901">
<rect width="40" height="40" fill="white"/>
</clipPath>
</defs>
</svg>
