<svg width="72" height="72" viewBox="0 0 72 72" fill="none" xmlns="http://www.w3.org/2000/svg">
<path fill-rule="evenodd" clip-rule="evenodd" d="M18.7949 38.4955L44.6651 36.4775C49.3133 36.1108 53.3809 39.5753 53.7511 44.217C54.1204 48.8558 50.6544 52.9134 46.005 53.2786L17.0816 55.5565C12.4349 55.922 8.3674 52.4575 7.99678 47.8185C7.73801 44.5659 9.36394 41.6012 11.9583 39.9912" fill="#ECECEC"/>
<mask id="mask0_15664_35902" style="mask-type:luminance" maskUnits="userSpaceOnUse" x="7" y="36" width="47" height="20">
<path fill-rule="evenodd" clip-rule="evenodd" d="M17.0818 55.5567L46.005 53.2802C50.6544 52.915 54.1206 48.856 53.75 44.2171C53.3809 39.5769 49.3134 36.1124 44.6652 36.4791L18.7951 38.4958L11.9583 39.9929C9.36278 41.6013 7.73805 44.5675 7.997 47.8188C8.3211 51.8794 11.4764 55.04 15.3755 55.5196C15.93 55.588 16.5021 55.6031 17.0818 55.5567Z" fill="white"/>
</mask>
<g mask="url(#mask0_15664_35902)">
<path fill-rule="evenodd" clip-rule="evenodd" d="M53.0814 35.8152L54.3881 52.2102C54.3881 52.2102 36.6994 57.2962 32.2787 53.9518C23.6507 47.4223 30.9708 37.5553 30.9708 37.5553L53.0814 35.8152Z" fill="white"/>
</g>
<mask id="mask1_15664_35902" style="mask-type:luminance" maskUnits="userSpaceOnUse" x="28" y="36" width="26" height="19">
<path fill-rule="evenodd" clip-rule="evenodd" d="M46.0051 53.2802C50.6545 52.915 54.1207 48.856 53.7501 44.2171C53.381 39.5769 49.3135 36.1124 44.6653 36.4791L43.194 36.5943L30.9705 37.5546C30.9705 37.5546 23.6503 47.423 32.2796 53.9526C32.4558 54.0866 32.6532 54.2066 32.8715 54.314" fill="white"/>
</mask>
<g mask="url(#mask1_15664_35902)">
<path fill-rule="evenodd" clip-rule="evenodd" d="M50.7631 51.3388L46.8897 51.887L34.4507 52.3243C32.6753 52.4547 31.0091 51.4742 30.2538 49.8643C29.0795 47.357 27.8947 43.4855 29.5192 40.0825C32.1866 34.4969 26.3284 47.5514 26.3284 47.5514C26.3284 47.5514 26.641 53.8414 28.2738 54.6764C29.9068 55.5101 40.9156 57.7995 41.424 57.7694C41.9327 57.7364 50.5801 53.7217 50.5801 53.7217L50.7631 51.3388Z" fill="white"/>
</g>
<mask id="mask2_15664_35902" style="mask-type:luminance" maskUnits="userSpaceOnUse" x="7" y="36" width="47" height="20">
<path fill-rule="evenodd" clip-rule="evenodd" d="M17.0818 55.5567L46.005 53.2802C50.6544 52.915 54.1206 48.856 53.75 44.2171C53.3809 39.5769 49.3134 36.1124 44.6652 36.4791L18.7951 38.4958L11.9583 39.9929C9.36278 41.6013 7.73805 44.5675 7.997 47.8188C8.3211 51.8794 11.4764 55.04 15.3755 55.5196C15.93 55.588 16.5021 55.6031 17.0818 55.5567Z" fill="white"/>
</mask>
<g mask="url(#mask2_15664_35902)">
<g opacity="0.260742">
<path fill-rule="evenodd" clip-rule="evenodd" d="M51.0985 50.2568C51.0985 50.2568 49.8378 43.6391 44.4363 41.9636C40.732 40.8148 29.3151 41.8122 22.5025 42.5511C18.6154 42.9742 15.7192 46.3909 16.0336 50.2826C16.197 52.2854 16.952 54.2127 18.9332 55.2917C18.1894 56.5337 10.6269 57.5642 10.6269 57.5642L3.96622 49.2587C3.96622 49.2587 12.8103 28.5977 13.9091 28.3783C15.0092 28.159 35.2216 26.9266 35.2216 26.9266L54.6669 33.8697C54.6669 33.8697 64.87 37.8012 59.5336 43.7924L54.1945 49.7832L51.0985 50.2568Z" fill="#DCDCDC"/>
</g>
</g>
<path d="M16.327 38.8672L44.6654 36.4775C49.3136 36.1108 53.3811 39.5753 53.7514 44.217C54.1206 48.8558 50.6546 52.9135 46.0052 53.2786L17.0818 55.5565C12.4352 55.922 8.36764 52.4575 7.99703 47.8186C7.73825 44.566 9.36418 41.6013 11.9585 39.9913" stroke="#333333" stroke-width="2" stroke-linecap="round" stroke-linejoin="round"/>
<path d="M29.3855 37.8262C28.3712 40.4793 26.7084 44.4648 29.5269 51.0358" stroke="#333333" stroke-width="2" stroke-linecap="round" stroke-linejoin="round"/>
<path d="M45.9 32.8794C44.9798 30.7103 44.1915 28.4876 43.5392 26.2234C43.4991 26.0255 43.5144 25.8204 43.5833 25.6306C43.6522 25.4408 43.7722 25.2737 43.9299 25.1476C45.8585 23.4213 53.5271 17.4926 52.2667 15.1667C51.0648 12.923 43.4263 12.0366 40.0293 15.7728C39.7849 16.0389 39.4823 16.2449 39.1451 16.3749C38.808 16.5048 38.4454 16.5552 38.0856 16.522C36.3267 16.3984 34.5739 16.8349 33.0783 17.7688C31.5828 18.7027 30.4213 20.0861 29.7603 21.7207C28.8368 23.9705 29.2203 29.6606 35.4416 31.2548C35.6371 31.2638 35.8287 31.3129 36.0045 31.399C36.1803 31.4851 36.3365 31.6064 36.4635 31.7554C37.2927 33.0726 40.2269 41.6185 40.5682 43.1588C40.5855 43.3552 40.5599 43.5531 40.4933 43.7387C40.4267 43.9242 40.3206 44.0932 40.1825 44.2338C38.4906 46.4054 38.1471 50.3918 39.8878 52.7394C42.7388 56.5787 47.9823 56.554 51.9007 54.4722" fill="#ECECEC"/>
<path d="M47.2414 38.268L47.1794 38.1305L47.2414 38.268Z" fill="#F7F7F7"/>
<path d="M53.34 32.1321C52.6165 30.0334 52.0061 27.8974 51.5115 25.7332C51.4877 25.5302 51.5155 25.3244 51.5925 25.1349C51.6695 24.9455 51.7931 24.7786 51.9518 24.6497C53.9462 22.8573 54.8708 20.582 53.6986 18.1053C53.1512 16.95 52.1871 16.0445 50.9998 15.5704C49.8125 15.0964 48.4898 15.089 47.2972 15.5496C46.0426 15.9986 44.9045 16.12 44.1778 17.1568C44.0575 17.417 43.8487 17.626 43.5886 17.7465C43.3284 17.8669 43.0339 17.8909 42.7577 17.8143C41.5237 17.629 40.2634 17.87 39.1848 18.4975C38.0026 19.1796 37.0643 20.2156 36.5023 21.4594C35.9402 22.7033 35.7828 24.0921 36.0521 25.4302C36.3 26.6666 37.0045 27.7643 38.0255 28.5045C39.0464 29.2446 40.3088 29.573 41.561 29.424C41.7647 29.4089 41.9685 29.4531 42.1477 29.5513C42.3269 29.6495 42.4738 29.7974 42.5707 29.9773C43.6916 32.2934 44.6349 34.6912 45.3926 37.1501L45.2048 36.5958L45.2704 36.7886L45.0784 36.2399C45.9989 38.6776 46.7395 41.1794 47.2943 43.7254C47.3245 43.9369 47.3014 44.1525 47.2271 44.3529C47.1528 44.5532 47.0298 44.7318 46.869 44.8725C45.8626 45.7553 45.1619 46.9343 44.8674 48.2402C44.5729 49.5461 44.6998 50.9118 45.2298 52.1411C45.7773 53.2964 46.7414 54.2019 47.9287 54.6759C49.116 55.15 50.4387 55.1574 51.6312 54.6968C52.8496 54.2482 53.8997 53.4342 54.6381 52.3662C55.1458 51.6833 55.4178 51.6054 56.0581 51.7087C57.2918 51.8956 58.5523 51.6564 59.6318 51.0305C60.8159 50.3486 61.7557 49.3119 62.3186 48.0669C62.8815 46.8218 63.0389 45.4314 62.7687 44.092C62.5208 42.8556 61.8162 41.7579 60.7953 41.0178C59.7743 40.2776 58.512 39.9493 57.2598 40.0982C57.0591 40.1211 56.8561 40.0828 56.6775 39.9883C56.4989 39.8939 56.353 39.7477 56.2589 39.5689C55.9115 38.9024 55.2897 37.4514 54.677 35.9279" fill="white"/>
<path opacity="0.05" d="M53.34 32.1321C52.6164 30.0334 52.0061 27.8974 51.5115 25.7333C51.4876 25.5302 51.5155 25.3244 51.5925 25.135C51.6695 24.9455 51.793 24.7786 51.9518 24.6497C53.9462 22.8574 54.8708 20.582 53.6986 18.1053C53.1916 16.9467 52.2595 16.0267 51.0943 15.5349C49.9291 15.0431 48.6197 15.017 47.4358 15.462C46.1812 15.9111 44.9029 16.1101 44.1762 17.1469C44.056 17.4071 43.8471 17.6161 43.587 17.7366C43.3269 17.857 43.0324 17.8811 42.7562 17.8044C41.5222 17.6192 40.2619 17.8601 39.1833 18.4876C38.001 19.1697 37.0627 20.2057 36.5007 21.4496C35.9386 22.6934 35.7812 24.0822 36.0506 25.4203C36.2984 26.6568 37.003 27.7544 38.0239 28.4946C39.0449 29.2348 40.3072 29.5631 41.5594 29.4141C41.7632 29.399 41.967 29.4432 42.1462 29.5414C42.3253 29.6396 42.4723 29.7875 42.5692 29.9674C43.69 32.2835 44.6334 34.6813 45.3911 37.1403L45.2033 36.5859L45.2688 36.7787L45.0768 36.2301" fill="#333333"/>
<path d="M53.2441 53.7454C48.286 57.9174 42.251 56.8677 39.7333 52.464C38.2873 49.9234 38.5185 46.4213 40.1886 44.2734C40.3268 44.1328 40.4329 43.9638 40.4995 43.7782C40.5661 43.5926 40.5916 43.3948 40.5744 43.1984C40.2331 41.658 37.2989 33.1122 36.4696 31.795C36.3456 31.638 36.1901 31.5088 36.013 31.4157C35.8359 31.3226 35.6412 31.2678 35.4416 31.2547C29.2341 29.6838 29.1226 23.4591 30.0042 21.2006C31.6724 16.9216 36.1007 15.8008 38.9035 15.9734C39.2211 16.0279 39.5474 15.998 39.8498 15.8868C40.1522 15.7756 40.4201 15.5869 40.6267 15.3397C45.9236 10.2471 52.4007 13.9735 53.5761 17.3834C54.0908 18.614 54.2099 19.9743 53.9169 21.2756C53.624 22.5769 52.9335 23.7549 51.9411 24.6463C51.7824 24.7752 51.6588 24.9421 51.5818 25.1315C51.5048 25.3209 51.477 25.5267 51.5008 25.7298C51.9988 27.8953 52.6127 30.0324 53.34 32.132L54.6891 35.8753C55.282 37.4018 55.9038 38.8528 56.271 39.5163C56.3651 39.6951 56.511 39.8412 56.6896 39.9357C56.8682 40.0301 57.0712 40.0684 57.2719 40.0455C58.5241 39.8966 59.7864 40.2249 60.8074 40.9651C61.8283 41.7053 62.5329 42.8029 62.7808 44.0394C63.05 45.3846 62.888 46.7805 62.3178 48.0282C61.7476 49.276 60.7983 50.3121 59.605 50.989C58.5256 51.6149 57.265 51.8541 56.0314 51.6672C55.3762 51.5662 55.1041 51.6441 54.6113 52.3247C54.2443 52.872 53.7873 53.3532 53.2597 53.748" stroke="#333333" stroke-width="1.8" stroke-linecap="round" stroke-linejoin="round"/>
<path d="M45.9107 15.7706C45.2379 16.0968 44.6395 16.5579 44.1525 17.1253C44.0323 17.3855 43.8234 17.5945 43.5633 17.7149C43.3032 17.8354 43.0087 17.8594 42.7325 17.7828C41.4985 17.5975 40.2382 17.8385 39.1596 18.4659C37.9774 19.1481 37.0391 20.1841 36.477 21.4279C35.915 22.6717 35.7575 24.0606 36.0269 25.3987C36.2721 26.6255 36.9671 27.7163 37.9754 28.4569C38.9836 29.1976 40.2323 29.5346 41.4763 29.4018C41.687 29.3873 41.8978 29.4303 42.086 29.5261C42.2743 29.6218 42.4331 29.7669 42.5455 29.9458C43.6664 32.2618 44.6097 34.6597 45.3674 37.1186L45.1796 36.5643L45.2451 36.757L45.0531 36.2084C45.9737 38.6461 46.7143 41.1479 47.2691 43.6938C47.2992 43.9053 47.2761 44.121 47.2019 44.3213C47.1276 44.5217 47.0045 44.7003 46.8438 44.841C45.8096 45.7736 45.0961 47.0089 44.8052 48.3707C44.5416 49.5902 44.7297 50.864 45.3346 51.9552C45.9395 53.0464 46.9199 53.881 48.0938 54.3037L48.1529 54.325" stroke="#333333" stroke-width="1.8" stroke-linecap="round" stroke-linejoin="round"/>
<path opacity="0.04" d="M43.9804 17.6493C35.6507 18.7127 38.5064 28.3518 42.388 27.6307C42.9307 27.573 43.4781 27.6806 43.9585 27.9394L43.6979 27.7972C44.1485 28.0499 44.4842 28.4666 44.6352 28.9606L49.5138 42.6287C49.6348 42.9869 49.634 43.375 49.5117 43.7327C49.3893 44.0904 49.1522 44.3977 48.8372 44.6067C48.0253 45.1289 43.5358 51.4305 51.3122 55.3859C39.4762 54.0722 47.694 43.4246 47.694 43.4246L42.2259 29.4575C42.2259 29.4575 38.1711 29.49 36.9796 27.7369C33.7088 17.0613 40.8911 17.364 43.9804 17.6493Z" fill="#333333"/>
<path d="M52.0793 32.2115L50.4266 33.0038L48.7739 33.7961" stroke="#333333" stroke-width="1.8" stroke-linecap="round" stroke-linejoin="round"/>
</svg>
