<svg width="40" height="40" viewBox="0 0 40 40" fill="none" xmlns="http://www.w3.org/2000/svg">
<path d="M4.60083 26.56C4.63767 28.1736 4.90711 29.7734 5.40083 31.31H8.10083C9.44083 31.31 11.5108 28.94 11.5108 26.31C11.5108 23.68 8.98083 21.79 7.63083 21.79H5.51083C4.94712 23.3191 4.63965 24.9308 4.60083 26.56Z" fill="#ECECEC"/>
<path fill-rule="evenodd" clip-rule="evenodd" d="M4.60083 26.56C4.63767 28.1736 4.90711 29.7734 5.40083 31.31H9.05083C10.4008 31.31 11.4908 29.17 11.4908 26.53C11.4908 23.89 9.59083 21.79 8.29083 21.79H5.51083C4.94712 23.3191 4.63965 24.9308 4.60083 26.56Z" stroke="#333333" stroke-width="1.5" stroke-linecap="round" stroke-linejoin="round"/>
<path d="M29.5608 26.72C29.5966 28.2798 29.8594 29.826 30.3408 31.31H32.9408C34.2408 31.31 35.6008 29.24 35.6008 26.69C35.6008 24.14 33.7908 21.6 32.4908 21.6H30.4408C29.9205 23.2598 29.6246 24.9817 29.5608 26.72H29.5608Z" fill="#ECECEC"/>
<path fill-rule="evenodd" clip-rule="evenodd" d="M29.5608 26.72C29.5966 28.2798 29.8594 29.826 30.3408 31.31H34.1108C35.4108 31.31 36.4608 29.24 36.4608 26.69C36.4608 24.14 35.0408 21.6 33.7408 21.6H30.4408C29.9205 23.2598 29.6246 24.9817 29.5608 26.72V26.72Z" stroke="#333333" stroke-width="1.5" stroke-linecap="round" stroke-linejoin="round"/>
<path d="M28.1807 26.72C28.1807 29.27 29.2407 31.34 30.5307 31.34C31.8207 31.34 32.8807 29.27 32.8807 26.72C32.8807 24.17 31.8307 21.63 30.5307 21.63C29.2307 21.63 28.1807 24.19 28.1807 26.72Z" fill="#ECECEC"/>
<path d="M32.8407 25.84C32.6307 23.71 31.6807 21.63 30.5307 21.63C29.3807 21.63 28.1807 24.19 28.1807 26.72C28.1807 29.25 29.2407 31.34 30.5307 31.34C31.3507 31.34 32.0607 30.53 32.5307 29.34" stroke="#333333" stroke-width="1.5" stroke-linecap="round" stroke-linejoin="round"/>
<ellipse cx="30.5309" cy="26.72" rx="1.4" ry="3.24" fill="#F7F7F7"/>
<ellipse cx="33.2009" cy="26.48" rx="0.56" ry="1.24" fill="#ECECEC"/>
<path d="M17.4009 26.63C17.4378 28.2305 17.7073 29.8171 18.2009 31.34H20.8809C22.2109 31.34 23.6109 29.21 23.6109 26.6C23.6109 23.99 21.7509 21.85 20.4109 21.85H18.2909C17.7291 23.3824 17.4283 24.9981 17.4009 26.63H17.4009Z" fill="#ECECEC"/>
<path d="M22.2007 27.52C22.2007 27.22 22.2007 26.91 22.2007 26.6C22.2007 23.98 21.1207 21.85 19.7907 21.85H17.4207C16.8554 23.3717 16.5479 24.9771 16.5107 26.6C16.5476 28.2005 16.8171 29.7871 17.3107 31.31H21.0807C21.8707 31.31 22.5807 30.56 23.0207 29.4" stroke="#333333" stroke-width="1.5" stroke-linecap="round" stroke-linejoin="round"/>
<path d="M30.8708 14.47C30.7908 14.43 27.1908 10.19 27.1908 10.19C26.3021 9.43455 25.1772 9.0136 24.0108 9H12.1008C11.8408 9 12.3208 9.13 12.1008 9.32C11.6039 10.1238 11.2107 10.9874 10.9308 11.89C10.5408 12.89 9.93082 14 9.80082 14.37C9.66547 14.7258 9.33982 14.974 8.96082 15.01L3.29082 15.53C2.94919 15.5609 2.64722 15.7647 2.49082 16.07C2.40879 16.2666 2.36469 16.477 2.36082 16.69C1.92082 16.97 2.36082 23.75 2.48082 25.23C2.51664 25.7112 2.89103 26.0982 3.37082 26.15L4.09082 26.19H4.20082L8.12082 27.01H8.32082H15.2108L21.0208 27.53C21.0208 27.53 21.3008 27.63 21.3308 27.63H37.0108C37.4334 27.6226 37.8056 27.3504 37.9408 26.95L38.2408 26.03C38.2649 25.9448 38.302 25.8639 38.3508 25.79L38.5808 19.79C38.583 19.5043 38.4629 19.2314 38.2508 19.04C38.0521 18.6951 37.9389 18.3076 37.9208 17.91L37.8208 16.85C37.8047 16.6487 37.728 16.4569 37.6008 16.3L37.4108 16.06C37.3395 15.9741 37.2551 15.8998 37.1608 15.84C36.79 15.6215 36.3839 15.4693 35.9608 15.39L31.1308 14.55" fill="#F7F7F7"/>
<path opacity="0.05" d="M38.0807 26.33L36.6407 24.33H24.6407L23.5207 25.81L21.2907 25.89C21.2907 25.89 21.1607 22.19 18.9707 21.19C17.5607 20.55 16.9707 21.12 15.9707 20.86C15.7092 20.7863 15.489 20.6094 15.3607 20.37C15.1419 19.9354 14.6972 19.6609 14.2107 19.66C11.4307 19.66 5.82068 19.34 4.43068 19.66C3.25068 19.43 3.02068 21.77 2.66068 23.59C2.35519 24.5265 2.64784 25.5547 3.40068 26.19L8.12068 27.08L17.9607 27.37L21.3307 27.72H37.7207L38.0807 26.33Z" fill="#333333"/>
<path opacity="0.05" d="M15.1809 25.48H8.86087C8.86087 25.48 8.35087 22.55 6.86087 21.99C6.35083 21.7044 5.7362 21.6752 5.20138 21.9112C4.66656 22.1471 4.27378 22.6207 4.14087 23.19L8.14087 27.1L15.2909 26.9L15.1809 25.48Z" fill="#333333"/>
<path d="M2.84082 15.67L9.69082 15.03C9.69082 15.03 11.0908 9.13 11.0108 9.12C23.6908 9.12 24.7608 9.12 24.7608 9.12C24.7608 9.12 26.0708 9.51 28.3908 11.84C30.7108 14.17 30.6408 14.28 30.6408 14.28L36.9108 15.61L37.6008 16.27C37.6008 16.27 38.1108 16.72 37.6008 16.92C37.0191 16.9089 36.4397 16.8419 35.8708 16.72C31.5108 16.87 29.1008 16.84 29.1008 16.84L24.9008 16.96L21.2908 16.83L18.6608 15.52L3.16082 16.19L2.84082 15.67Z" fill="white"/>
<path d="M37.7007 26.19L38.0607 25.19C37.8907 24.68 36.6807 24.26 36.1507 24.26H26.0007C25.0913 24.2594 24.2306 24.6713 23.6607 25.38L23.5507 25.51C23.3526 25.7613 23.0507 25.9086 22.7307 25.91H20.6607L20.1007 26.1L19.9707 27.48L21.2807 27.7H37.7207L38.1107 26.55" fill="#ECECEC"/>
<path d="M14.0908 11.24C14.4308 12.6 14.8708 14.02 15.0108 14.45C15.0624 14.6087 15.0198 14.783 14.9008 14.9H9.80078" fill="white"/>
<path d="M14.0908 11.24C14.4308 12.6 14.8708 14.02 15.0108 14.45C15.0624 14.6087 15.0198 14.783 14.9008 14.9H9.80078" stroke="#333333" stroke-width="1.5" stroke-linecap="round" stroke-linejoin="round"/>
<path opacity="0.05" d="M12.2908 9.34L12.0308 9.4L13.0008 15.19L14.8608 15.04L13.3208 9.37L12.2908 9.34Z" fill="#333333"/>
<path opacity="0.05" d="M9.23071 15.35L12.3107 15.43L11.1007 9.35001L9.23071 15.35Z" fill="#333333"/>
<path d="M20.7008 14.51H30.8508L27.6908 10.79C27.004 9.96027 26.0675 9.37454 25.0208 9.12001C24.6925 9.04689 24.3572 9.01001 24.0208 9.01001H12.1908C11.8564 9.01895 11.5351 9.14251 11.2808 9.36001C11.0269 9.63184 10.8357 9.95615 10.7208 10.31L9.62085 14.81" stroke="#333333" stroke-width="1.5" stroke-linecap="round" stroke-linejoin="round"/>
<path d="M2.4707 16.19V16.19C2.59677 15.8323 2.91433 15.5767 3.2907 15.53L7.2907 15.29" stroke="#333333" stroke-width="1.5" stroke-linecap="round" stroke-linejoin="round"/>
<path d="M2.11077 18.25C2.08077 19.49 1.99077 20.99 2.00077 22.64C2.01972 23.6976 2.7316 24.6169 3.75077 24.9L4.54077 25.24" stroke="#333333" stroke-width="1.5" stroke-linecap="round" stroke-linejoin="round"/>
<path d="M37.8308 17.42C35.214 17.647 32.5869 17.7338 29.9608 17.68L21.0908 17.01L20.8008 18.83L20.8708 21.03L23.2708 21.67L38.4908 22.04L38.2908 20.43L38.0008 19.05L37.8308 17.42Z" fill="#ECECEC"/>
<path d="M13.1708 27.06H8.62085" stroke="#333333" stroke-width="1.5" stroke-linecap="round" stroke-linejoin="round"/>
<path d="M33.0407 14.99L35.9807 15.52C36.0723 15.5363 36.1626 15.5597 36.2507 15.59C37.0323 15.7943 37.6413 16.4071 37.8407 17.19C37.8449 17.2432 37.8449 17.2967 37.8407 17.35V17.87C37.868 18.1762 37.9422 18.4763 38.0607 18.76C38.1607 19 38.2907 19.33 38.3807 19.63C38.4604 19.9097 38.5008 20.1991 38.5007 20.49C38.5318 22.166 38.4617 23.8424 38.2907 25.51C38.1307 26.29 37.8707 27.16 37.8707 27.16C37.8123 27.466 37.5421 27.6855 37.2307 27.68H21.4307" stroke="#333333" stroke-width="1.5" stroke-linecap="round" stroke-linejoin="round"/>
<path d="M17.0908 11.06L17.9708 14.06C18.063 14.3119 18.3026 14.4796 18.5708 14.48" stroke="#333333" stroke-width="1.5" stroke-linecap="round" stroke-linejoin="round"/>
<path d="M34.4009 21.69H38.4809" stroke="#333333" stroke-width="1.5" stroke-linecap="round" stroke-linejoin="round"/>
<path d="M21.0907 17.52C21.0907 17.52 20.6007 17.45 20.6207 18.52V20.37C20.6164 20.8753 20.9897 21.3043 21.4907 21.37C25.6307 21.61 29.2307 21.68 32.1407 21.7" stroke="#333333" stroke-width="1.5" stroke-linecap="round" stroke-linejoin="round"/>
<path d="M23.1108 17.69H23.0308" stroke="#333333" stroke-width="1.5" stroke-linecap="round" stroke-linejoin="round"/>
<path d="M35.6109 17.91C33.3309 17.99 29.7509 18.06 25.1509 17.81" stroke="#333333" stroke-width="1.5" stroke-linecap="round" stroke-linejoin="round"/>
<ellipse cx="17.5108" cy="26.6" rx="2.41" ry="4.74" fill="#ECECEC"/>
<path d="M15.1108 26.27C15.1108 26.38 15.1108 26.49 15.1108 26.6C15.1108 29.22 16.1908 31.34 17.5208 31.34C18.8508 31.34 19.9408 29.22 19.9408 26.6C19.9397 26.296 19.923 25.9923 19.8908 25.69" stroke="#333333" stroke-width="1.5" stroke-linecap="round" stroke-linejoin="round"/>
<path d="M15.4607 24.19V24.3" stroke="#333333" stroke-width="1.5" stroke-linecap="round" stroke-linejoin="round"/>
<path d="M19.8807 25.75C19.6707 23.53 18.6907 21.86 17.5107 21.86C17.1342 21.8767 16.7775 22.0336 16.5107 22.3" stroke="#333333" stroke-width="1.5" stroke-linecap="round" stroke-linejoin="round"/>
<ellipse cx="5.61066" cy="26.56" rx="2.43" ry="4.78" fill="#ECECEC"/>
<path d="M7.94072 28.05C8.00566 27.5828 8.03907 27.1117 8.04072 26.64C8.04072 26.32 8.04072 26.01 8.04072 25.71" stroke="#333333" stroke-width="1.5" stroke-linecap="round" stroke-linejoin="round"/>
<path d="M3.80078 23.38C3.3718 24.3843 3.16049 25.4681 3.18078 26.56C3.18078 29.19 4.29078 31.34 5.61078 31.34C6.27954 31.2713 6.86367 30.8579 7.15078 30.25" stroke="#333333" stroke-width="1.5" stroke-linecap="round" stroke-linejoin="round"/>
<path d="M8.00081 25.45C7.78081 23.36 6.79081 21.78 5.61081 21.78C5.42867 21.7818 5.24864 21.8192 5.08081 21.89" stroke="#333333" stroke-width="1.5" stroke-linecap="round" stroke-linejoin="round"/>
<path d="M20.1108 27.68H36.4608" stroke="#333333" stroke-width="1.5" stroke-linecap="round" stroke-linejoin="round"/>
<path opacity="0.05" d="M25.8707 9.43L22.7607 9.41L26.4607 14.38L29.6707 14.41L25.8707 9.43Z" fill="#333333"/>
<path opacity="0.05" d="M20.3309 9.59999L16.4009 9.51999L17.7809 14.49L23.8709 14.52L20.3309 9.59999Z" fill="#333333"/>
<ellipse cx="17.4708" cy="26.72" rx="0.92" ry="2.42" fill="#ECECEC"/>
<ellipse cx="5.57088" cy="26.69" rx="0.92" ry="2.42" fill="#ECECEC"/>
</svg>
