<svg width="40" height="40" viewBox="0 0 40 40" fill="none" xmlns="http://www.w3.org/2000/svg">
<path d="M31.9316 33.6686L31.7744 31.588C31.5938 30.7345 30.8046 30.1302 29.904 30.1556H10.0417C9.14105 30.1302 8.35191 30.7345 8.17129 31.588L8.01405 33.6686C7.93556 34.0482 8.04481 34.4414 8.30944 34.7318C8.57408 35.0222 8.96375 35.1765 9.36303 35.1491H30.5826C30.9819 35.1765 31.3716 35.0222 31.6362 34.7318C31.9009 34.4414 32.0101 34.0482 31.9316 33.6686Z" fill="#ECECEC"/>
<path d="M9.94238 33.8527L17.2418 6.0047C17.4956 5.40815 18.0614 4.98947 18.7232 4.90839C19.7649 4.70744 20.8427 4.77085 21.8515 5.09244C22.2317 5.16849 22.5444 5.42859 22.6791 5.78064L30.7978 34.1248L9.94238 33.8527Z" fill="#ECECEC"/>
<path d="M12.541 22.7615H27.4129L26.2212 18.2642H13.7328L12.541 22.7615Z" fill="white"/>
<path d="M14.85 14.8152H25.1039L23.9453 10.3179H16.0086L14.85 14.8152Z" fill="white"/>
<path d="M22.9687 30.1556H22.7039" stroke="#333333" stroke-width="1.59783" stroke-linecap="round" stroke-linejoin="round"/>
<path d="M15.5948 35.1491H30.5826C30.9819 35.1765 31.3716 35.0222 31.6362 34.7318C31.9009 34.4414 32.0101 34.0482 31.9316 33.6686L31.7744 31.588C31.5938 30.7345 30.8046 30.1302 29.904 30.1556H25.2033" stroke="#333333" stroke-width="1.59783" stroke-linecap="round" stroke-linejoin="round"/>
<path d="M24.3588 35.1491H9.37103C8.97174 35.1765 8.58207 35.0222 8.31744 34.7318C8.05281 34.4414 7.94356 34.0482 8.02205 33.6686L8.17929 31.588C8.35991 30.7345 9.14905 30.1302 10.0497 30.1556H20.3284" stroke="#333333" stroke-width="1.59783" stroke-linecap="round" stroke-linejoin="round"/>
<path d="M29.1261 30.1552L22.9274 7.38071C22.609 6.04344 21.3995 5.08093 19.9811 5.03604V5.03604C18.5607 5.08013 17.3483 6.0422 17.0266 7.38071L11.5231 27.6025" stroke="#333333" stroke-width="1.59783" stroke-linecap="round" stroke-linejoin="round"/>
</svg>
