<svg width="40" height="40" viewBox="0 0 40 40" fill="none" xmlns="http://www.w3.org/2000/svg">
<path d="M4.30229 21.2556C3.58305 20.0099 4.00988 18.4169 5.25563 17.6977L24.8044 6.4112C26.0502 5.69197 27.6431 6.11879 28.3624 7.36455L29.6822 9.65065C29.5479 9.70147 29.4164 9.76355 29.2887 9.83725C27.8353 10.6764 27.4346 12.7031 28.3935 14.3641C29.3525 16.0251 31.3081 16.6914 32.7615 15.8523C32.8891 15.7786 33.0087 15.6957 33.1198 15.6048L34.8738 18.6427C35.593 19.8885 35.1662 21.4814 33.9205 22.2006L14.3717 33.4871C13.1259 34.2064 11.533 33.7795 10.8137 32.5338L9.05978 29.4958C9.19415 29.445 9.32566 29.3829 9.4533 29.3093C10.9067 28.4701 11.3075 26.4434 10.3485 24.7824C9.38951 23.1214 7.43391 22.4551 5.98053 23.2942C5.85289 23.3679 5.73337 23.4508 5.62218 23.5417L4.30229 21.2556Z" fill="#9497B2"/>
<path d="M7.8872 16.1784L5.25563 17.6977C4.00988 18.4169 3.58305 20.0099 4.30229 21.2556L5.62218 23.5417C5.73337 23.4508 5.85289 23.3679 5.98053 23.2942C7.43391 22.4551 9.38951 23.1214 10.3485 24.7824C11.3075 26.4434 10.9067 28.4701 9.4533 29.3093C9.32566 29.3829 9.19415 29.445 9.05978 29.4958L10.8137 32.5338C11.533 33.7795 13.1259 34.2064 14.3717 33.4871L33.9205 22.2006C35.1662 21.4814 35.593 19.8885 34.8738 18.6427L33.1198 15.6048C33.0087 15.6957 32.8891 15.7786 32.7615 15.8523C31.3081 16.6914 29.3525 16.0251 28.3935 14.3641C27.4346 12.7031 27.8353 10.6764 29.2887 9.83725C29.4164 9.76355 29.5479 9.70147 29.6822 9.65065L28.3624 7.36455C27.6431 6.11879 26.0502 5.69197 24.8044 6.4112L11.6466 14.0079" stroke="black" stroke-width="1.5" stroke-linecap="round" stroke-linejoin="round"/>
<path d="M18.8906 15.3659C18.8855 15.1976 18.922 15.0482 19 14.9175C19.0816 14.7753 19.1952 14.6622 19.341 14.578C19.5405 14.4628 19.7614 14.4114 20.0038 14.4236L20.3146 24.5299C20.3171 24.8708 20.1687 25.1277 19.8695 25.3004C19.67 25.4156 19.4432 25.4657 19.1891 25.4507L18.8906 15.3659ZM17.2707 22.0217C16.9332 22.2166 16.5836 22.3376 16.222 22.3847C15.864 22.4202 15.5389 22.3797 15.2465 22.2631C14.9542 22.1466 14.736 21.9635 14.5918 21.7138L13.6652 20.1089C13.5211 19.8593 13.4678 19.581 13.5054 19.2739C13.5506 18.9625 13.6802 18.6642 13.894 18.3791C14.1114 18.0823 14.3928 17.8343 14.738 17.635C15.0756 17.4401 15.4213 17.3213 15.7752 17.2787C16.1291 17.236 16.4484 17.2752 16.733 17.3962C17.0254 17.5127 17.2457 17.6994 17.3939 17.9562L18.3205 19.5611C18.4647 19.8107 18.5141 20.0913 18.4689 20.4027C18.4313 20.7097 18.3076 21.0094 18.0979 21.3017C17.884 21.5868 17.6083 21.8268 17.2707 22.0217ZM16.8198 21.2407C17.073 21.0945 17.2472 20.9178 17.3424 20.7107C17.4335 20.4964 17.4255 20.2966 17.3184 20.1111L16.4166 18.549C16.3136 18.3707 16.1466 18.2674 15.9154 18.2391C15.6843 18.2109 15.4422 18.2699 15.189 18.416C14.9281 18.5666 14.7483 18.7513 14.6495 18.97C14.5584 19.1843 14.5643 19.3806 14.6673 19.5589L15.5692 21.121C15.6763 21.3065 15.8454 21.4133 16.0765 21.4416C16.3035 21.4627 16.5513 21.3957 16.8198 21.2407ZM24.4672 22.2608C24.1296 22.4557 23.78 22.5767 23.4185 22.6237C23.0605 22.6592 22.7353 22.6187 22.443 22.5022C22.1583 22.3812 21.9439 22.1959 21.7998 21.9462L20.8732 20.3413C20.729 20.0917 20.6758 19.8133 20.7133 19.5063C20.7586 19.1949 20.8881 18.8966 21.102 18.6114C21.3194 18.3147 21.5969 18.0689 21.9345 17.874C22.2797 17.6747 22.6293 17.5537 22.9832 17.5111C23.337 17.4684 23.6563 17.5076 23.941 17.6286C24.2256 17.7495 24.4421 17.9384 24.5904 18.1952L25.517 19.8001C25.6611 20.0498 25.7105 20.3303 25.6653 20.6417C25.6277 20.9488 25.5041 21.2484 25.2943 21.5407C25.0805 21.8258 24.8047 22.0659 24.4672 22.2608ZM24.0384 21.4384C24.2992 21.2878 24.4773 21.1089 24.5725 20.9018C24.6713 20.683 24.6692 20.4845 24.5663 20.3062L23.6767 18.7655C23.5779 18.5943 23.4091 18.4968 23.1703 18.473C22.9315 18.4492 22.6855 18.5104 22.4323 18.6565C22.1714 18.8071 21.9878 18.994 21.8813 19.2172C21.7826 19.4359 21.7826 19.6308 21.8814 19.802L22.771 21.3427C22.8739 21.521 23.0448 21.6221 23.2836 21.6459C23.5259 21.6582 23.7775 21.589 24.0384 21.4384Z" fill="black"/>
</svg>
