<svg width="40" height="40" viewBox="0 0 40 40" fill="none" xmlns="http://www.w3.org/2000/svg">
<path d="M23.076 10.7317C26.6799 11.7728 29.0665 14.4076 27.8813 18.412L22.6916 35.4625C22.4193 36.3675 19.2719 36.2634 15.66 35.2223C12.048 34.1811 9.35712 32.6034 9.62941 31.6904L14.771 14.6479C16.0043 10.6436 19.4641 9.69853 23.076 10.7317Z" fill="#F7F7F7"/>
<path d="M24.7979 28.8233C24.0904 30.2784 22.6632 31.2481 21.0498 31.3701C18.9115 31.3701 17.518 28.9675 18.0386 26.1484C18.5591 23.3293 20.7775 21.159 22.8918 21.4473C24.5944 21.7067 25.8314 23.2021 25.767 24.9231C25.5828 25.9082 25.0382 27.8543 24.7979 28.8233Z" fill="#ECECEC"/>
<path d="M15.1074 13.791C16.5409 10.5154 19.7444 9.78664 23.1161 10.7317C26.4477 11.6927 28.7222 14.0232 28.0975 17.523V17.5711C27.8252 18.4761 24.838 19.309 21.2661 18.2759C17.6942 17.2427 14.8591 14.744 15.1474 13.839L15.1074 13.791Z" fill="#ECECEC"/>
<path d="M26.9763 13.0782C28.1943 14.5748 28.5266 16.6053 27.8492 18.412L22.6916 35.4626C22.4193 36.3675 19.4881 36.9922 15.8842 35.9511C12.2803 34.9099 9.35712 32.6034 9.62942 31.6904L12.2803 22.9449" stroke="#333333" stroke-width="1.60174" stroke-linecap="round" stroke-linejoin="round"/>
<path d="M12.2803 22.9449L14.771 14.6479C15.9883 10.6436 19.4481 9.69853 23.06 10.7317V10.7317" stroke="#333333" stroke-width="1.60174" stroke-linecap="round" stroke-linejoin="round"/>
<path d="M25.6548 8.72147L24.6698 11.989C24.5897 12.2373 23.7167 12.2133 22.7156 11.925C21.7146 11.6366 20.9617 11.1962 21.0418 10.9399L22.0269 7.67233" fill="#ECECEC"/>
<path d="M25.6548 8.72147L24.6698 11.989C24.5897 12.2373 23.7167 12.2133 22.7156 11.925C21.7146 11.6366 20.9617 11.1962 21.0418 10.9399L22.0269 7.67233" stroke="#333333" stroke-width="1.60174" stroke-linecap="round" stroke-linejoin="round"/>
<path d="M22.075 7.52818C22.1711 7.19983 23.068 7.15978 24.0691 7.4481C25.0702 7.73641 25.799 8.24897 25.6709 8.57732L25.3425 9.6585" stroke="#333333" stroke-width="1.60174" stroke-linecap="round" stroke-linejoin="round"/>
<path d="M28.0174 17.7873C27.7371 18.7003 24.8139 19.317 21.21 18.2759C19.5799 17.8108 18.0375 17.0803 16.6451 16.1135" stroke="#333333" stroke-width="1.60174" stroke-linecap="round" stroke-linejoin="round"/>
<path d="M31.1408 9.57841L28.7943 8.91369" stroke="#ECECEC" stroke-width="1.60174" stroke-linecap="round" stroke-linejoin="round"/>
<path d="M30.6282 5.63013L28.4018 6.88749" stroke="#ECECEC" stroke-width="1.60174" stroke-linecap="round" stroke-linejoin="round"/>
<path d="M27.4808 3.20349L26.7921 5.65416" stroke="#ECECEC" stroke-width="1.60174" stroke-linecap="round" stroke-linejoin="round"/>
</svg>
