<svg width="40" height="40" viewBox="0 0 40 40" fill="none" xmlns="http://www.w3.org/2000/svg">
<mask id="mask0_978_4042" style="mask-type:alpha" maskUnits="userSpaceOnUse" x="0" y="0" width="40" height="40">
<rect width="40" height="40" fill="#C4C4C4"/>
</mask>
<g mask="url(#mask0_978_4042)">
<path fill-rule="evenodd" clip-rule="evenodd" d="M5.99303 14.366C8.54307 8.96938 14.1415 5.68873 20.0959 6.10172H21.3946C28.6392 6.56323 33.1148 12.1872 33.587 19.2923C33.9368 25.1944 30.5568 30.6847 25.1296 33.0303C19.652 35.4554 13.2511 34.3178 8.94455 30.1539C4.69383 26.0596 3.50855 19.7194 5.99303 14.366ZM13.023 28.018C14.8426 29.4996 17.1162 30.3105 19.4627 30.3148H19.4842C21.8669 30.3161 24.1751 29.4847 26.0097 27.9643C26.2285 27.7828 26.3551 27.5133 26.3551 27.2291C26.3551 26.9449 26.2285 26.6754 26.0097 26.4939L21.5019 22.8126L22.5752 20.9236L28.1133 22.8984C28.3863 22.9975 28.6891 22.9699 28.9398 22.8233C29.1929 22.6857 29.3703 22.4412 29.4227 22.1579C30.2242 17.4667 27.5467 12.8761 23.0689 11.2641C22.7895 11.1679 22.4827 11.1912 22.221 11.3285C21.9694 11.473 21.7931 11.7198 21.7381 12.0046L20.7506 17.6608H18.5075L17.4342 11.9295C17.3868 11.6474 17.2181 11.4003 16.9727 11.2533C16.7155 11.1155 16.4132 11.0884 16.1355 11.1782C11.517 12.7117 8.71806 17.3963 9.55633 22.1901C9.61293 22.4715 9.78923 22.7144 10.0393 22.8555C10.2965 22.9933 10.5988 23.0204 10.8765 22.9306L16.5219 20.8914L17.6489 22.7911L13.023 26.5368C12.8004 26.7182 12.6711 26.9902 12.6711 27.2774C12.6711 27.5646 12.8004 27.8366 13.023 28.018Z" fill="#F7F7F7"/>
<path d="M22.3068 20.4622C22.4221 21.5729 21.8818 22.6494 20.9223 23.2206C19.961 23.8109 18.7496 23.8109 17.7883 23.2206C16.8288 22.6494 16.2885 21.5729 16.4038 20.4622C16.5559 19.1516 17.4705 18.0558 18.7328 17.6717C18.7328 17.5429 19.7095 17.5858 19.8812 17.6717C21.2726 17.906 22.2952 19.105 22.3068 20.5159V20.4622Z" fill="#ECECEC"/>
<path opacity="0.05" d="M16.1355 21.3101L16.1999 21.9541C16.2279 22.2323 16.1151 22.5061 15.8994 22.6839L12.379 25.5818C12.1395 25.7791 11.992 26.0664 11.9712 26.376C11.9515 26.6834 12.0649 26.9844 12.2824 27.2024C13.685 28.5752 15.5579 29.362 17.52 29.4027L12.8513 26.8053L17.5415 22.7054L16.2965 21.0204L16.1355 21.3101Z" fill="#333333"/>
<path d="M18.7329 17.6717C18.7329 17.5429 19.7096 17.5858 19.8813 17.6717H18.7329Z" fill="#ECECEC"/>
<path d="M23.1333 7.7439C23.1333 7.7439 41.379 17.983 24.8827 32.7406L29.8198 29.671L33.1363 24.8842L33.9305 20.1939L32.4386 14.5056L28.328 9.90119L23.1333 7.7439Z" fill="white"/>
<path d="M16.3931 11.1033C16.3931 11.1033 8.26841 12.6167 8.88018 20.8487C8.94458 21.7395 9.52415 22.9953 10.4042 23.1777L11.3702 22.9416L9.8676 20.7306L10.533 17.0386L13.0874 13.4967L16.5434 11.9298L16.3931 11.1033Z" fill="white"/>
<path d="M22.1193 30.7538C22.5218 30.6559 22.7686 30.2502 22.6706 29.8477C22.5727 29.4453 22.167 29.1984 21.7645 29.2964L22.1193 30.7538ZM13.023 28.0288L12.5493 28.6103L12.5494 28.6104L13.023 28.0288ZM13.023 26.5477L12.5508 25.965L12.5493 25.9662L13.023 26.5477ZM17.6273 23.7817C17.9491 23.5209 17.9986 23.0487 17.7378 22.7268C17.477 22.405 17.0047 22.3556 16.6829 22.6164L17.6273 23.7817ZM24.4776 24.2822C24.157 24.0199 23.6845 24.0672 23.4222 24.3878C23.1599 24.7083 23.2071 25.1809 23.5277 25.4432L24.4776 24.2822ZM26.0097 26.5048L26.4885 25.9275L26.4846 25.9243L26.0097 26.5048ZM26.0097 27.9752L26.481 28.5587L26.4885 28.5524L26.0097 27.9752ZM24.7457 27.9844C24.4011 28.2142 24.308 28.6798 24.5377 29.0245C24.7675 29.3691 25.2331 29.4622 25.5778 29.2325L24.7457 27.9844ZM14.4465 7.97346C14.8341 7.82745 15.03 7.39485 14.884 7.00723C14.738 6.6196 14.3054 6.42373 13.9178 6.56975L14.4465 7.97346ZM6.22915 14.6343L5.54971 14.3167L5.54806 14.3203L6.22915 14.6343ZM9.20213 30.5081L8.68085 31.0473L8.6809 31.0474L9.20213 30.5081ZM25.473 33.3952L25.1751 32.7069L25.1692 32.7095L25.473 33.3952ZM33.9734 19.5499L34.7221 19.5041L34.7212 19.4921L33.9734 19.5499ZM13.6741 22.7134C14.0638 22.5731 14.2661 22.1435 14.1258 21.7537C13.9856 21.364 13.5559 21.1617 13.1662 21.302L13.6741 22.7134ZM10.855 22.9307L11.0858 23.6443C11.0936 23.6418 11.1013 23.6391 11.1089 23.6364L10.855 22.9307ZM10.0178 22.8556L9.64939 23.5088C9.65412 23.5115 9.65887 23.5141 9.66365 23.5167L10.0178 22.8556ZM9.53486 22.1901L8.79598 22.3188C8.79709 22.3252 8.79829 22.3316 8.79957 22.3379L9.53486 22.1901ZM16.1355 11.1783L15.9047 10.4647L15.9007 10.466L16.1355 11.1783ZM16.9727 11.2534L17.3579 10.6099C17.3477 10.6038 17.3374 10.5979 17.3269 10.5923L16.9727 11.2534ZM17.4342 11.9296L16.6945 12.0538L16.6956 12.0597L17.4342 11.9296ZM17.6615 17.5441C17.7334 17.9521 18.1223 18.2245 18.5302 18.1527C18.9382 18.0808 19.2106 17.6919 19.1388 17.2839L17.6615 17.5441ZM20.3233 14.8687C20.2512 15.2766 20.5235 15.6657 20.9314 15.7378C21.3393 15.8098 21.7284 15.5376 21.8004 15.1297L20.3233 14.8687ZM21.5985 11.9618L22.3371 12.0923L22.3385 12.0837L21.5985 11.9618ZM22.0708 11.2857L21.7017 10.6328L21.7015 10.6328L22.0708 11.2857ZM22.8972 11.2105L22.6519 11.9194L22.6643 11.9235L22.8972 11.2105ZM29.53 22.1902L30.2676 22.3266L30.2695 22.3158L29.53 22.1902ZM29.0471 22.8556L29.4013 23.5167L29.4053 23.5145L29.0471 22.8556ZM28.2099 22.9307L27.9563 23.6365C27.9638 23.6393 27.9714 23.6419 27.9791 23.6443L28.2099 22.9307ZM23.6553 20.497C23.2655 20.3569 22.8359 20.5593 22.6958 20.9491C22.5557 21.3389 22.7582 21.7685 23.148 21.9086L23.6553 20.497ZM21.7645 29.2964C21.0103 29.48 20.237 29.5737 19.4608 29.5756L19.4645 31.0756C20.359 31.0734 21.2502 30.9654 22.1193 30.7538L21.7645 29.2964ZM19.464 29.5756C17.2896 29.5717 15.1827 28.8202 13.4965 27.4472L12.5494 28.6104C14.5024 30.2006 16.9428 31.071 19.4613 31.0756L19.464 29.5756ZM13.4967 27.4473C13.4489 27.4084 13.4211 27.3499 13.4211 27.2882H11.9211C11.9211 27.8009 12.1518 28.2864 12.5493 28.6103L13.4967 27.4473ZM13.4211 27.2882C13.4211 27.2265 13.4489 27.1681 13.4967 27.1291L12.5493 25.9662C12.1518 26.29 11.9211 26.7755 11.9211 27.2882H13.4211ZM13.4952 27.1304L17.6273 23.7817L16.6829 22.6164L12.5508 25.965L13.4952 27.1304ZM23.5277 25.4432L25.5347 27.0853L26.4846 25.9243L24.4776 24.2822L23.5277 25.4432ZM25.5308 27.0821C25.5778 27.121 25.605 27.1789 25.605 27.24H27.105C27.105 26.7326 26.879 26.2515 26.4885 25.9276L25.5308 27.0821ZM25.605 27.24C25.605 27.3011 25.5778 27.359 25.5308 27.398L26.4885 28.5524C26.879 28.2285 27.105 27.7474 27.105 27.24H25.605ZM25.5384 27.3917C25.2672 27.6108 25.0083 27.8094 24.7457 27.9844L25.5778 29.2325C25.8949 29.0211 26.194 28.7904 26.4809 28.5587L25.5384 27.3917ZM13.9178 6.56975C10.2243 7.96102 7.22115 10.7412 5.54972 14.3167L6.90857 14.9519C8.4142 11.7312 11.1194 9.22672 14.4465 7.97346L13.9178 6.56975ZM5.54806 14.3203C2.93145 19.9951 4.18794 26.704 8.68085 31.0473L9.72341 29.9689C5.68888 26.0686 4.56058 20.0442 6.91023 14.9483L5.54806 14.3203ZM8.6809 31.0474C13.2305 35.4448 19.9921 36.6446 25.7769 34.0809L25.1692 32.7095C19.9427 35.0257 13.8338 33.9418 9.72336 29.9688L8.6809 31.0474ZM25.771 34.0835C31.5261 31.5924 35.1048 25.7636 34.722 19.5041L33.2248 19.5957C33.569 25.2248 30.3508 30.4667 25.1751 32.7069L25.771 34.0835ZM34.7212 19.4921C34.1365 11.9339 28.0385 5.98085 20.4685 5.57818L20.3888 7.07606C27.2068 7.43873 32.6991 12.8004 33.2256 19.6078L34.7212 19.4921ZM13.1662 21.302L10.6011 22.225L11.1089 23.6364L13.6741 22.7134L13.1662 21.302ZM10.6242 22.2171C10.5405 22.2441 10.4495 22.236 10.372 22.1945L9.66365 23.5167C10.1006 23.7508 10.6141 23.7969 11.0858 23.6443L10.6242 22.2171ZM10.3863 22.2023C10.3261 22.1684 10.2838 22.11 10.2701 22.0423L8.79957 22.3379C8.89914 22.8332 9.20936 23.2606 9.64939 23.5088L10.3863 22.2023ZM10.2737 22.0614C9.50168 17.6282 12.0965 13.2992 16.3703 11.8906L15.9007 10.466C10.9202 12.1076 7.89624 17.1525 8.79598 22.3188L10.2737 22.0614ZM16.3663 11.8919C16.45 11.8648 16.541 11.873 16.6185 11.9145L17.3269 10.5923C16.8899 10.3582 16.3764 10.3121 15.9047 10.4647L16.3663 11.8919ZM16.5874 11.8969C16.6444 11.931 16.6836 11.9884 16.6946 12.0538L18.1738 11.8053C18.09 11.3066 17.7918 10.8697 17.3579 10.6099L16.5874 11.8969ZM16.6956 12.0597L17.6615 17.5441L19.1388 17.2839L18.1728 11.7995L16.6956 12.0597ZM21.8004 15.1297L22.3371 12.0923L20.8599 11.8313L20.3233 14.8687L21.8004 15.1297ZM22.3385 12.0837C22.3486 12.0225 22.3859 11.969 22.44 11.9385L21.7015 10.6328C21.2523 10.8869 20.9424 11.3307 20.8585 11.8399L22.3385 12.0837ZM22.4398 11.9386C22.5045 11.902 22.5817 11.895 22.6519 11.9193L23.1425 10.5018C22.6656 10.3368 22.1409 10.3845 21.7017 10.6328L22.4398 11.9386ZM22.6643 11.9235C26.937 13.319 29.5433 17.6332 28.7906 22.0646L30.2695 22.3158C31.1466 17.1516 28.1093 12.1239 23.13 10.4976L22.6643 11.9235ZM28.7926 22.0538C28.7813 22.1146 28.7432 22.1671 28.6888 22.1967L29.4053 23.5145C29.8572 23.2688 30.174 22.8323 30.2675 22.3266L28.7926 22.0538ZM28.6929 22.1945C28.6154 22.236 28.5244 22.2442 28.4407 22.2171L27.9791 23.6443C28.4508 23.7969 28.9643 23.7508 29.4013 23.5167L28.6929 22.1945ZM28.4636 22.2249L23.6553 20.497L23.148 21.9086L27.9563 23.6365L28.4636 22.2249Z" fill="#333333"/>
<path d="M20.1174 17.7361C20.1174 17.7361 22.2103 20.5051 20.053 22.92L21.7595 22.6839L22.5752 21.1598L22.3283 19.2923L21.0833 17.9614L20.1174 17.7361Z" fill="white"/>
<path d="M22.9508 20.4944C22.9799 21.4931 22.5437 22.4487 21.7702 23.081V23.081C20.8865 23.9315 19.5965 24.2062 18.443 23.7894C17.2791 23.3587 16.4515 22.3161 16.2965 21.0847C16.1441 19.8665 16.6977 18.6676 17.7239 17.9937C18.5732 17.4127 19.6451 17.2618 20.6218 17.5858" stroke="#333333" stroke-width="1.5" stroke-linecap="round" stroke-linejoin="round"/>
<path d="M17.0049 6.23054L17.0908 6.21981" stroke="#333333" stroke-width="1.5" stroke-linecap="round" stroke-linejoin="round"/>
</g>
</svg>
