<svg width="40" height="40" viewBox="0 0 40 40" fill="none" xmlns="http://www.w3.org/2000/svg">
<path d="M16.8209 13.5969L15.3593 10.3085C15.1542 9.84685 15.3244 9.30237 15.768 9.06065C18.9757 7.31251 22.0799 6.6782 23.7814 6.5341C24.2103 6.49777 24.5918 6.77543 24.7279 7.18377L25.3046 8.91368C25.4243 9.27302 25.3313 9.67086 25.0579 9.93306C21.3928 13.4487 18.6868 14.1756 17.4316 14.0801C17.1514 14.0587 16.935 13.8537 16.8209 13.5969Z" fill="#ADAEC2"/>
<path d="M21.84 20.08C24.38 20.66 27.63 16.14 27.63 16.14C30.0553 17.552 31.8641 19.821 32.7 22.5C32.762 23.5383 32.4885 24.569 31.92 25.44L25.31 30.49C24.4596 31.3195 23.318 31.7826 22.13 31.78L9.91001 31.84C9.22001 31.84 9.49001 31.1 9.39001 30.42C9.91001 22.18 17.53 22.79 17.23 22.77C17.5562 21.9307 18.038 21.1605 18.65 20.5C18.99 20.63 19.75 20.63 21.84 20.08Z" fill="#9497B2"/>
<path d="M21.84 20.08C24.38 20.66 27.63 16.14 27.63 16.14C30.0553 17.552 31.8641 19.821 32.7 22.5C32.762 23.5383 32.4885 24.569 31.92 25.44L25.31 30.49C24.4596 31.3195 23.318 31.7826 22.13 31.78L9.91001 31.84C9.22001 31.84 9.49001 31.1 9.39001 30.42C9.91001 22.18 17.53 22.79 17.23 22.77C17.5562 21.9307 18.038 21.1605 18.65 20.5C18.99 20.63 19.75 20.63 21.84 20.08Z" fill="#9497B2"/>
<path d="M15.86 23.52C15.86 23.52 15.98 23.22 16.19 22.82C14.8556 22.9544 13.5764 23.422 12.47 24.18C13.5468 23.7432 14.698 23.5191 15.86 23.52Z" fill="#9497B2"/>
<path d="M9.52002 29.24C9.52002 29.24 9.52002 32.05 10.22 32.05H22.11C23.3444 32.0398 24.5269 31.5524 25.41 30.69L33.13 24.93C33.61 24.47 31.72 21.99 31.72 21.99L23.72 28.7C23.1396 29.2169 22.3572 29.4447 21.59 29.32H12.97" fill="#6C709C"/>
<path d="M32.7 22.5C31.864 19.821 30.0553 17.552 27.63 16.14C27.4658 16.4227 27.2639 16.6817 27.03 16.91C28.9115 18.3184 30.3486 20.238 31.17 22.44C31.45 23.22 32.06 23.32 32.07 23.84C32.08 24.36 31.01 25.75 30.55 26.19L26.55 29.73C26.4444 29.8221 26.3342 29.9089 26.22 29.99C26.8536 29.7865 27.4342 29.445 27.92 28.99L31.92 25.46C32.4927 24.5834 32.7663 23.545 32.7 22.5Z" fill="#ADAEC2"/>
<path d="M11.7299 29.48H11.6599" stroke="black" stroke-width="1.5" stroke-linecap="round" stroke-linejoin="round"/>
<path d="M14.04 29.48H22.56C22.7648 29.4797 22.9616 29.401 23.11 29.26C24.32 28.06 30.46 23.34 30.46 23.34" stroke="black" stroke-width="1.5" stroke-linecap="round" stroke-linejoin="round"/>
<path d="M32.48 32.26H33.82" stroke="black" stroke-width="1.5" stroke-linecap="round" stroke-linejoin="round"/>
<path d="M7 32.26H30.35" stroke="black" stroke-width="1.5" stroke-linecap="round" stroke-linejoin="round"/>
<path d="M25.34 10.31C22.65 13.2 18.34 14.04 17.28 14.16L19.57 20.55C19.57 20.55 26.84 19.77 27.03 16.76C27.1 15.57 25.34 10.31 25.34 10.31Z" fill="#6C709C"/>
<path d="M19.69 19.4L18.07 22.71C10.82 23.28 9.85001 27.48 9.68001 28.65C9.602 29.7171 9.76962 30.7878 10.17 31.78" stroke="black" stroke-width="1.5" stroke-linecap="round" stroke-linejoin="round"/>
<path d="M17.1 14.19L19.69 19.4" stroke="black" stroke-width="1.5" stroke-linecap="round" stroke-linejoin="round"/>
<path d="M14.92 9.73001L17.1 14.19" stroke="black" stroke-width="1.5" stroke-linecap="round" stroke-linejoin="round"/>
<path d="M24.17 10.94L25.41 10.24L27.19 16.25L26.53 17.25L24.17 10.94Z" fill="#ADAEC2"/>
<path d="M22.11 19.99C24.4717 19.6071 26.4903 18.0791 27.5 15.91C29.24 16.28 31.88 19.36 32.14 21.51C32.68 21.93 34.07 23.58 32.74 25.2L26.28 30.42" stroke="black" stroke-width="1.5" stroke-linecap="round" stroke-linejoin="round"/>
<path d="M24.65 7L26.46 13.75" stroke="black" stroke-width="1.5" stroke-linecap="round" stroke-linejoin="round"/>
<path d="M17.28 14.16C19.6932 13.8295 21.9438 12.7566 23.72 11.09" stroke="black" stroke-width="1.5" stroke-linecap="round" stroke-linejoin="round"/>
</svg>
