<svg width="40" height="40" viewBox="0 0 40 40" fill="none" xmlns="http://www.w3.org/2000/svg">
<path d="M5.43213 26.26C5.47231 27.7876 5.7524 29.2994 6.26213 30.74H8.56213C9.94213 30.74 11.3921 28.74 11.3921 26.23C11.3921 23.72 9.94213 21.75 8.56213 21.75H6.37213C5.7928 23.1854 5.47446 24.7127 5.43213 26.26Z" fill="#DCDCDC"/>
<path d="M10.7921 29.6399C10.6348 29.9542 10.3997 30.2231 10.1092 30.4209C9.8186 30.6187 9.48226 30.7388 9.13215 30.7699H5.70215" stroke="#333333" stroke-width="1.5" stroke-linecap="round" stroke-linejoin="round"/>
<path d="M15.2319 26.2998C15.2913 27.8317 15.6302 29.3398 16.2319 30.7498H18.9019C20.5119 30.7498 22.2019 28.7498 22.2019 26.2698C22.2019 23.7898 20.5119 21.7898 18.9019 21.7898H16.3319C15.6554 23.2002 15.2808 24.7363 15.2319 26.2998Z" fill="#DCDCDC"/>
<path d="M16.4421 30.78H19.2421C19.7128 30.7425 20.1649 30.58 20.5517 30.3093C20.9384 30.0386 21.2459 29.6694 21.4421 29.24C21.7726 28.7107 21.9747 28.1114 22.0321 27.49" stroke="#333333" stroke-width="1.5" stroke-linecap="round" stroke-linejoin="round"/>
<path d="M28.7021 26.2998C28.764 27.8313 29.1028 29.339 29.7021 30.7498H32.3821C33.9921 30.7498 35.6721 28.7498 35.6721 26.2698C35.6721 23.7898 33.9921 21.7898 32.3821 21.7898H29.8321C29.1475 23.1987 28.7627 24.7345 28.7021 26.2998Z" fill="#DCDCDC"/>
<path d="M29.9521 30.78H32.7021C33.1728 30.7425 33.6249 30.58 34.0117 30.3093C34.3984 30.0386 34.7059 29.6694 34.9021 29.24C35.2362 28.7116 35.4416 28.1122 35.5021 27.49" stroke="#333333" stroke-width="1.5" stroke-linecap="round" stroke-linejoin="round"/>
<path d="M27.312 26.2998C27.312 28.7798 28.402 30.7798 29.752 30.7798C31.102 30.7798 32.192 28.7798 32.192 26.2998C32.192 23.8198 31.382 21.5098 29.752 21.8198C28.432 22.0498 27.312 23.8298 27.312 26.2998Z" fill="#ECECEC"/>
<path d="M31.4122 29.8099C31.2672 30.094 31.0509 30.3356 30.7844 30.5109C30.5179 30.6862 30.2105 30.7892 29.8922 30.8099C28.5522 30.8099 27.4622 28.8099 27.4622 26.3299C27.4622 23.8499 28.5522 21.8499 29.8922 21.8499C30.8922 21.8499 31.7422 22.9399 32.1222 24.4999" stroke="#333333" stroke-width="1.5" stroke-linecap="round" stroke-linejoin="round"/>
<path d="M4.63216 27.2598C4.26188 27.2553 3.90715 27.1103 3.63979 26.854C3.37243 26.5978 3.21242 26.2496 3.19216 25.8798C2.95216 21.8798 2.51216 10.4098 4.98216 10.0998C4.98216 10.0998 16.3522 9.83983 28.3822 10.2598C28.3822 10.2598 29.1322 10.0998 33.5822 15.8698C34.0561 16.3626 34.4876 16.8945 34.8722 17.4598C34.8722 17.4598 37.0422 21.1798 36.2522 27.2398C36.2522 27.2398 13.0122 27.3198 4.63216 27.2598Z" fill="#F7F7F7"/>
<path d="M19.0822 15.9598L18.4222 14.9598L15.2422 10.0498H27.3722C28.1516 10.1736 28.8855 10.4974 29.5022 10.9898L31.3822 12.7898L34.5122 16.9398C36.2195 19.9759 36.8036 23.5161 36.1622 26.9398C31.1946 27.3088 26.211 27.4156 21.2322 27.2598C23.2922 22.2598 21.2322 15.9998 21.2322 15.9998L19.0822 15.9598Z" fill="white"/>
<path d="M18.752 27.46C25.482 27.46 33.232 27.27 35.492 27.25C35.7043 27.2501 35.9085 27.1678 36.0614 27.0205C36.2144 26.8731 36.3042 26.6722 36.312 26.46" stroke="#333333" stroke-width="1.5" stroke-linecap="round" stroke-linejoin="round"/>
<path d="M16.5023 27.2798H10.5723" stroke="#333333" stroke-width="1.5" stroke-linecap="round" stroke-linejoin="round"/>
<path d="M19.082 15.9698L15.2419 10.0298L4.00195 10.1098L3.33203 16.4998L13.582 16.3898" fill="white"/>
<path d="M13.582 16.39L16.302 16.29L19.082 15.97" fill="white"/>
<path d="M6.01221 16.2699L16.2222 16.3799C16.3273 16.3851 16.4313 16.3556 16.518 16.296C16.6047 16.2364 16.6694 16.1499 16.7022 16.0499C16.7118 15.9702 16.7118 15.8896 16.7022 15.8099L14.5722 12.1199" stroke="#333333" stroke-width="1.5" stroke-linecap="round" stroke-linejoin="round"/>
<path opacity="0.05" d="M26.0723 10.0298L24.0122 10.0198L27.2822 15.9698H31.4323L26.0723 10.0298Z" fill="#333333"/>
<path opacity="0.05" d="M22.1221 10H18.4221L22.3921 15.97H26.7821L22.1221 10Z" fill="#333333"/>
<path opacity="0.05" d="M10.9321 10.1899L8.93213 10.2299L11.0421 16.2799H12.2122L10.9321 10.1899Z" fill="#333333"/>
<path opacity="0.05" d="M6.78198 10.1899L4.79199 10.2299L6.89197 16.2799H8.93201L6.78198 10.1899Z" fill="#333333"/>
<path d="M24.0122 15.96H33.7022" stroke="#333333" stroke-width="1.5" stroke-linecap="round" stroke-linejoin="round"/>
<path d="M17.4622 12.0999L19.7022 15.6399C19.7635 15.7382 19.849 15.8192 19.9506 15.8753C20.0521 15.9313 20.1662 15.9604 20.2822 15.9599H21.2822" stroke="#333333" stroke-width="1.5" stroke-linecap="round" stroke-linejoin="round"/>
<path d="M33.702 15.9598C33.182 15.3298 30.772 12.3698 29.702 11.0498C29.4142 10.7181 29.0551 10.4559 28.6516 10.2827C28.2481 10.1095 27.8106 10.0299 27.372 10.0498C21.702 10.0498 8.94195 10.0498 5.30195 10.0498C5.03875 10.0217 4.77325 10.0747 4.54094 10.2016C4.30863 10.3284 4.12059 10.5232 4.00195 10.7598C3.31195 12.8798 3.08195 17.8698 3.00195 21.3698" stroke="#333333" stroke-width="1.5" stroke-linecap="round" stroke-linejoin="round"/>
<path d="M34.6321 17.0498C35.5121 18.3198 36.6321 20.9798 36.3321 26.3398" stroke="#333333" stroke-width="1.5" stroke-linecap="round" stroke-linejoin="round"/>
<path d="M33.6622 24.7698H25.3423" stroke="#333333" stroke-width="1.5" stroke-linecap="round" stroke-linejoin="round"/>
<path d="M32.9819 19.1299C29.648 19.6297 26.2477 19.4563 22.9819 18.6199C22.9993 19.2907 23.1852 19.9465 23.5225 20.5266C23.8597 21.1068 24.3376 21.5928 24.9119 21.9399" stroke="#333333" stroke-width="1.5" stroke-linecap="round" stroke-linejoin="round"/>
<path d="M5.51221 30.7798C6.85978 30.7798 7.95227 28.7741 7.95227 26.2998C7.95227 23.8256 6.85978 21.8198 5.51221 21.8198C4.16463 21.8198 3.07227 23.8256 3.07227 26.2998C3.07227 28.7741 4.16463 30.7798 5.51221 30.7798Z" fill="#ECECEC"/>
<path d="M5.64221 28.7299C6.26629 28.7299 6.77222 27.6419 6.77222 26.2999C6.77222 24.9578 6.26629 23.8699 5.64221 23.8699C5.01813 23.8699 4.51221 24.9578 4.51221 26.2999C4.51221 27.6419 5.01813 28.7299 5.64221 28.7299Z" fill="#ECECEC"/>
<path d="M13.812 26.2998C13.812 28.7798 14.902 30.7798 16.242 30.7798C17.582 30.7798 18.682 28.7798 18.682 26.2998C18.682 23.8198 17.872 21.5098 16.242 21.8198C14.922 22.0498 13.812 23.8298 13.812 26.2998Z" fill="#ECECEC"/>
<path d="M16.3922 28.7299C17.0163 28.7299 17.5222 27.6419 17.5222 26.2999C17.5222 24.9578 17.0163 23.8699 16.3922 23.8699C15.7681 23.8699 15.2622 24.9578 15.2622 26.2999C15.2622 27.6419 15.7681 28.7299 16.3922 28.7299Z" fill="#ECECEC"/>
<path d="M17.9021 29.8099C17.7581 30.0926 17.5433 30.3333 17.2787 30.5085C17.0141 30.6837 16.7087 30.7875 16.3921 30.8099C15.0421 30.8099 13.9521 28.8099 13.9521 26.3299C13.9521 23.8499 15.0421 21.8499 16.3921 21.8499C17.5821 21.8499 18.5721 23.4099 18.7821 25.4699C18.8735 26.1334 18.8735 26.8063 18.7821 27.4699" stroke="#333333" stroke-width="1.5" stroke-linecap="round" stroke-linejoin="round"/>
<path d="M4.22219 22.7898C4.36628 22.507 4.58104 22.2664 4.84563 22.0911C5.11022 21.9159 5.41563 21.8121 5.73219 21.7898C7.08219 21.7898 8.17219 23.7898 8.17219 26.2698C8.17219 28.7498 7.08219 30.7798 5.70219 30.7798C4.51219 30.7798 3.53219 29.2198 3.31219 27.1598C3.22081 26.4963 3.22081 25.8233 3.31219 25.1598" stroke="#333333" stroke-width="1.5" stroke-linecap="round" stroke-linejoin="round"/>
</svg>
