<svg width="72" height="72" viewBox="0 0 72 72" fill="none" xmlns="http://www.w3.org/2000/svg">
<mask id="mask0_11671_21115" style="mask-type:alpha" maskUnits="userSpaceOnUse" x="0" y="0" width="72" height="72">
<rect width="72" height="72" transform="matrix(-1 0 0 1 72 0)" fill="white"/>
</mask>
<g mask="url(#mask0_11671_21115)">
<path d="M40.9855 31.6879L56.1519 47.642C56.1519 47.642 54.2309 55.1768 50.1434 56.0394L46.067 56.8803L30.331 40.8825L40.9855 31.6879Z" fill="#9497B2"/>
<path d="M50.1436 56.0392L52.891 57.5461C53.1591 57.8301 54.0748 57.426 54.946 56.6398C55.8171 55.8535 56.2861 54.9909 56.0628 54.7069L53.5834 49.4872C52.8128 50.3389 51.9529 51.2016 51.0148 52.0534C50.1186 52.8725 49.1792 53.6452 48.2004 54.3684" fill="#6C709C"/>
<path d="M50.1436 56.0392L52.891 57.5461C53.1591 57.8301 54.0748 57.426 54.946 56.6398C55.8171 55.8535 56.2861 54.9909 56.0628 54.7069L53.5834 49.4872C52.8128 50.3389 51.9529 51.2016 51.0148 52.0534C50.1186 52.8725 49.1792 53.6452 48.2004 54.3684" stroke="black" stroke-width="1.8" stroke-linecap="round" stroke-linejoin="round"/>
<path d="M57.95 59.7957L54.9569 56.6289" stroke="#5A5E8C" stroke-width="1.8" stroke-linecap="round" stroke-linejoin="round"/>
<path d="M42.5043 53.1021L46.0669 56.8477C46.1058 56.8904 46.151 56.9272 46.201 56.9569C46.6924 57.2845 47.597 57.1534 48.7026 56.6511C49.5739 56.2483 50.3977 55.754 51.1596 55.1769C51.6936 54.7832 52.2044 54.3603 52.6897 53.9102C53.1839 53.4692 53.6536 53.0026 54.0968 52.5125C54.7397 51.808 55.3049 51.0393 55.7832 50.2193C56.3752 49.1273 56.5762 48.3083 56.2746 47.8059C56.2517 47.7522 56.2174 47.7039 56.1741 47.664L53.4938 44.8466" stroke="black" stroke-width="1.8" stroke-linecap="round" stroke-linejoin="round"/>
<path d="M46.7261 56.3334L46.849 56.4317C47.2734 56.7156 48.0775 56.5955 49.0826 56.1587C49.8514 55.8003 50.5779 55.3609 51.2492 54.8483C51.724 54.5097 52.1789 54.1451 52.6117 53.7563C53.0476 53.3635 53.4614 52.948 53.8514 52.5115C54.4249 51.8822 54.9267 51.1938 55.3479 50.4585C55.8729 49.5412 56.0515 48.7659 55.7835 48.2745C55.7631 48.2254 55.7327 48.1808 55.6942 48.1435C54.9236 47.3354 52.3437 48.5038 49.8309 50.7424C47.318 52.981 45.9555 55.5254 46.7261 56.3334Z" fill="#6C709C" stroke="#6C709C" stroke-width="1.8" stroke-linecap="round" stroke-linejoin="round"/>
<path d="M31.1911 40.6098C31.2264 40.6518 31.2678 40.6886 31.3139 40.719C31.783 41.0248 32.6429 40.8937 33.7039 40.4242C34.537 40.0311 35.3266 39.5554 36.0604 39.0046C36.5406 38.6442 37.0432 38.2402 37.5234 37.8034C38.0036 37.3666 38.4615 36.9079 38.8636 36.4602C39.4831 35.7921 40.0261 35.0597 40.483 34.2762C41.0414 33.2825 41.2424 32.4417 40.952 31.9721C40.9291 31.9184 40.8948 31.87 40.8515 31.8301C40.0251 30.9565 37.1884 32.2233 34.5192 34.6475C31.85 37.0717 30.3534 39.7362 31.1911 40.6098Z" fill="#6C709C" stroke="#6C709C" stroke-width="1.8" stroke-linecap="round" stroke-linejoin="round"/>
<path d="M45.4751 42.9023L51.1932 48.9302L45.4751 42.9023Z" fill="#9497B2"/>
<path d="M45.4751 42.9023L51.1932 48.9302" stroke="#ADAEC2" stroke-width="1.8" stroke-linecap="round" stroke-linejoin="round"/>
<path d="M42.4709 39.7574L42.8842 40.1833L42.4709 39.7574Z" fill="#9497B2"/>
<path d="M42.4709 39.7574L42.8842 40.1833" stroke="#ADAEC2" stroke-width="1.8" stroke-linecap="round" stroke-linejoin="round"/>
<g style="mix-blend-mode:darken" opacity="0.5">
<path d="M33.7709 25.4629C33.0439 27.2993 31.9634 28.9822 30.588 30.4206C29.6821 31.4811 29.7252 33.035 30.6885 34.046L50.4897 54.8486C50.4897 54.8486 48.8256 57.928 46.0224 56.8469C43.2192 55.7659 23.6637 33.4126 23.6637 33.4126L33.7709 25.4629Z" fill="#6C709C"/>
</g>
<path d="M32.1738 22.4158C32.8774 23.1584 31.9727 25.1568 30.0965 27.2534C29.6721 27.7193 29.203 28.1889 28.6893 28.6621C28.1756 29.1207 27.6618 29.5466 27.1593 29.9179C24.9256 31.5995 22.7702 32.3421 22.0666 31.5995L46.0446 56.8247C46.7482 57.5673 48.859 56.8247 51.1373 55.143C51.6399 54.7718 52.1536 54.3459 52.6674 53.8872C53.1811 53.4286 53.6502 52.9481 54.0745 52.4786C55.9508 50.3819 56.8554 48.3945 56.1518 47.641L35.4014 25.801" stroke="black" stroke-width="1.8" stroke-linecap="round" stroke-linejoin="round"/>
<path d="M32.5647 30.1804L33.1789 29.5361C34.0191 28.6301 34.7672 27.6463 35.4126 26.5986C36.2167 25.2664 36.5294 24.1744 36.1943 23.5847C36.1943 23.5192 34.7648 21.9904 34.7201 21.9358L32.6429 19.7518C31.1687 19.4679 28.7675 22.3944 25.6069 25.2664C22.2565 28.2912 19.1294 30.508 19.5649 31.8184L22.9154 35.3455C22.9607 35.4007 23.0179 35.4455 23.0829 35.4766C23.6636 35.8479 24.8028 35.6185 26.21 34.9415C27.3219 34.3724 28.3797 33.7072 29.3706 32.9541L30.063 32.4081" fill="#6C709C"/>
<path d="M32.5647 30.1804L33.1789 29.5361C34.0191 28.6301 34.7672 27.6463 35.4126 26.5986C36.2167 25.2664 36.5294 24.1744 36.1943 23.5847C36.1943 23.5192 34.7648 21.9904 34.7201 21.9358L32.6429 19.7518C31.1687 19.4679 28.7675 22.3944 25.6069 25.2664C22.2565 28.2912 19.1294 30.508 19.5649 31.8184L22.9154 35.3455C22.9607 35.4007 23.0179 35.4455 23.0829 35.4766C23.6636 35.8479 24.8028 35.6185 26.21 34.9415C27.3219 34.3724 28.3797 33.7072 29.3706 32.9541L30.063 32.4081" stroke="black" stroke-width="1.8" stroke-linecap="round" stroke-linejoin="round"/>
<path d="M20.7265 28.0393C19.5092 29.7974 19.029 31.2607 19.6097 31.8831C19.6576 31.9357 19.7142 31.9801 19.7772 32.0141C20.358 32.3854 21.4971 32.1561 22.9043 31.4791C24.0193 30.915 25.0775 30.2496 26.0649 29.4916C26.7238 28.9893 27.3939 28.3996 28.064 27.8318C28.7341 27.264 29.3483 26.6088 29.9067 25.9972C30.7452 25.0898 31.4931 24.1062 32.1404 23.0598C32.9333 21.7384 33.2572 20.6464 32.911 20.0568C32.8845 19.9926 32.8467 19.9334 32.7993 19.882C31.7718 18.79 27.997 20.6355 24.345 23.9443" fill="#ADAEC2"/>
<path d="M20.7265 28.0393C19.5092 29.7974 19.029 31.2607 19.6097 31.8831C19.6576 31.9357 19.7142 31.9801 19.7772 32.0142C20.358 32.3854 21.4971 32.1561 22.9043 31.4791C24.0193 30.915 25.0775 30.2496 26.0649 29.4916C26.7238 28.9893 27.3939 28.3996 28.064 27.8318C28.7341 27.264 29.3483 26.6088 29.9067 25.9972C30.7452 25.0898 31.4931 24.1062 32.1404 23.0598C32.9333 21.7384 33.2572 20.6464 32.911 20.0568C32.8845 19.9926 32.8467 19.9334 32.7993 19.882C31.7718 18.79 27.997 20.6355 24.345 23.9443" stroke="black" stroke-width="1.8" stroke-linecap="round" stroke-linejoin="round"/>
<path d="M20.7265 17.6658C20.2686 18.1791 19.7548 18.6814 19.2076 19.1837C18.6604 19.686 18.0908 20.1447 17.5436 20.5596L23.3622 26.5547C23.6414 26.8495 24.5683 26.4346 25.4506 25.6374C26.3329 24.8403 26.8131 23.9557 26.5674 23.6718L24.3338 21.324" fill="#6C709C"/>
<path d="M20.7265 17.6658C20.2686 18.1791 19.7548 18.6814 19.2076 19.1837C18.6604 19.686 18.0908 20.1447 17.5436 20.5596L23.3622 26.5547C23.6414 26.8495 24.5683 26.4346 25.4506 25.6374C26.3329 24.8403 26.8131 23.9557 26.5674 23.6718L24.3338 21.324" stroke="black" stroke-width="1.8" stroke-linecap="round" stroke-linejoin="round"/>
<path d="M11.0324 22.3071L12.9757 24.371C13.7798 25.2118 16.1363 24.371 18.6714 22.5037C19.241 22.0778 19.7883 21.6082 20.3913 21.095C20.9944 20.5817 21.5082 20.003 21.966 19.5225C24.0657 17.1747 25.082 14.9361 24.289 14.0625L21.4188 11.1687L20.369 12.0095C20.704 12.5665 20.1791 12.3371 19.5202 13.4947C19.0735 14.2918 18.0795 14.5867 17.2866 15.5258C16.559 16.4478 15.7758 17.3266 14.9413 18.1575C13.9696 18.8673 13.9473 19.2495 13.1097 19.6645C11.87 20.2214 10.5522 21.6519 10.0049 21.2915L11.0324 22.3071Z" fill="#6C709C" stroke="black" stroke-width="1.8" stroke-linecap="round" stroke-linejoin="round"/>
<path d="M9.99395 21.3028L10.1503 21.4229C10.6864 21.7942 11.7027 21.6413 12.9423 21.0844C13.9162 20.6287 14.8372 20.0723 15.6897 19.4245C16.276 18.9833 16.8388 18.5131 17.3761 18.0159C17.9494 17.4917 18.4743 16.9676 18.9508 16.4434C19.669 15.6541 20.3015 14.7941 20.8382 13.8772C21.486 12.7197 21.7205 11.6932 21.3855 11.18C21.3547 11.1248 21.3172 11.0734 21.2738 11.0271C20.3022 10.0006 16.9852 11.4748 13.8581 14.3031C10.731 17.1314 9.02232 20.2763 9.99395 21.3028Z" fill="#ADAEC2"/>
<path d="M18.4929 16.9566L18.9732 16.4434C19.6913 15.6541 20.3238 14.7941 20.8606 13.8772C21.5083 12.7197 21.7429 11.6932 21.4078 11.18C21.3771 11.1248 21.3396 11.0734 21.2961 11.0271C20.3245 10.0006 17.0076 11.4748 13.8805 14.3031C10.7534 17.1314 9.01115 20.2654 9.98278 21.2919L10.1391 21.412C10.6752 21.7833 11.6915 21.6304 12.9312 21.0735" fill="#ADAEC2"/>
<path d="M18.4929 16.9566L18.9732 16.4434C19.6913 15.6541 20.3238 14.7941 20.8606 13.8772C21.5083 12.7197 21.7429 11.6932 21.4078 11.18C21.3771 11.1248 21.3396 11.0734 21.2961 11.0271C20.3245 10.0006 17.0076 11.4748 13.8805 14.3031C10.7534 17.1314 9.01115 20.2654 9.98278 21.2919L10.1391 21.412C10.6752 21.7833 11.6915 21.6304 12.9312 21.0735" stroke="black" stroke-width="1.8" stroke-linecap="round" stroke-linejoin="round"/>
<path d="M15.6896 19.424L16.0135 19.1838L15.6896 19.424Z" fill="#ADAEC2"/>
<path d="M15.6896 19.424L16.0135 19.1838" stroke="black" stroke-width="1.8" stroke-linecap="round" stroke-linejoin="round"/>
</g>
</svg>
