<svg width="40" height="40" viewBox="0 0 40 40" fill="none" xmlns="http://www.w3.org/2000/svg">
<path d="M17.8909 35.1006C14.3456 37.0448 11.9767 34.635 11.9849 32.2089C11.797 29.6684 11.2578 27.1524 10.3756 24.7181C9.61591 22.5779 8.43144 20.1272 7.50019 19.6289C4.70646 18.1095 3.63635 15.0054 3.63635 12.0401C3.73438 6.92643 6.56895 3.17695 13.6758 3.82229C14.6806 3.91214 16.8943 3.93665 17.8174 4.2389C18.7405 4.54114 20.8725 4.2389 20.8725 4.2389C23.9195 3.49554 29.1557 4.002 31.9657 5.21098C33.1175 5.71745 34.3837 7.16333 35.2251 7.94753C38.705 11.1905 33.3136 17.9298 30.7323 20.6909C29.8745 21.2627 27.4484 29.9706 27.2605 32.4621C27.2605 34.8719 25.1856 37.0856 21.6649 35.1823C20.4968 34.5533 20.4559 32.9277 20.023 31.8903C20.0066 31.9148 19.0019 34.4798 17.8991 35.0925L17.8909 35.1006Z" fill="white"/>
<path opacity="0.04" d="M23.7398 25.7471C22.8494 29.4639 22.3021 36.9711 26.8848 34.112C22.9392 39.4462 20.1128 33.3686 20.1128 33.3686C20.1128 33.3686 19.2878 26.8581 22.0325 25.0201C22.1795 24.9057 22.3674 24.8241 22.5635 24.7995C22.7595 24.775 22.9556 24.7995 23.1353 24.8812C23.315 24.9548 23.462 25.0773 23.5682 25.2325C23.6744 25.3877 23.7316 25.5674 23.7316 25.7471H23.7398Z" fill="#333333"/>
<path opacity="0.04" d="M18.667 33.3769C18.667 33.3769 18.1605 36.1217 16.3797 33.7936C15.6037 32.7725 16.1183 29.5539 16.053 26.074C16.004 23.6642 15.04 21.8018 13.3082 19.8412C6.70786 14.1639 7.9005 4.39405 19.2715 6.68948C20.0965 6.87736 20.9624 6.85286 21.763 6.60779C23.7561 6.0033 25.8065 2.75212 30.7568 4.93319C27.2932 2.90733 20.9951 4.70446 20.9951 4.70446C20.9951 4.70446 7.35319 0.260634 3.82427 10.5288C2.59895 16.7208 7.77797 19.0734 9.37905 21.8263C13.4798 29.3089 10.9965 33.6792 12.2218 34.7411C13.4389 35.8031 16.1428 38.2619 18.6588 33.3688L18.667 33.3769Z" fill="#333333"/>
<path d="M22.7268 24.8731C20.7827 25.5511 20.3661 30.5749 19.5573 32.5354C17.6949 37.4939 12.0911 36.6688 12.0911 32.4701C11.9604 28.2713 11.1598 24.8404 9.6731 22.6512C7.90047 20.0371 3.90592 16.9984 3.63635 11.9745C3.68537 7.8738 7.17344 3.70771 13.88 3.63419C16.5185 3.60152 20.1292 4.47558 21.5342 4.44291C23.3477 4.4184 24.671 3.74039 26.8521 3.68321C28.1796 3.64654 29.3622 3.79424 30.4117 4.09084M21.0767 34.5776C23.1026 36.9629 26.7622 36.146 27.2442 34.0793C27.6118 32.7641 27.3749 27.1767 29.8827 22.6593C31.4266 19.8901 36.2299 15.9446 36.3606 11.7458C36.4096 10.0304 35.8704 8.28224 34.7268 6.8527M32.799 5.12909C32.75 5.10458 32.7091 5.0719 32.6601 5.0474" stroke="#333333" stroke-width="1.5" stroke-linecap="round" stroke-linejoin="round"/>
</svg>
