<svg width="40" height="40" viewBox="0 0 40 40" fill="none" xmlns="http://www.w3.org/2000/svg">
<path d="M12.421 13.4737H27.5789C28.0228 13.4737 28.4485 13.65 28.7624 13.9639C29.0763 14.2778 29.2526 14.7035 29.2526 15.1474V31.4526C29.2526 31.9551 29.053 32.4371 28.6977 32.7924C28.3423 33.1477 27.8604 33.3474 27.3579 33.3474H12.6316C12.129 33.3474 11.6471 33.1477 11.2918 32.7924C10.9364 32.4371 10.7368 31.9551 10.7368 31.4526V15.1474C10.7368 14.9267 10.7805 14.7082 10.8652 14.5044C10.95 14.3007 11.0742 14.1157 11.2307 13.9601C11.3873 13.8046 11.573 13.6815 11.7773 13.598C11.9816 13.5145 12.2004 13.4723 12.421 13.4737Z" fill="#9497B2"/>
<path d="M26.137 13.4737V28.421C26.135 29.0729 25.9215 29.7065 25.5286 30.2266C25.1357 30.7467 24.5846 31.1252 23.9581 31.3052L16.9265 33.3052H27.3686C27.8795 33.3052 28.3695 33.1023 28.7307 32.741C29.092 32.3798 29.2949 31.8898 29.2949 31.3789V15.4C29.2949 14.8891 29.092 14.3991 28.7307 14.0379C28.3695 13.6766 27.8795 13.4737 27.3686 13.4737H26.137Z" fill="#ADAEC2"/>
<path d="M13.0947 13.4737V7.38947H26.9053V13.4737" fill="#6C709C"/>
<path d="M24.2104 7.36841H25.6631C25.9981 7.36841 26.3194 7.50149 26.5563 7.73838C26.7932 7.97527 26.9262 8.29656 26.9262 8.63157V13.2631H24.2104V7.36841Z" fill="#ADAEC2"/>
<path d="M10.7473 23.8526V23.7368" stroke="black" stroke-width="1.57895" stroke-linecap="round" stroke-linejoin="round"/>
<path d="M10.7473 21.3473V14.9579C10.7473 14.5642 10.9037 14.1867 11.182 13.9084C11.4604 13.63 11.8379 13.4737 12.2315 13.4737H27.7684C28.162 13.4737 28.5395 13.63 28.8179 13.9084C29.0962 14.1867 29.2526 14.5642 29.2526 14.9579V31.6737C29.2526 32.1176 29.0762 32.5433 28.7624 32.8571C28.4485 33.171 28.0228 33.3473 27.5789 33.3473H12.421C11.9771 33.3473 11.5514 33.171 11.2375 32.8571C10.9236 32.5433 10.7473 32.1176 10.7473 31.6737V26.0631" stroke="black" stroke-width="1.57895" stroke-linecap="round" stroke-linejoin="round"/>
<path d="M13.0946 12.9684V8.59999C13.0832 8.45117 13.1014 8.30155 13.1483 8.15984C13.1952 8.01813 13.2698 7.88715 13.3677 7.77452C13.4656 7.66188 13.585 7.56984 13.7188 7.50374C13.8527 7.43763 13.9983 7.39879 14.1473 7.38947H25.863C26.012 7.39879 26.1577 7.43763 26.2915 7.50374C26.4253 7.56984 26.5447 7.66188 26.6426 7.77452C26.7406 7.88715 26.8151 8.01813 26.862 8.15984C26.9089 8.30155 26.9271 8.45117 26.9157 8.59999V10.9895" stroke="black" stroke-width="1.57895" stroke-linecap="round" stroke-linejoin="round"/>
</svg>
