<svg width="50" height="50" viewBox="0 0 50 50" fill="none" xmlns="http://www.w3.org/2000/svg">
<g clip-path="url(#clip0_987_2027)">
<rect opacity="0.01" width="50" height="50" fill="white"/>
<path fill-rule="evenodd" clip-rule="evenodd" d="M10.4114 35.6481C9.66215 37.1963 9.25006 38.8857 9.25006 40.6545C9.25006 48.1151 41.9999 48.1151 41.9999 40.6545C41.9999 33.1939 34.6686 27.1459 25.625 27.1459C21.9975 27.1459 18.6455 28.1189 15.9317 29.7659C14.723 30.4994 13.6409 31.3665 12.7174 32.3409" fill="white"/>
<path d="M10.4114 35.6481C9.66215 37.1963 9.25006 38.8857 9.25006 40.6545C9.25006 48.1151 41.9999 48.1151 41.9999 40.6545C41.9999 33.1939 34.6686 27.1459 25.625 27.1459C21.9975 27.1459 18.6455 28.1189 15.9317 29.7659C14.723 30.4994 13.6409 31.3665 12.7174 32.3409" stroke="#333333" stroke-width="1.875" stroke-linecap="round" stroke-linejoin="round"/>
<path fill-rule="evenodd" clip-rule="evenodd" d="M10.4114 35.6482C9.66215 37.1964 9.25006 38.8858 9.25006 40.6546C9.25006 48.1152 41.9999 48.1152 41.9999 40.6546C41.9999 33.194 34.6686 27.146 25.625 27.146C21.9975 27.146 18.6455 28.119 15.9317 29.766C14.723 30.4995 13.6409 31.3667 12.7174 32.3411" fill="#F7F7F7"/>
<path fill-rule="evenodd" clip-rule="evenodd" d="M30.151 6.29214C28.7721 5.6631 27.2395 5.31262 25.625 5.31262C19.5959 5.31262 14.7084 10.2002 14.7084 16.2292C14.7084 22.2583 19.5959 27.1458 25.625 27.1458C31.6541 27.1458 36.5416 22.2583 36.5416 16.2292C36.5416 14.6261 36.196 13.1037 35.5753 11.7324C34.9446 10.3389 34.0297 9.1014 32.9045 8.09394C31.6788 6.99638 31.6479 6.97503 30.151 6.29214Z" fill="white" stroke="#333333" stroke-width="1.875" stroke-linecap="round" stroke-linejoin="round"/>
<circle cx="23.5782" cy="16.6462" r="1.09924" fill="#333333"/>
<circle cx="31.2727" cy="16.6462" r="1.09924" fill="#333333"/>
<path d="M10.4114 35.6481C9.66215 37.1963 9.25006 38.8857 9.25006 40.6545C9.25006 48.1151 41.9999 48.1151 41.9999 40.6545C41.9999 33.1939 34.6686 27.1459 25.625 27.1459C21.9975 27.1459 18.6455 28.1189 15.9317 29.7659C14.723 30.4994 13.6409 31.3665 12.7174 32.3409" stroke="#333333" stroke-width="2" stroke-linecap="round" stroke-linejoin="round"/>
<path fill-rule="evenodd" clip-rule="evenodd" d="M30.151 6.29214C28.7721 5.6631 27.2395 5.31262 25.625 5.31262C19.5959 5.31262 14.7084 10.2002 14.7084 16.2292C14.7084 22.2583 19.5959 27.1458 25.625 27.1458C31.6541 27.1458 36.5416 22.2583 36.5416 16.2292C36.5416 14.6261 36.196 13.1037 35.5753 11.7324C34.9446 10.3389 34.0297 9.1014 32.9045 8.09394C31.6788 6.99638 31.6479 6.97503 30.151 6.29214Z" stroke="#333333" stroke-width="2" stroke-linecap="round" stroke-linejoin="round"/>
</g>
<defs>
<clipPath id="clip0_987_2027">
<rect width="50" height="50" fill="white"/>
</clipPath>
</defs>
</svg>
