<svg width="40" height="40" viewBox="0 0 40 40" fill="none" xmlns="http://www.w3.org/2000/svg">
<path opacity="0.04" d="M28.6673 27.8911L31.6705 33.7534L27.8904 33.5052L24.8151 27.8831L28.6673 27.8911Z" fill="#333333"/>
<circle cx="21.0029" cy="9.46303" r="1.22533" stroke="#333333" stroke-width="1.60174" stroke-linecap="round" stroke-linejoin="round"/>
<rect x="4.00436" y="31.5599" width="30.0166" height="5.6141" rx="2.80305" transform="rotate(-59.84 4.00436 31.5599)" fill="#DCDCDC"/>
<path d="M6.44308 32.9606V32.9606C7.78275 33.7194 9.48345 33.263 10.2632 31.9355L18.6804 17.4717" stroke="#333333" stroke-width="1.60174" stroke-linecap="round" stroke-linejoin="round"/>
<path d="M21.1871 13.1551L22.5166 10.8486C23.2861 9.51219 22.8316 7.80522 21.4995 7.02841V7.02841C20.1631 6.2589 18.4561 6.71337 17.6793 8.04551L7.4682 25.6326" stroke="#333333" stroke-width="1.60174" stroke-linecap="round" stroke-linejoin="round"/>
<path d="M32.2391 33.5132L7.83661 33.4411C6.29793 33.4235 5.0611 32.1688 5.06559 30.63C5.06772 29.8866 5.36507 29.1745 5.89225 28.6503C6.41942 28.1262 7.13323 27.8329 7.87665 27.835L32.2952 27.8991C33.8446 27.9079 35.0947 29.1687 35.0902 30.7181C35.0882 31.4686 34.7853 32.1868 34.2495 32.7122C33.7136 33.2375 32.9895 33.526 32.2391 33.5132Z" fill="#ECECEC"/>
<path d="M27.4339 27.859H7.85262C6.32629 27.8676 5.08738 29.0958 5.06559 30.622V30.622C5.06115 32.167 6.30767 33.4243 7.85262 33.4331V33.4331L27.6421 33.4972" stroke="#333333" stroke-width="1.60174" stroke-linecap="round" stroke-linejoin="round"/>
<rect x="16.2778" y="8.39957" width="5.6141" height="30.0166" rx="2.67491" transform="rotate(-29.84 16.2778 8.39957)" fill="white"/>
<path d="M29.6043 20.3709L34.6978 29.2205C35.068 29.8661 35.1663 30.6324 34.971 31.3505C34.7757 32.0686 34.3028 32.6795 33.6567 33.0487V33.0487C33.0111 33.4189 32.2448 33.5171 31.5267 33.3218C30.8087 33.1265 30.1977 32.6537 29.8285 32.0076L17.6713 10.8405C16.8997 9.50384 17.3502 7.79503 18.6804 7.01238V7.01238C20.0279 6.24548 21.7417 6.71062 22.5166 8.05351L28.1227 17.7921" stroke="#333333" stroke-width="1.60174" stroke-linecap="round" stroke-linejoin="round"/>
</svg>
