<svg width="40" height="40" viewBox="0 0 40 40" fill="none" xmlns="http://www.w3.org/2000/svg">
<g clip-path="url(#clip0_11414_15862)">
<path d="M5.5 30L6.5 28.5L20 15.5L25 20.5L11 34L9 35L6.5 34.5L5 32.5L5.5 30Z" fill="white"/>
<path fill-rule="evenodd" clip-rule="evenodd" d="M20.6841 7.47885C23.1213 5.04166 26.6703 4.39388 29.6985 5.53553L25.6339 9.60017C24.267 10.967 24.267 13.1831 25.6339 14.5499C27.0007 15.9168 29.2168 15.9168 30.5836 14.5499L34.6482 10.4853C35.7899 13.5135 35.1421 17.0625 32.7049 19.4997C30.2746 21.93 26.7388 22.5809 23.7163 21.4526L10.9779 34.191C9.60126 35.5676 7.36935 35.5676 5.99275 34.191C4.61616 32.8144 4.61616 30.5825 5.99276 29.2059L12.4823 22.7164C12.4921 22.7066 12.5079 22.7066 12.5177 22.7164C12.5274 22.7261 12.5274 22.742 12.5177 22.7517L6.02811 29.2413C4.67104 30.5984 4.67104 32.7986 6.02811 34.1557C7.38518 35.5127 9.58543 35.5127 10.9425 34.1557L23.6649 21.4333C22.5783 21.0196 21.5595 20.375 20.6841 19.4997C19.8087 18.6243 19.1642 17.6055 18.7505 16.5189L15.7517 19.5177C15.742 19.5274 15.7261 19.5274 15.7164 19.5177C15.7066 19.5079 15.7066 19.4921 15.7164 19.4823L18.7312 16.4675C17.6028 13.445 18.2538 9.90915 20.6841 7.47885Z" fill="white"/>
<path d="M29.6985 5.53553L30.2288 6.06586L31.0508 5.24385L29.9631 4.83375L29.6985 5.53553ZM34.6482 10.4853L35.35 10.2207L34.9399 9.13293L34.1179 9.95495L34.6482 10.4853ZM23.7163 21.4526L23.9786 20.75L23.5269 20.5814L23.1859 20.9223L23.7163 21.4526ZM10.9779 34.191L11.5082 34.7214L10.9779 34.191ZM23.6649 21.4333L24.1952 21.9636L25.0143 21.1445L23.9318 20.7323L23.6649 21.4333ZM18.7505 16.5189L19.4514 16.252L19.0393 15.1694L18.2202 15.9885L18.7505 16.5189ZM18.7312 16.4675L19.2615 16.9979L19.6024 16.6569L19.4338 16.2052L18.7312 16.4675ZM29.9631 4.83375C26.6694 3.59201 22.8068 4.29546 20.1538 6.94852L21.2144 8.00918C23.4358 5.78785 26.6712 5.19576 29.4339 6.23732L29.9631 4.83375ZM26.1642 10.1305L30.2288 6.06586L29.1682 5.0052L25.1035 9.06984L26.1642 10.1305ZM26.1642 14.0196C25.0903 12.9456 25.0903 11.2044 26.1642 10.1305L25.1035 9.06984C23.4438 10.7296 23.4438 13.4205 25.1035 15.0802L26.1642 14.0196ZM30.0533 14.0196C28.9793 15.0935 27.2381 15.0935 26.1642 14.0196L25.1035 15.0802C26.7633 16.74 29.4542 16.74 31.1139 15.0802L30.0533 14.0196ZM34.1179 9.95495L30.0533 14.0196L31.1139 15.0802L35.1786 11.0156L34.1179 9.95495ZM33.2353 20.03C35.8883 17.3769 36.5918 13.5144 35.35 10.2207L33.9465 10.7499C34.988 13.5125 34.3959 16.748 32.1746 18.9693L33.2353 20.03ZM23.454 22.1553C26.7415 23.3825 30.5897 22.6755 33.2353 20.03L32.1746 18.9693C29.9596 21.1844 26.7361 21.7794 23.9786 20.75L23.454 22.1553ZM23.1859 20.9223L10.4475 33.6607L11.5082 34.7214L24.2466 21.983L23.1859 20.9223ZM10.4475 33.6607C9.36382 34.7444 7.60679 34.7444 6.52308 33.6607L5.46242 34.7214C7.13192 36.3909 9.8387 36.3909 11.5082 34.7214L10.4475 33.6607ZM6.52308 33.6607C5.43938 32.577 5.43938 30.82 6.52309 29.7363L5.46242 28.6756C3.79294 30.3451 3.79293 33.0519 5.46242 34.7214L6.52308 33.6607ZM6.52309 29.7363L13.0127 23.2467L11.952 22.186L5.46242 28.6756L6.52309 29.7363ZM13.0127 23.2467C12.7295 23.5299 12.2704 23.5298 11.9873 23.2467L13.048 22.186C12.7454 21.8834 12.2547 21.8833 11.952 22.186L13.0127 23.2467ZM11.9873 23.2467C11.7043 22.9636 11.7042 22.5046 11.9873 22.2214L13.048 23.282C13.3507 22.9794 13.3506 22.4886 13.048 22.186L11.9873 23.2467ZM11.9873 22.2214L5.49778 28.711L6.55844 29.7716L13.048 23.282L11.9873 22.2214ZM5.49778 28.711C3.84782 30.3609 3.84781 33.036 5.49778 34.686L6.55844 33.6253C5.49426 32.5612 5.49426 30.8358 6.55844 29.7716L5.49778 28.711ZM5.49778 34.686C7.14774 36.336 9.82287 36.336 11.4728 34.686L10.4122 33.6253C9.34799 34.6895 7.62262 34.6895 6.55844 33.6253L5.49778 34.686ZM11.4728 34.686L24.1952 21.9636L23.1346 20.9029L10.4122 33.6253L11.4728 34.686ZM20.1538 20.03C21.1054 20.9816 22.2145 21.6836 23.3981 22.1342L23.9318 20.7323C22.9421 20.3556 22.0136 19.7685 21.2144 18.9693L20.1538 20.03ZM18.0496 16.7857C18.5002 17.9693 19.2021 19.0783 20.1538 20.03L21.2144 18.9693C20.4153 18.1702 19.8282 17.2417 19.4514 16.252L18.0496 16.7857ZM18.2202 15.9885L15.2214 18.9873L16.282 20.048L19.2808 17.0492L18.2202 15.9885ZM15.2214 18.9873C15.5046 18.7042 15.9636 18.7043 16.2467 18.9873L15.186 20.048C15.4886 20.3506 15.9794 20.3507 16.282 20.048L15.2214 18.9873ZM16.2467 18.9873C16.5298 19.2704 16.5299 19.7295 16.2467 20.0127L15.186 18.952C14.8833 19.2547 14.8834 19.7454 15.186 20.048L16.2467 18.9873ZM16.2467 20.0127L19.2615 16.9979L18.2008 15.9372L15.186 18.952L16.2467 20.0127ZM20.1538 6.94852C17.5082 9.59407 16.8013 13.4423 18.0285 16.7298L19.4338 16.2052C18.4044 13.4477 18.9994 10.2242 21.2144 8.00918L20.1538 6.94852Z" fill="#333333"/>
<circle cx="9.19238" cy="30.9914" r="1.5" transform="rotate(45 9.19238 30.9914)" fill="#DCDCDC"/>
</g>
<defs>
<clipPath id="clip0_11414_15862">
<rect width="40" height="40" fill="white"/>
</clipPath>
</defs>
</svg>
